<svg viewBox="0 0 19.34 15.77" xmlns="http://www.w3.org/2000/svg"><path d="m10.67.28h1.58v1.45h-1.58z" fill="#6fcbdb" transform="matrix(-1 0 0 -1 22.92 2.02)"/><path d="m4.6 5.59h1.33v-1.33h1.25v1.33h1.34v1.25h-1.34v1.33h-1.25v-1.33h-1.33z" fill="#6fcbdb"/><g fill="none" stroke="#002852" stroke-linecap="round" stroke-linejoin="round"><path d="m10.67.28h1.58v1.45h-1.58z" stroke-width=".57" transform="matrix(-1 0 0 -1 22.92 2.02)"/><path d="m4.6 5.59h1.33v-1.33h1.25v1.33h1.34v1.25h-1.34v1.33h-1.25v-1.33h-1.33z" stroke-width=".57"/><path d="m16.14 7.74h-2.42a.6.6 0 0 1 -.6-.6v-3.09a.6.6 0 0 1 1.07-.37l2.41 3.1a.59.59 0 0 1 -.46.96z" stroke-width=".85"/><circle cx="14.93" cy="13.53" r="1.82" stroke-width=".85"/><circle cx="3.54" cy="13.53" r="1.82" stroke-width=".85"/><path d="m3.84 1.73h8.29a3.43 3.43 0 0 1 2.65 1.27l3.36 4.1a3.43 3.43 0 0 1 .77 2.17v2.24a2.3 2.3 0 0 1 -2.18 2.29 2 2 0 0 0 0-.25 1.82 1.82 0 0 0 -3.64 0 2.11 2.11 0 0 0 0 .26h-7.75a2.11 2.11 0 0 0 0-.26 1.83 1.83 0 0 0 -1.82-1.82 1.81 1.81 0 0 0 -1.81 1.77 2.48 2.48 0 0 1 -1.3-2.19v-6.16a3.42 3.42 0 0 1 3.43-3.42z" stroke-width=".85"/></g></svg>