<svg viewBox="0 0 28.29 17.34" xmlns="http://www.w3.org/2000/svg"><g stroke="#002852" stroke-miterlimit="10" stroke-width=".37"><path d="m27.87 16.69h-3.39v-14.25a.23.23 0 0 0 -.23-.23h-2.58v-1.79a.23.23 0 0 0 -.23-.23h-13.68a.23.23 0 0 0 -.23.23v1.79h-2.53a.23.23 0 0 0 -.23.23v14.25h-4.35a.23.23 0 0 0 -.23.23.23.23 0 0 0 .23.23h27.45a.23.23 0 0 0 .23-.23.23.23 0 0 0 -.23-.23zm-19.87-16.05h13.21v1.57h-13.21zm14.72 16.05h-16.23v-12.69h16.23zm.46 0v-13a.23.23 0 0 0 -.18-.19h-16.74a.23.23 0 0 0 -.26.23v13h-.82v-14h18.82v14z" fill="#002852"/><path d="m9.72 11v.09a3.66 3.66 0 0 0 .15.43.56.56 0 0 1 0 .12c.08.17.16.34.25.5l.12.19a3.13 3.13 0 0 0 .2.3 1.49 1.49 0 0 0 .15.2 3.22 3.22 0 0 0 .24.28l.12.14a5.08 5.08 0 0 0 2.25 1.29h.12l.4.08h.18a5.65 5.65 0 0 0 .59 0h.6.18l.4-.08h.12a5 5 0 0 0 2.25-1.3l.09-.11a4 4 0 0 0 .27-.31l.14-.19a2.2 2.2 0 0 0 .21-.32 1 1 0 0 0 .11-.17c.09-.17.18-.34.25-.51s0-.06 0-.09.11-.31.16-.47 0-.05 0-.08 0 0 0 0a4.71 4.71 0 0 0 0-2.58s0 0 0 0a.24.24 0 0 0 0-.08 4.59 4.59 0 0 0 -.17-.48.41.41 0 0 0 0-.08 4.81 4.81 0 0 0 -.1-.56l-.09-.21a3.62 3.62 0 0 0 -.22-.32c0-.07-.09-.13-.13-.19l-.27-.3-.1-.12a5.1 5.1 0 0 0 -2.24-1.3h-.12l-.41-.08h-.17a3.86 3.86 0 0 0 -.6 0 4 4 0 0 0 -.6 0h-.16l-.41.08h-.12a5.19 5.19 0 0 0 -2.36 1.33 0 0 0 0 0 0 0s-.08.1-.13.14a3.11 3.11 0 0 0 -.23.28 1.49 1.49 0 0 0 -.15.2 2.23 2.23 0 0 0 -.2.3l-.12.19c-.09.16-.17.32-.25.5a.56.56 0 0 1 0 .12 3.26 3.26 0 0 0 -.15.44v.08a5 5 0 0 0 -.17 1.29 5.07 5.07 0 0 0 .12 1.36zm.49-2.63a4 4 0 0 1 .16-.45s.05-.1.07-.16l.15-.29.12-.19.14-.28.15-.18a2.09 2.09 0 0 1 .14-.17l.14-.15h1.22l.13.23.73 1.27-.85 1.47h-1.7l-.62-1.06zm3.39-3.18.33-.06h.16a4.44 4.44 0 0 1 1 0h.16l.32.06h.09l.61 1.06-.36.75-.46.79h-1.7l-.85-1.52.61-1.06zm4.61 1.64.14.19.16.24.1.17a3 3 0 0 1 .18.36v.09a3 3 0 0 1 .17.47l-.56 1.1h-1.7l-.7-1.26-.15-.19.53-.93.32-.55h1.22l.12.13zm1 2.85a4.32 4.32 0 0 1 -.05.62l-.35-.62.35-.62a4.21 4.21 0 0 1 .04.62zm-.21 1.32a4.43 4.43 0 0 1 -.17.47v.09a3.84 3.84 0 0 1 -.18.35 1.74 1.74 0 0 1 -.11.18l-.15.24-.14.19c-.06.06-.11.13-.17.2l-.12.13h-1.26l-.32-.56-.53-.92.21-.36.64-1.11h1.7zm-3.39 3.15a2 2 0 0 1 -.34.06h-.15a4.44 4.44 0 0 1 -1 0h-.15a1.86 1.86 0 0 1 -.34-.06h-.09l-.61-1.05.85-1.48h1.7l.46.79.39.69-.61 1.05zm-4.61-1.62-.15-.2-.14-.22-.12-.2c-.05-.09-.1-.19-.14-.28a1.3 1.3 0 0 1 -.08-.17 2.32 2.32 0 0 1 -.16-.44s0 0 0 0l.62-1.06h1.7l.85 1.47-.72 1.25-.13.23h-1.24l-.13-.14zm4.45-4.33.85 1.48-.85 1.47h-1.7l-.85-1.47.41-.7.44-.78zm-2.94 5.11.35.62a4 4 0 0 1 -1.06-.62zm4.19 0h.71a4.09 4.09 0 0 1 -1.07.62zm0-7.31-.36-.62a4.74 4.74 0 0 1 1.07.62zm-4.19 0h-.71a4.68 4.68 0 0 1 1.06-.62zm-2.1 3.64-.36.62c0-.21 0-.41 0-.62s0-.42 0-.62z" fill="#002852"/><g fill="#6fcbdb"><path d="m7.99.64h13.22v1.56h-13.22z"/><path d="m13.6 5.19.33-.06h.16a4.44 4.44 0 0 1 1 0h.16l.32.06h.09l.61 1.06-.36.75-.46.79h-1.7l-.85-1.52.61-1.06z"/><path d="m19 11a4.43 4.43 0 0 1 -.17.47v.09a3.84 3.84 0 0 1 -.18.35 1.74 1.74 0 0 1 -.11.18l-.15.24-.14.19c-.06.06-.11.13-.17.2l-.12.13h-1.26l-.32-.56-.53-.92.21-.36.64-1.11h1.7z"/><path d="m11 12.53-.15-.2-.14-.22-.12-.2c-.05-.09-.1-.19-.14-.28a1.3 1.3 0 0 1 -.08-.17 2.32 2.32 0 0 1 -.16-.44s0 0 0 0l.62-1.06h1.7l.85 1.47-.72 1.25-.13.23h-1.24l-.13-.14z"/><path d="m15.45 8.2.85 1.48-.85 1.47h-1.7l-.85-1.47.41-.7.44-.78z"/></g></g></svg>