<svg viewBox="0 0 22.58 27.3" xmlns="http://www.w3.org/2000/svg"><path d="m22 23.62c-.27-1.77-.49-2.44-2.94-2.72a16.42 16.42 0 0 1 -4.39-.9c-.94-.54-.79-3.22-.79-3.22h-5.16s.15 2.68-.79 3.22a16.42 16.42 0 0 1 -4.39.9c-2.45.28-2.67 1-2.94 2.72a27.06 27.06 0 0 0 -.23 3.31h21.82a26.13 26.13 0 0 0 -.19-3.31z" fill="#fff"/><path d="m22.19 27.3h-21.82a.36.36 0 0 1 -.26-.11.38.38 0 0 1 -.11-.26 27.12 27.12 0 0 1 .23-3.37c.3-2 .66-2.73 3.27-3h.17a15.1 15.1 0 0 0 4.08-.84c.5-.29.65-1.85.6-2.87a.36.36 0 0 1 .1-.28.4.4 0 0 1 .27-.12h5.13a.4.4 0 0 1 .27.12.36.36 0 0 1 .1.28c-.05 1 .1 2.58.6 2.87a15.1 15.1 0 0 0 4.08.84h.17c2.61.3 3 1.07 3.27 3a27.12 27.12 0 0 1 .23 3.37.38.38 0 0 1 -.11.26.39.39 0 0 1 -.27.11zm-21.43-.75h21a24.73 24.73 0 0 0 -.21-2.88c-.24-1.59-.32-2.13-2.61-2.4h-.18a14.81 14.81 0 0 1 -4.36-.93c-.9-.51-1-2.3-1-3.17h-4.29c0 .87-.09 2.66-1 3.17a14.81 14.81 0 0 1 -4.36.93h-.18c-2.29.27-2.37.81-2.61 2.4a24.73 24.73 0 0 0 -.2 2.88z" fill="#002852"/><path d="m17.06 10.08h-.12c0-.39.1-.78.15-1.15.25-1.89.8-7.42-5.81-7.42s-6.05 5.49-5.8 7.42c0 .37.1.76.15 1.15h-.12c-1-.75-1.09 1.2-.67 1.86a3.75 3.75 0 0 1 .56 1.22c.16.44.42.5.63.45 0 .27 0 .5.07.68.09 1 2.54 3.07 3.1 3.71s1.39.36 1.67.35h.41.42c.28 0 1.15.25 1.67-.35s3-2.69 3.1-3.71c0-.18 0-.41.07-.68.21.05.47 0 .62-.45a4 4 0 0 1 .57-1.22c.42-.66.33-2.61-.67-1.86z" fill="#fff"/><path d="m12.34 18.78a3.67 3.67 0 0 1 -.52 0h-.14-.79-.14a3.67 3.67 0 0 1 -.52 0 1.64 1.64 0 0 1 -1.31-.54c-.13-.15-.39-.4-.69-.68-1.33-1.28-2.43-2.4-2.51-3.24 0-.1 0-.22 0-.35a1 1 0 0 1 -.64-.69v-.13a3.48 3.48 0 0 0 -.49-1 2.58 2.58 0 0 1 -.16-2.15.76.76 0 0 1 .75-.43c0-.19 0-.38-.07-.56-.13-1-.53-4 1.22-6a6.28 6.28 0 0 1 4.95-1.83 6.32 6.32 0 0 1 5 1.83c1.72 1.99 1.31 4.99 1.18 5.99 0 .18-.05.37-.07.56a.77.77 0 0 1 .75.43 2.55 2.55 0 0 1 -.1 2.17 3.72 3.72 0 0 0 -.48 1v.13a1 1 0 0 1 -.64.69v.36c-.07.83-1.17 2-2.5 3.23-.3.29-.56.53-.69.68a1.64 1.64 0 0 1 -1.39.53zm-1.06-.78h.41.2.42a.94.94 0 0 0 .75-.28c.15-.17.41-.42.73-.73.78-.75 2.22-2.14 2.28-2.76 0-.19 0-.42.07-.69a.35.35 0 0 1 .15-.26.36.36 0 0 1 .3-.06c.07 0 .14-.18.15-.22v-.13a4.25 4.25 0 0 1 .56-1.16 1.77 1.77 0 0 0 0-1.46s-.06 0-.17.1a.34.34 0 0 1 -.22.07h-.12a.38.38 0 0 1 -.28-.12.4.4 0 0 1 -.09-.3c.05-.39.1-.78.15-1.14.12-.92.48-3.71-1-5.44a5.59 5.59 0 0 0 -4.4-1.57 5.58 5.58 0 0 0 -4.28 1.6c-1.52 1.73-1.16 4.55-1.04 5.44.05.36.1.75.15 1.14a.4.4 0 0 1 -.09.3.39.39 0 0 1 -.28.12h-.12a.34.34 0 0 1 -.22-.07.41.41 0 0 0 -.18-.09 1.75 1.75 0 0 0 0 1.45 3.87 3.87 0 0 1 .55 1.17v.12s.08.22.15.22h.19a.36.36 0 0 1 .3.06.35.35 0 0 1 .15.26c0 .27 0 .5.07.69.06.62 1.5 2 2.28 2.76.32.31.58.56.73.73a.94.94 0 0 0 .75.28h.42.2.41z" fill="#002852"/><path d="m15.75 1.51a2.62 2.62 0 0 0 -2.08-.28c-.38-.4-1.34-1.08-3.47-.79-2.95.41-3.2 1.07-4.34.81a7.22 7.22 0 0 0 -.7 1.91 12.2 12.2 0 0 0 .41 6.67 16.43 16.43 0 0 0 .51 1.75s-.28-3.58.28-5.06 2.51-1.74 3.16-1.11a2.63 2.63 0 0 0 1.76.59 2.66 2.66 0 0 0 1.77-.55 2.21 2.21 0 0 1 2.81.53l.25.38a1.24 1.24 0 0 1 .1.2c.56 1.44.28 5.06.28 5.06a17.76 17.76 0 0 0 .83-3.49c.78-4.61-.32-6.06-1.57-6.62z" fill="#fff"/><path d="m6.08 12a.36.36 0 0 1 -.35-.24s-.28-.77-.53-1.8a12.7 12.7 0 0 1 -.41-6.83 8 8 0 0 1 .75-2 .39.39 0 0 1 .46-.25 2.22 2.22 0 0 0 1.28-.16 15.32 15.32 0 0 1 2.87-.65 7.43 7.43 0 0 1 1-.07 3.81 3.81 0 0 1 2.59.81 2.59 2.59 0 0 1 .47-.05 4.34 4.34 0 0 1 1.66.4c1.89.84 2.46 3.06 1.79 7a17.41 17.41 0 0 1 -.85 3.56.37.37 0 0 1 -.43.23.36.36 0 0 1 -.29-.39s.26-3.55-.26-4.89a1 1 0 0 0 -.07-.15l-.23-.34a2.16 2.16 0 0 0 -1.53-.7 1 1 0 0 0 -.69.2 2.9 2.9 0 0 1 -1.92.66h-.21a2.9 2.9 0 0 1 -1.92-.66 1 1 0 0 0 -.69-.21 2 2 0 0 0 -1.87 1.19 16.32 16.32 0 0 0 -.25 4.82.31.31 0 0 1 0 .1.38.38 0 0 1 -.37.37zm0-10.28a6.75 6.75 0 0 0 -.54 1.57 11.78 11.78 0 0 0 .12 5.54 8 8 0 0 1 .34-2.44 2.77 2.77 0 0 1 2.57-1.66 1.72 1.72 0 0 1 1.21.41 2.15 2.15 0 0 0 1.4.45h.21a2.15 2.15 0 0 0 1.4-.45 1.72 1.72 0 0 1 1.21-.41 2.9 2.9 0 0 1 2.14 1 .08.08 0 0 1 0 0l.26.37a1.89 1.89 0 0 1 .11.25 6.82 6.82 0 0 1 .34 2c0-.12 0-.24.05-.36.79-4.67-.39-5.77-1.35-6.19a3.45 3.45 0 0 0 -1.36-.34 1.09 1.09 0 0 0 -.4.06.27.27 0 0 1 -.12 0 .35.35 0 0 1 -.32-.11 2.89 2.89 0 0 0 -2.17-.66 6.19 6.19 0 0 0 -.93.07 14.71 14.71 0 0 0 -2.74.61 3.28 3.28 0 0 1 -1.44.24z" fill="#002852"/><path d="m12.54 16.7a.38.38 0 0 1 0-.75c1.94 0 3.35-.47 4.18-1.41a3.37 3.37 0 0 0 .8-2.42.37.37 0 0 1 .33-.41.36.36 0 0 1 .41.32 4 4 0 0 1 -1 3c-.95 1.11-2.55 1.67-4.72 1.67z" fill="#002852"/><path d="m19 10.91c0-1.38-.57-2.49-1.27-2.5h-.46v.15a2.92 2.92 0 0 0 -.94 2.35 2.92 2.92 0 0 0 .94 2.35v.15h.46c.71 0 1.27-1.12 1.27-2.5z" fill="#fff"/><path d="m17.74 13.79h-.46a.38.38 0 0 1 -.38-.35 3.49 3.49 0 0 1 -.9-2.53 3.49 3.49 0 0 1 .93-2.53.39.39 0 0 1 .35-.38h.5c.92 0 1.6 1.26 1.6 2.87s-.68 2.84-1.6 2.88zm-.16-.79h.15c.38 0 .91-.82.91-2.13s-.53-2.12-.91-2.13h-.15a.38.38 0 0 1 -.09.09 2.56 2.56 0 0 0 -.77 2 2.56 2.56 0 0 0 .77 2 .38.38 0 0 1 .09.17z" fill="#002852"/><path d="m17.77 12.89a.54.54 0 0 1 -.48.59h-.47a.55.55 0 0 1 -.48-.59v-4a.55.55 0 0 1 .48-.6h.47a.55.55 0 0 1 .48.6z" fill="#fff"/><path d="m17.29 13.85h-.47a.91.91 0 0 1 -.85-1v-4a.91.91 0 0 1 .85-1h.47a.91.91 0 0 1 .85 1v4a.91.91 0 0 1 -.85 1zm-.47-5.13s-.1.08-.1.22v4c0 .14.07.21.1.21h.47s.1-.07.1-.21v-4c0-.14-.07-.22-.1-.22z" fill="#002852"/><path d="m3.56 10.91c0-1.38.57-2.49 1.27-2.5h.46v.15a2.92 2.92 0 0 1 .94 2.35 2.92 2.92 0 0 1 -.94 2.35v.15h-.46c-.7 0-1.27-1.12-1.27-2.5z" fill="#fff"/><path d="m5.29 13.79h-.5c-.92 0-1.61-1.27-1.61-2.88s.69-2.83 1.61-2.91h.5a.39.39 0 0 1 .38.35 3.49 3.49 0 0 1 .93 2.53 3.49 3.49 0 0 1 -.93 2.53.38.38 0 0 1 -.38.38zm-.43-.79h.14.08a2.6 2.6 0 0 0 .77-2 2.6 2.6 0 0 0 -.77-2 .38.38 0 0 1 -.08-.22h-.16c-.38 0-.91.82-.91 2.13s.53 2.09.91 2.09z" fill="#002852"/><path d="m4.8 12.89a.54.54 0 0 0 .48.59h.47a.55.55 0 0 0 .48-.59v-4a.55.55 0 0 0 -.48-.6h-.47a.55.55 0 0 0 -.48.6z" fill="#fff"/><path d="m5.75 13.85h-.47a.91.91 0 0 1 -.85-1v-4a.91.91 0 0 1 .85-1h.47a.91.91 0 0 1 .85 1v4a.91.91 0 0 1 -.85 1zm-.47-5.13s-.11.08-.11.22v4c0 .14.08.21.11.21h.47s.1-.07.1-.21v-4c0-.14-.07-.22-.1-.22z" fill="#002852"/><path d="m17.74 9a.38.38 0 0 1 -.37-.37 6.24 6.24 0 0 0 -6.09-6.37 6.24 6.24 0 0 0 -6.08 6.35.38.38 0 0 1 -.75 0 7 7 0 0 1 6.83-7.12 7 7 0 0 1 6.84 7.12.38.38 0 0 1 -.38.39z" fill="#002852"/><rect fill="#fff" height="1.04" rx=".51" width="2.78" x="10.87" y="15.8"/><path d="m13.13 17.22h-1.75a.9.9 0 0 1 0-1.79h1.75a.88.88 0 0 1 .89.88.9.9 0 0 1 -.89.91zm-1.75-1a.15.15 0 0 0 0 .3h1.75a.14.14 0 0 0 .14-.14.15.15 0 0 0 -.14-.16z" fill="#002852"/><path d="m11.23 20.23-2.71-1.17a1.54 1.54 0 0 1 -.59.94 16.42 16.42 0 0 1 -4.39.9c-2.45.28-2.67 1-2.94 2.72a27.06 27.06 0 0 0 -.23 3.31h21.82a26.13 26.13 0 0 0 -.19-3.31c-.27-1.77-.49-2.44-2.94-2.72a16.42 16.42 0 0 1 -4.39-.9 1.54 1.54 0 0 1 -.59-.94z" fill="#fff"/><path d="m22.2 27.3h-21.83a.36.36 0 0 1 -.26-.11.38.38 0 0 1 -.11-.26 27.12 27.12 0 0 1 .23-3.37c.3-2 .66-2.73 3.27-3h.17a15.1 15.1 0 0 0 4.08-.84 1.27 1.27 0 0 0 .41-.72.37.37 0 0 1 .5-.24l2.57 1.11 2.68-1.12a.39.39 0 0 1 .35 0 .36.36 0 0 1 .15.21 1.21 1.21 0 0 0 .41.71 15.1 15.1 0 0 0 4.08.84h.17c2.61.3 3 1.07 3.27 3a27.52 27.52 0 0 1 .23 3.29s0 0 0 .08a.38.38 0 0 1 -.37.42zm-21.44-.75h21a24.73 24.73 0 0 0 -.21-2.88c-.24-1.59-.32-2.13-2.61-2.4h-.18a14.81 14.81 0 0 1 -4.36-.93 1.56 1.56 0 0 1 -.62-.76l-2.46 1a.37.37 0 0 1 -.29 0l-2.34-1a1.56 1.56 0 0 1 -.62.76 14.81 14.81 0 0 1 -4.36.93h-.18c-2.29.27-2.37.81-2.61 2.4a24.73 24.73 0 0 0 -.16 2.88z" fill="#002852"/><path d="m11.42 21.68-.13-.19-.14.19-1.3 5.02.74.23h.7.68l.75-.23z" fill="#fff"/><path d="m12 27.3h-1.41a.23.23 0 0 1 -.11 0l-.74-.23a.37.37 0 0 1 -.25-.45l1.3-5a.34.34 0 0 1 .06-.12l.13-.18a.37.37 0 0 1 .3-.16.37.37 0 0 1 .31.16l.13.18a.34.34 0 0 1 .06.12l1.3 5a.37.37 0 0 1 -.25.45l-.74.23a.23.23 0 0 1 -.09 0zm-1.33-.75h1.27l.35-.11-1-3.78-1 3.78z" fill="#002852"/><path d="m6.23 20.52c-1 .2-2.14.32-2.69.38-2.45.28-2.67 1-2.94 2.72a27.06 27.06 0 0 0 -.23 3.31h10.22z" fill="#fff"/><path d="m10.59 27.3h-10.22a.36.36 0 0 1 -.26-.11.38.38 0 0 1 -.11-.26 27.12 27.12 0 0 1 .23-3.37c.3-2 .66-2.73 3.27-3h.17c.59-.07 1.58-.18 2.48-.36a.36.36 0 0 1 .38.16l4.37 6.41a.35.35 0 0 1 0 .38.37.37 0 0 1 -.31.15zm-9.83-.75h9.13l-3.84-5.62c-.86.16-1.75.26-2.3.32h-.17c-2.29.27-2.37.81-2.61 2.4a24.73 24.73 0 0 0 -.21 2.9z" fill="#002852"/><path d="m22.19 26.93a26.13 26.13 0 0 0 -.19-3.31c-.27-1.77-.49-2.44-2.94-2.72-.55-.06-1.67-.18-2.69-.38l-4.37 6.41z" fill="#fff"/><path d="m22.19 27.3h-10.19a.37.37 0 0 1 -.33-.2.35.35 0 0 1 0-.38l4.33-6.41a.38.38 0 0 1 .39-.16c.9.18 1.89.29 2.48.36h.17c2.61.3 3 1.07 3.27 3a27.12 27.12 0 0 1 .23 3.37.38.38 0 0 1 -.11.26.39.39 0 0 1 -.24.16zm-9.51-.75h9.13a24.73 24.73 0 0 0 -.21-2.88c-.24-1.59-.32-2.13-2.61-2.4h-.17c-.55-.06-1.44-.16-2.31-.32z" fill="#002852"/><path d="m10.35 21.13.88.94 1.03-.94-1.03-.9z" fill="#fff"/><path d="m11.23 22.44a.36.36 0 0 1 -.27-.12l-.88-.93a.37.37 0 0 1 0-.52l.92-.87a.38.38 0 0 1 .52 0l1 .9a.37.37 0 0 1 .13.28.36.36 0 0 1 -.12.28l-1 .93a.35.35 0 0 1 -.3.05zm-.36-1.3.38.4.45-.4-.45-.39z" fill="#002852"/><path d="m11.23 20.23-1.79 1.84-1.79-1.84.87-1.17z" fill="#fff"/><path d="m9.44 22.44a.39.39 0 0 1 -.27-.11l-1.79-1.84a.37.37 0 0 1 0-.48l.87-1.17a.36.36 0 0 1 .44-.12l2.72 1.17a.4.4 0 0 1 .22.27.37.37 0 0 1 -.1.33l-1.82 1.84a.39.39 0 0 1 -.27.11zm-1.3-2.24 1.3 1.33 1.14-1.17-1.94-.84z" fill="#002852"/><path d="m11.23 20.23 1.79 1.84 1.79-1.84-.86-1.17z" fill="#fff"/><path d="m13 22.44a.36.36 0 0 1 -.26-.11l-1.74-1.84a.37.37 0 0 1 .12-.6l2.72-1.17a.38.38 0 0 1 .45.12l.83 1.16a.37.37 0 0 1 0 .48l-1.79 1.84a.39.39 0 0 1 -.33.12zm-1.14-2.08 1.14 1.17 1.3-1.33-.5-.68z" fill="#002852"/><path d="m6.07 1.67a6.75 6.75 0 0 0 -.54 1.57 11.78 11.78 0 0 0 .12 5.54 8 8 0 0 1 .35-2.39 2.77 2.77 0 0 1 2.57-1.66 1.72 1.72 0 0 1 1.21.41 2.15 2.15 0 0 0 1.4.45h.21a2.15 2.15 0 0 0 1.4-.45 1.72 1.72 0 0 1 1.21-.41 2.9 2.9 0 0 1 2.14 1 .08.08 0 0 1 0 0l.26.37a1.89 1.89 0 0 1 .11.25 6.82 6.82 0 0 1 .34 2c0-.12 0-.24.05-.36.79-4.67-.39-5.77-1.35-6.19a3.45 3.45 0 0 0 -1.36-.34 1.09 1.09 0 0 0 -.4.06.27.27 0 0 1 -.12 0 .35.35 0 0 1 -.32-.11 2.89 2.89 0 0 0 -2.17-.66 6.19 6.19 0 0 0 -.93.07 14.71 14.71 0 0 0 -2.74.61 3.28 3.28 0 0 1 -1.44.24z" fill="#3e85b4"/></svg>