<svg viewBox="0 0 150.84 242.8" xmlns="http://www.w3.org/2000/svg"><path d="m68 18.49c-3.84 15.25 7.15 22.07 21.9 25.78s27.67 2.91 31.5-12.34c3.79-15-6.75-23.66-21.5-27.38s-28-1.55-31.9 13.94z" fill="#6fcbdb"/><path d="m89.16 47.17c-8.91-2.24-15.21-5.3-19.29-9.34-5.22-5.17-6.87-11.93-4.78-20.07 3.81-15.12 16.44-20.92 35.54-16.11 8.54 2.16 15 5.64 19.2 10.37 4.93 5.54 6.47 12.68 4.46 20.64-2.74 10.92-10 16.46-21.53 16.46a56 56 0 0 1 -13.6-1.95zm-18.27-27.95c-1.52 6-.47 10.73 3.19 14.36 3.3 3.27 8.7 5.82 16.54 7.79 16.75 4.22 25 1.32 27.87-10.17 1.51-6.12.51-11.1-3.13-15.2-3.34-3.76-8.94-6.71-16.2-8.54a44.47 44.47 0 0 0 -10.75-1.46c-9.54 0-15.27 4.3-17.52 13.22z" fill="#002852"/><path d="m4.79 213.28c2.15-14.16 14.26-19.64 21.44-21.79s19.07-3 26.6-7.25 6.33-25.82 6.33-25.82h32.51s-1.19 21.52 6.33 25.82 19.42 5.09 26.59 7.25 19.3 7.63 21.45 21.79c1.72 11.35 1.8 26.53 1.8 26.53h-144.84s.06-15.18 1.79-26.53z" fill="#fff"/><path d="m.87 241.92a3 3 0 0 1 -.87-2.12c0-.63.09-15.54 1.83-27 1.76-11.56 10.17-20.16 23.54-24.18 2.61-.78 5.7-1.37 9-2 5.85-1.13 12.48-2.4 17-5 4.08-2.32 5.28-14.88 4.83-23a3 3 0 0 1 3-3.16h32.47a3 3 0 0 1 2.18.93 3 3 0 0 1 .81 2.23c-.45 8.16.74 20.72 4.83 23 4.51 2.58 11.14 3.85 17 5 3.28.63 6.38 1.22 9 2 13.43 4 21.79 12.62 23.54 24.21a221.38 221.38 0 0 1 1.84 27 3 3 0 0 1 -.87 2.12 3 3 0 0 1 -2.12.88h-144.88a3 3 0 0 1 -2.13-.91zm142.22-28.19c-1.78-11.76-11.5-17-19.35-19.37-2.31-.7-5.26-1.27-8.39-1.87-6.3-1.21-13.45-2.58-18.83-5.65-7.23-4.13-8-18.48-7.93-25.43h-26.34c.07 7-.7 21.3-7.93 25.43-5.38 3.07-12.53 4.44-18.84 5.65-3.13.6-6.08 1.17-8.39 1.87-7.84 2.34-17.56 7.64-19.35 19.37a205.72 205.72 0 0 0 -1.74 23.09h138.81a203.7 203.7 0 0 0 -1.72-23.09z" fill="#002852"/><path d="m29.12 104.71s-6.86-29.3 1.12-45.6c8.6-17.57 21.52-27.61 45.18-27.61s36.58 10 45.18 27.61c8 16.3 1.11 45.6 1.11 45.6 10.76-2.15 8.74 9.62 5.38 14.94-2.78 4.41-2.84 4.89-4.53 9.73-2.41 7-8 2.16-8 2.16-3.23 9-5.52 11.08-18.38 22.94-11.18 10.33-15.1 10.22-20.76 10.22s-9.51.11-20.8-10.22c-12.9-11.81-15.15-14-18.37-22.94 0 0-5.56 4.83-8-2.16-1.68-4.84-1.74-5.32-4.52-9.73-3.35-5.32-5.37-17.09 5.39-14.94z" fill="#fff"/><path d="m52.61 156.69c-11.55-10.56-15-13.83-17.93-20.92a7.42 7.42 0 0 1 -2.35.39c-1.82 0-5.14-.76-6.88-5.8l-.37-1a27.42 27.42 0 0 0 -3.86-8.07c-2.2-3.47-4.67-10.82-2-15.74a7.79 7.79 0 0 1 6.16-4c-1.6-8.72-4.53-30.12 2.13-43.73 9.92-20.26 24.68-29.29 47.87-29.29s38 9 47.86 29.29c6.67 13.61 3.74 35 2.13 43.73a7.76 7.76 0 0 1 6.16 4c2.72 4.92.25 12.26-1.95 15.73a27.58 27.58 0 0 0 -3.86 8.08l-.37 1c-1.74 5-5.06 5.8-6.88 5.8a7.48 7.48 0 0 1 -2.36-.39c-3 7.2-6.5 10.39-17.91 20.91-11.13 10.27-15.91 11-22.64 11l-.18-3-.18 3h-.19c-6.42.01-10.96-.52-22.4-10.99zm23.17 5c4.93 0 8.19 0 18.41-9.43 12.65-11.67 14.59-13.46 17.59-21.76a3 3 0 0 1 2-1.86 3 3 0 0 1 2.72.6 3.89 3.89 0 0 0 2 .91c.58 0 1.12-1.47 1.23-1.77l.36-1a33.19 33.19 0 0 1 4.46-9.31c2-3.08 2.81-7.77 1.77-9.65-.17-.31-.52-1-2.21-1a9.7 9.7 0 0 0 -1.82.2 3 3 0 0 1 -2.74-.85 3 3 0 0 1 -.76-2.76c.07-.28 6.53-28.44-.89-43.6-8.9-18.16-21.6-25.91-42.48-25.91s-33.59 7.75-42.49 25.93c-7.41 15.14-1 43.32-.9 43.6a3 3 0 0 1 -.76 2.76 3 3 0 0 1 -2.74.85 9.69 9.69 0 0 0 -1.81-.2c-1.7 0-2 .65-2.22 1-1 1.88-.18 6.57 1.78 9.65a33.19 33.19 0 0 1 4.46 9.31l.36 1c.1.3.64 1.77 1.23 1.77a4 4 0 0 0 2-.89 3 3 0 0 1 2.71-.64 3 3 0 0 1 2.07 1.88c2.92 8.14 4.68 10 17.58 21.75 10.3 9.44 13.53 9.44 18.4 9.44h.73z" fill="#002852"/><path d="m44.6 31.5a51.07 51.07 0 0 1 48.5 0c54.61 6 35.49 74.9 35.49 74.9-1.18-1.58-3.32-2.4-6.86-1.69.76-5-5.41-11.12-15.09-18.29a42.87 42.87 0 0 1 -13.54-17.57s-9.69 18.28-33.94 23.15-29.37 8.26-30 12.74c-3.53-.71-5.67.11-6.85 1.69s-14.74-55.58 22.29-74.93z" fill="#6fcbdb"/><path d="m19.35 107.16c-.63-2.36-14.83-58.09 23.86-78.31a55 55 0 0 1 25.67-6.45 53.46 53.46 0 0 1 25.18 6.2c14.29 1.72 25 7.76 31.94 18 15.64 23.1 5.9 59.11 5.48 60.63a3 3 0 0 1 -5.32 1c-.15-.2-.54-.73-2.07-.73a9.34 9.34 0 0 0 -1.79.19 3 3 0 0 1 -.59.06h-.06a3 3 0 0 1 -2.87-3.84c0-3.12-4.67-8.17-13.94-15a45.08 45.08 0 0 1 -12.16-14 54.73 54.73 0 0 1 -32.93 20c-18.63 3.72-27.16 6.88-27.67 10.25a3 3 0 0 1 -3.55 2.48 9.34 9.34 0 0 0 -1.79-.19c-1.52 0-1.91.53-2.07.73a3 3 0 0 1 -2.4 1.21 3 3 0 0 1 -2.92-2.23zm26.65-73c-29 15.13-24.06 55-21.69 67.58a9.58 9.58 0 0 1 2.76-.27c2.66-5.18 11.14-8.37 31.51-12.47 22.42-4.44 31.79-21.39 31.88-21.55a3 3 0 0 1 5.44.36 40.29 40.29 0 0 0 12.5 16.19c9.85 7.3 14.85 12.66 16.07 17.46a10.37 10.37 0 0 1 2.13.28c2-9.62 5.74-35.16-5.56-51.84-6-8.83-15.49-14-28.27-15.43a3 3 0 0 1 -1.24-.43 47.28 47.28 0 0 0 -22.65-5.67 49 49 0 0 0 -22.88 5.79z" fill="#002852"/><path d="m98 184.24c7.52 4.3 19.42 5.09 26.59 7.25s19.3 7.63 21.45 21.79c1.72 11.35 1.8 26.53 1.8 26.53h-144.84s.07-15.18 1.8-26.53c2.15-14.16 14.26-19.64 21.44-21.79s19.07-3 26.6-7.25a5.94 5.94 0 0 0 .92-.66l21.84 23.17 21.49-23.17a5.94 5.94 0 0 0 .91.66z" fill="#fff"/><path d="m.87 241.92a3 3 0 0 1 -.87-2.12c0-.63.09-15.54 1.83-27 1.76-11.56 10.17-20.16 23.54-24.18 2.61-.78 5.7-1.37 9-2 5.85-1.13 12.48-2.4 17-5a3.5 3.5 0 0 0 .49-.37 3 3 0 0 1 4.07.26l19.66 20.84 19.31-20.8a3 3 0 0 1 4.09-.28 2.7 2.7 0 0 0 .5.37c4.51 2.58 11.14 3.85 17 5 3.28.63 6.38 1.22 9 2 13.43 4 21.79 12.62 23.54 24.21a221.38 221.38 0 0 1 1.84 27 3 3 0 0 1 -.87 2.12 3 3 0 0 1 -2.12.88h-144.88a3 3 0 0 1 -2.13-.93zm142.22-28.19c-1.78-11.76-11.5-17-19.35-19.37-2.31-.7-5.26-1.27-8.39-1.87-5.89-1.13-12.53-2.4-17.74-5.06l-19.82 21.35a3 3 0 0 1 -2.18 1 3 3 0 0 1 -2.18-.94l-20.18-21.43c-5.24 2.68-11.87 4-17.77 5.08-3.13.6-6.08 1.17-8.39 1.87-7.84 2.34-17.56 7.64-19.35 19.37a205.72 205.72 0 0 0 -1.74 23.09h138.81a203.7 203.7 0 0 0 -1.72-23.09z" fill="#002852"/><path d="m53.2 184.24a5.94 5.94 0 0 0 .92-.66s10.69 7.27 21.49 7.27c11 0 21.48-7.27 21.48-7.27a5.94 5.94 0 0 0 .92.66c3.4 1.95 7.69 3.15 12 4.11l-34.4 37.81-34.45-37.79c4.35-.98 8.64-2.18 12.04-4.13z" fill="#fff"/><path d="m73.39 228.18-34.39-37.8a3 3 0 0 1 1.57-4.95c3.47-.77 7.89-1.89 11.21-3.79a4.62 4.62 0 0 0 .5-.37 3 3 0 0 1 3.57-.16c.1.07 10 6.75 19.81 6.75s19.68-6.67 19.78-6.74a3 3 0 0 1 3.6.15 2.7 2.7 0 0 0 .5.37c3.31 1.9 7.73 3 11.2 3.79a3 3 0 0 1 1.57 4.95l-34.44 37.8a3 3 0 0 1 -2.21 1 3 3 0 0 1 -2.27-1zm23.68-41c-3.59 2.16-12.25 6.7-21.46 6.7s-17.84-4.57-21.45-6.71a37.82 37.82 0 0 1 -7.43 2.83l28.88 31.68 28.86-31.68a37.28 37.28 0 0 1 -7.4-2.86z" fill="#002852"/><path d="m63.3 150a3 3 0 0 0 0-6c-18.31 0-31.18-3.93-37.21-11.36a16.23 16.23 0 0 1 -3.69-12.54 3 3 0 1 0 -5.85-1.23 22.26 22.26 0 0 0 4.89 17.54c7.32 8.98 21.4 13.59 41.86 13.59z" fill="#002852"/><path d="m9.73 113.08c0-11.29 4.67-20.45 10.45-20.5h3.76v1.26c4.26 2.88 7.65 10.4 7.65 19.25s-3.39 16.38-7.65 19.25v1.27h-3.76c-5.78-.08-10.45-9.24-10.45-20.53z" fill="#fff"/><path d="m20.15 136.58c-7.65-.08-13.41-10.18-13.41-23.5s5.76-23.42 13.44-23.5h3.76a3 3 0 0 1 3 2.79c4.63 4.08 7.65 12.13 7.65 20.71s-3 16.64-7.65 20.72a3 3 0 0 1 -3 2.79h-3.79zm2.12-6.72c3.15-2.13 6.33-8.58 6.33-16.78s-3.18-14.64-6.33-16.77a3.05 3.05 0 0 1 -.77-.75h-1.29c-3.53 0-7.49 7.53-7.49 17.51s4 17.47 7.48 17.53h1.3a2.89 2.89 0 0 1 .77-.74z" fill="#002852"/><path d="m19.91 129.27c0 2.68 1.74 4.85 3.89 4.85h3.9c2.15 0 3.89-2.17 3.89-4.85v-32.38c0-2.68-1.74-4.85-3.89-4.85h-3.9c-2.15 0-3.89 2.17-3.89 4.85z" fill="#fff"/><path d="m16.91 129.27v-32.38c0-4.32 3.1-7.84 6.89-7.84h3.9c3.8 0 6.88 3.52 6.88 7.84v32.38c0 4.33-3.08 7.85-6.88 7.85h-3.9c-3.8 0-6.89-3.52-6.89-7.85zm6.89-34.27c-.27 0-.9.7-.9 1.85v32.38c0 1.16.63 1.86.9 1.86h3.9c.28 0 .9-.7.9-1.86v-32.34c0-1.15-.62-1.85-.9-1.85z" fill="#002852"/><path d="m141.1 113.08c0-11.29-4.66-20.45-10.44-20.5h-3.77v1.26c-4.25 2.88-7.65 10.4-7.65 19.25s3.4 16.38 7.65 19.25v1.27h3.77c5.78-.08 10.44-9.24 10.44-20.53z" fill="#fff"/><path d="m123.91 133.8c-4.63-4.08-7.66-12.13-7.66-20.72s3-16.63 7.66-20.71a3 3 0 0 1 .87-1.92 3 3 0 0 1 2.11-.87h3.8c7.64.08 13.41 10.19 13.41 23.5s-5.77 23.42-13.44 23.51h-3.77a3 3 0 0 1 -2.98-2.79zm5.43-38.24a3.23 3.23 0 0 1 -.77.75c-3.15 2.13-6.34 8.57-6.34 16.77s3.19 14.65 6.34 16.78a2.82 2.82 0 0 1 .76.74h1.3c3.53 0 7.48-7.54 7.48-17.52s-4-17.48-7.45-17.52z" fill="#002852"/><path d="m130.93 129.27c0 2.68-1.75 4.85-3.9 4.85h-3.89c-2.15 0-3.9-2.17-3.9-4.85v-32.38c0-2.68 1.75-4.85 3.9-4.85h3.86c2.15 0 3.9 2.17 3.9 4.85z" fill="#fff"/><path d="m116.25 129.27v-32.38c0-4.32 3.09-7.84 6.89-7.84h3.86c3.8 0 6.89 3.52 6.89 7.84v32.38c0 4.33-3.09 7.85-6.89 7.85h-3.89c-3.77 0-6.86-3.52-6.86-7.85zm6.89-34.27c-.28 0-.91.7-.91 1.85v32.38c0 1.16.63 1.86.91 1.86h3.86c.28 0 .9-.7.9-1.86v-32.34c0-1.15-.62-1.85-.9-1.85z" fill="#002852"/><path d="m20 97.19a3 3 0 0 0 3-3 52.47 52.47 0 0 1 104.94 0 3 3 0 1 0 6 0 58.45 58.45 0 0 0 -116.9 0 3 3 0 0 0 2.96 3z" fill="#002852"/><path d="m57.69 147a4.16 4.16 0 0 0 4.31 4h14.8a4.16 4.16 0 0 0 4.37-4v-.12a4.17 4.17 0 0 0 -4.34-4h-14.83a4.17 4.17 0 0 0 -4.34 4z" fill="#fff"/><path d="m54.7 146.91a7.16 7.16 0 0 1 7.3-6.91h14.8a7 7 0 1 1 0 14h-14.8a7.17 7.17 0 0 1 -7.3-7.09zm7.33-1a1.23 1.23 0 0 0 -1.35 1.09c0 .45.56 1 1.35 1h14.8a1.23 1.23 0 0 0 1.35-1.08c0-.46-.56-1-1.35-1z" fill="#002852"/></svg>