<svg viewBox="0 0 132.53 66.41" xmlns="http://www.w3.org/2000/svg" xmlns:xlink="http://www.w3.org/1999/xlink"><clipPath id="a"><path d="m96.71 39.64h-26.26a1.89 1.89 0 0 0 -1.14.39l-29.21 22.67h-5.85l15.48-20.07a1.87 1.87 0 0 0 -1.56-3h-16.6c-4.88 0-20.76-5.62-27.86-8.3v-5.47h7.29a1.85 1.85 0 0 0 1.63-2.74l-7.63-14.2h4.76l18.64 16.48a1.86 1.86 0 0 0 1.23.46h54.71c10.23 0 19.8 6.41 19.8 9.32s-4.32 4.46-7.43 4.46z"/></clipPath><path d="m130.22 19.24a28.85 28.85 0 0 0 -55.68 7.16h.46a28.34 28.34 0 0 1 3.55-11 3.42 3.42 0 0 0 0 .44 4.2 4.2 0 0 0 .82 2.39 26.65 26.65 0 0 0 -3.17 8.18h.29a26.83 26.83 0 0 1 3.07-7.94 10.12 10.12 0 0 0 2.44 2.17v-.35a9.57 9.57 0 0 1 -2.35-2.09 34.43 34.43 0 0 1 5.22-6.66 31.87 31.87 0 0 1 4.75-3.74 7.72 7.72 0 0 0 3.47 2.2c-.57.64-1.11 1.31-1.63 2a41.48 41.48 0 0 0 -2.62 3.9h.33a41.39 41.39 0 0 1 2.53-3.73c.52-.69 1.09-1.38 1.68-2l.69.24a26.55 26.55 0 0 0 5.55 1.16c-.43 1.44-.81 2.9-1.16 4.38h.3c.35-1.47.73-2.92 1.16-4.35 1.1.11 2.21.16 3.32.17 1.3 0 2.59-.06 3.86-.18.4 1.44.76 2.89 1.07 4.36h.3q-.48-2.22-1.08-4.38l.79-.08a24.78 24.78 0 0 0 5.54-1.18c.56.65 1.1 1.32 1.6 2a42.24 42.24 0 0 1 5.48 10.16 40.79 40.79 0 0 1 -9.16 2.06v.29a41.93 41.93 0 0 0 9.26-2.08 43.38 43.38 0 0 1 1.83 6.55 37.17 37.17 0 0 1 .7 7.39 53 53 0 0 1 -11.79 2.58v.29a52.77 52.77 0 0 0 11.79-2.57 28.38 28.38 0 0 1 -1.87 9.93 16.22 16.22 0 0 1 -1 2.06 43.25 43.25 0 0 1 -5.74 1.47c-1.65.33-3.34.57-5.06.74v-.11c.24-1.14.42-2.29.56-3.46h-.29c-.14 1.15-.32 2.28-.56 3.4a1.42 1.42 0 0 1 0 .2c-2 .19-4 .28-6 .27h-1.07c-1.86 0-3.71-.15-5.53-.33v-.18c-.21-1.09-.37-2.22-.49-3.35h-.38c.12 1.15.29 2.29.5 3.41a.29.29 0 0 1 0 .09 52.6 52.6 0 0 1 -6.38-1.12 42.67 42.67 0 0 1 -4.35-1.2 18.08 18.08 0 0 1 -.93-2 26.72 26.72 0 0 1 -1.58-7.17h-.26a27.06 27.06 0 0 0 1.59 7.27 17.45 17.45 0 0 0 .81 1.81 12.54 12.54 0 0 1 -5.76-3.71 28 28 0 0 1 -2.64-5.43h-.67a28.6 28.6 0 0 0 26.6 18.18 28.94 28.94 0 0 0 29-28.49 28.36 28.36 0 0 0 -1.74-10zm1.33 10c0 .58 0 1.16-.07 1.73a3.21 3.21 0 0 1 -.24.45c0-2.65-.55-6.85-3.62-13a4.16 4.16 0 0 0 .81-2.21 28.56 28.56 0 0 1 1.41 3.19 28 28 0 0 1 1.71 9.88zm-5.83 16.9a15.54 15.54 0 0 1 -4.72 2.65 17.53 17.53 0 0 0 .85-1.81 28.73 28.73 0 0 0 1.89-10.14l.51-.2c2.29-.88 5.08-2.14 6.7-4.27 0 .48-.05.89-.08 1.24a21.91 21.91 0 0 1 -.62 3.89 28.52 28.52 0 0 1 -4.51 8.66zm-33.63 9a15.26 15.26 0 0 1 -6.1-6c1.42.47 2.84.82 4.07 1.1a52 52 0 0 0 6.53 1.09 19.43 19.43 0 0 0 1 3.52 5.77 5.77 0 0 0 1.3 2.15c-.89-.11-1.75-.27-2.61-.45a28.14 28.14 0 0 1 -4.19-1.38zm-8.91-45.88a24.47 24.47 0 0 1 6.1-4.08 2.43 2.43 0 0 0 -.22 1 3.37 3.37 0 0 0 0 .44 2.67 2.67 0 0 0 .37 1 32.54 32.54 0 0 0 -4.8 3.77 34.73 34.73 0 0 0 -5.18 6.61 3.67 3.67 0 0 1 -.7-2.13 3.5 3.5 0 0 1 .32-1.4 28.67 28.67 0 0 1 4.11-5.16zm47.82 22.64c-1.5 2.23-4.4 3.57-6.79 4.49l-.41.15a37.43 37.43 0 0 0 -.71-7.34 42 42 0 0 0 -1.85-6.59c2.23-.84 4.76-2 6.27-3.94 3.08 6.28 3.54 10.45 3.52 13a.91.91 0 0 1 0 .17zm-26.3-28.9-.09-.05c.45.06.9.14 1.34.23a32.41 32.41 0 0 1 11.23 4.54 8.25 8.25 0 0 1 -3.37 2.22 26.62 26.62 0 0 0 -9.11-6.94zm16.37 19.34a42.29 42.29 0 0 0 -5.52-10.23c-.48-.66-1-1.31-1.54-1.94a8.3 8.3 0 0 0 3.41-2.29 31.15 31.15 0 0 1 4.74 3.81 25.77 25.77 0 0 1 5.12 6.69c-1.42 1.94-4 3.11-6.21 4zm-3.71-14.86a32.9 32.9 0 0 0 -11.36-4.59c-.36-.08-.73-.14-1.1-.2.52 0 1-.06 1.56 0a27.17 27.17 0 0 1 6.1.77 24.67 24.67 0 0 1 4.76 1.54 2.09 2.09 0 0 1 .41 1.23 2.37 2.37 0 0 1 -.37 1.21zm.15-2.68-.06-.07.44.27zm-.64-.28a26.06 26.06 0 0 0 -4.22-1.39 27.31 27.31 0 0 0 -6.18-.78c-.56 0-1.12 0-1.67.06a14.13 14.13 0 0 1 4.2-.61 12.26 12.26 0 0 1 1.36.07 28.58 28.58 0 0 1 6.2 2.38l.29.27zm-12.87-2.13a4.12 4.12 0 0 1 1.59-1.33 29.35 29.35 0 0 1 3.24.45 13.93 13.93 0 0 0 -4.83.88zm.58.86a26.39 26.39 0 0 1 8.93 6.75 24.58 24.58 0 0 1 -5.36 1.13l-.84.08c-.46-1.59-1-3.17-1.58-4.72a16.57 16.57 0 0 0 -1.73-3.49l.6.26zm.88 3.37q.89 2.3 1.56 4.65c-1.25.12-2.51.17-3.77.17-1.09 0-2.17-.06-3.25-.16.48-1.58 1-3.14 1.65-4.67a15.92 15.92 0 0 1 1.94-3.67 15.56 15.56 0 0 1 1.87 3.68zm-4.08-.12c-.64 1.56-1.18 3.14-1.67 4.75a26.41 26.41 0 0 1 -5.55-1.15l-.57-.19a26.51 26.51 0 0 1 9-6.67l.6-.25a17.44 17.44 0 0 0 -1.81 3.51zm-3.2-5h-.18a28.68 28.68 0 0 1 3.59-.5 4.2 4.2 0 0 1 1.6 1.35 14 14 0 0 0 -5-.91zm4.29 1.5a27.18 27.18 0 0 0 -9.18 6.8 8 8 0 0 1 -3.43-2.15 32.93 32.93 0 0 1 11.36-4.5c.45-.08.9-.16 1.35-.22h-.1zm-1.3-.11a32.89 32.89 0 0 0 -11.47 4.52 2.42 2.42 0 0 1 -.32-.86 2.56 2.56 0 0 1 0-.39 2 2 0 0 1 .34-1.16 25.34 25.34 0 0 1 4.87-1.63 28.1 28.1 0 0 1 6.13-.74c.52 0 1 0 1.55.07-.37 0-.74.12-1.1.19zm-11.65 1.86a25.77 25.77 0 0 0 -2.44 1.25 26.64 26.64 0 0 1 2.78-1.68 3.14 3.14 0 0 0 -.34.4zm17.3 52.25a36.06 36.06 0 0 1 -3.89.19 31 31 0 0 1 -3.48-.19 4.66 4.66 0 0 1 -1.64-2.26 19.43 19.43 0 0 1 -.92-3.39q2.7.27 5.46.33h1.08q3 0 6-.26a19.57 19.57 0 0 1 -1 3.35 5 5 0 0 1 -1.61 2.23zm24.6-25.35c-.07.76-.18 1.52-.31 2.27v-.33c0-.44.08-1 .09-1.67l.19-.27zm-3.29-16.07a2.23 2.23 0 0 1 0 .36 3.73 3.73 0 0 1 -.68 2.12 26.53 26.53 0 0 0 -5.1-6.63 31.4 31.4 0 0 0 -4.77-3.83 2.74 2.74 0 0 0 .42-1.33 2.32 2.32 0 0 0 -.24-1 23.89 23.89 0 0 1 2.91 1.65 27.7 27.7 0 0 1 7.44 8.72zm-23.13-14.58a5.41 5.41 0 0 0 -1.44 1.42 5.3 5.3 0 0 0 -1.42-1.42h1.28zm-8.94.88a13.19 13.19 0 0 1 2.09-.15 13.78 13.78 0 0 1 4.21.65 15.44 15.44 0 0 0 -1.67-.08 27.38 27.38 0 0 0 -6.19.74 26 26 0 0 0 -4.4 1.46 6.11 6.11 0 0 1 .9-.74c.8-.37 1.61-.72 2.46-1s1.74-.59 2.62-.82zm-15.4 44.56a15.79 15.79 0 0 0 4.91 2.56 15.77 15.77 0 0 0 4.51 5.19 28 28 0 0 1 -9.42-7.78zm32.22 9.15a29.42 29.42 0 0 1 -4.28 1.2q-.61.1-1.23.18a5.92 5.92 0 0 0 1.33-2 19.81 19.81 0 0 0 1-3.49c1.75-.17 3.48-.42 5.18-.75a45 45 0 0 0 5.46-1.38 15.55 15.55 0 0 1 -5.13 5.29c-.76.36-1.54.7-2.35 1zm4-1.84a16.14 16.14 0 0 0 3.87-4.58 18.3 18.3 0 0 0 4.2-2.09 28.34 28.34 0 0 1 -8.07 6.67z" fill="#bcbec0" stroke="#6fcbdb" stroke-miterlimit="10" stroke-width="1.13"/><path d="m96.71 39.64h-26.26a1.89 1.89 0 0 0 -1.14.39l-29.21 22.67h-5.85l15.48-20.07a1.87 1.87 0 0 0 -1.56-3h-16.6c-4.88 0-20.76-5.62-27.86-8.3v-5.47h7.29a1.85 1.85 0 0 0 1.63-2.74l-7.63-14.2h4.76l18.64 16.48a1.86 1.86 0 0 0 1.23.46h54.71c10.23 0 19.8 6.41 19.8 9.32s-4.32 4.46-7.43 4.46z" fill="#fff"/><path d="m64.4 22.15-22.52-18.77-9.22 1.21 8.81 20.08z" fill="#6fcbdb"/><path d="m84.34 22.15h-19.94l.63-.82-23.16-17.95a1.78 1.78 0 0 0 -1.13-.38h-10.27a1.86 1.86 0 0 0 -1.47 3l9.94 12.89 2.94-2.27-7.63-9.92h5.85l19.9 15.45h-29.67l-18.63-16.48a1.86 1.86 0 0 0 -1.23-.46h-8.61a1.86 1.86 0 0 0 -1.6.9 1.88 1.88 0 0 0 -.04 1.89l7.69 14.2h-6a1.86 1.86 0 0 0 -1.91 1.8v8.6a1.86 1.86 0 0 0 1.19 1.74c1 .36 23.45 9 30.38 9h12.9l-15.47 20.08a1.86 1.86 0 0 0 1.47 3h10.27a1.84 1.84 0 0 0 1.13-.42l29.22-22.64h25.62c4.5 0 11.15-2.6 11.15-8.18 0-6.09-12.53-13.03-23.52-13.03zm12.37 17.49h-26.26a1.89 1.89 0 0 0 -1.14.39l-29.21 22.67h-5.85l15.48-20.07a1.87 1.87 0 0 0 -1.56-3h-16.6c-4.88 0-20.76-5.62-27.86-8.3v-5.47h7.29a1.85 1.85 0 0 0 1.63-2.74l-7.63-14.2h4.76l18.64 16.48a1.86 1.86 0 0 0 1.23.46h54.71c10.23 0 19.8 6.41 19.8 9.32s-4.32 4.46-7.43 4.46z" fill="#002852"/><g clip-path="url(#a)"><path d="m67.88 43.38-26.01 22.62s-11.13-.9-11.13-1.73 17.43-24.63 17.43-24.63 22.1-1.81 22.28 0-2.57 3.74-2.57 3.74z" fill="#6fcbdb"/></g></svg>