<svg viewBox="0 0 148.83 127.82" xmlns="http://www.w3.org/2000/svg"><g fill="#002852"><path d="m118.38 49.36 1.83.52a2.89 2.89 0 0 0 .76.1 2.8 2.8 0 0 0 .75-5.49l-1.83-.49a2.8 2.8 0 1 0 -1.51 5.39z"/><path d="m42.15 63.91a2.8 2.8 0 0 0 -2.8-2.8h-4.62a2.8 2.8 0 0 0 0 5.6h4.62a2.8 2.8 0 0 0 2.8-2.8z"/><path d="m29.35 63.91a2.8 2.8 0 0 0 -2.8-2.8h-20.95v-4.79l54.62-15.32c.29 6 .66 12.94 1.11 20.09h-13.73a2.8 2.8 0 0 0 0 5.6h14.09l.39 5.55c.78 10.61 1.63 19.73 2.54 27.28l-20.13 12.2a2.78 2.78 0 0 0 -1.32 2.78l1.08 7.81a2.79 2.79 0 0 0 2.75 2.41 2.59 2.59 0 0 0 .48 0l21-3.66c1.55 4.87 3.37 6.8 5.92 6.8s4.36-1.93 5.91-6.8l21 3.66a2.67 2.67 0 0 0 .48 0 2.78 2.78 0 0 0 2.77-2.41l1.1-7.81a2.8 2.8 0 0 0 -1.33-2.78l-20.12-12.18c.91-7.54 1.79-16.67 2.54-27.28.14-1.85.26-3.7.39-5.55h58.86a2.8 2.8 0 0 0 2.8-2.8v-9.71a2.79 2.79 0 0 0 -2-2.69l-17.16-4.81a2.8 2.8 0 1 0 -1.51 5.39l15.11 4.23v4.79h-55.74c.45-7.15.82-14 1.11-20.09l21.7 6.08a2.76 2.76 0 0 0 .75.1 2.8 2.8 0 0 0 .76-5.49l-22.95-6.43c.43-9.57.62-16 .63-16.1v-.08c0-10.53-6.77-19.1-15.08-19.1s-15.09 8.57-15.09 19.1v.08c0 .13.2 6.53.63 16.1l-57.96 16.23a2.79 2.79 0 0 0 -2 2.69v9.71a2.8 2.8 0 0 0 2.8 2.8h23.75a2.8 2.8 0 0 0 2.8-2.8zm70.52 51.64-.44 3.12-17.71-3.09c.41-2 .81-4.16 1.2-6.67.17-1 .34-2.16.5-3.31zm-25.45-109.95c5.13 0 9.47 6.15 9.48 13.45 0 1.18-.79 25.11-2.51 49.65-2 28.8-4.21 42.22-5.78 48.46 0 .07 0 .12-.06.18a27.2 27.2 0 0 1 -1.13 3.66 26.88 26.88 0 0 1 -1.14-3.61s0 0 0 0a1.8 1.8 0 0 0 0-.19c-1.57-6.24-3.77-19.66-5.78-48.43-1.78-24.6-2.5-48.54-2.57-49.72.01-7.3 4.35-13.45 9.49-13.45zm-9 100c.16 1.15.33 2.26.5 3.31.39 2.51.79 4.72 1.2 6.67l-17.72 3.09-.4-3.12z"/><path d="m18.74 71a2.79 2.79 0 0 0 -2.74 2.8v9.79a2.8 2.8 0 1 0 5.59 0v-9.79a2.8 2.8 0 0 0 -2.85-2.8z"/><path d="m18.74 88.89a2.79 2.79 0 0 0 -2.74 2.8v1.41a2.8 2.8 0 1 0 5.59 0v-1.41a2.8 2.8 0 0 0 -2.85-2.8z"/><path d="m113.86 73.8a2.8 2.8 0 1 0 -5.59 0v14.54a2.8 2.8 0 1 0 5.59 0z"/><path d="m111.06 93.64a2.8 2.8 0 0 0 -2.79 2.8v4.56a2.8 2.8 0 1 0 5.59 0v-4.56a2.8 2.8 0 0 0 -2.8-2.8z"/><path d="m40.56 73.8a2.8 2.8 0 1 0 -5.59 0v14.54a2.8 2.8 0 1 0 5.59 0z"/><path d="m37.77 93.64a2.8 2.8 0 0 0 -2.8 2.8v4.56a2.8 2.8 0 1 0 5.59 0v-4.56a2.8 2.8 0 0 0 -2.79-2.8z"/><path d="m132.88 73.8a2.8 2.8 0 1 0 -5.59 0v9.79a2.8 2.8 0 1 0 5.59 0z"/><path d="m130.09 88.89a2.8 2.8 0 0 0 -2.8 2.8v1.41a2.8 2.8 0 1 0 5.59 0v-1.41a2.79 2.79 0 0 0 -2.79-2.8z"/></g><path d="m74.42 5.6c5.13 0 9.47 6.15 9.48 13.45 0 1.18-.79 25.11-2.51 49.65-2 28.8-4.21 42.22-5.78 48.46 0 .07 0 .12-.06.18a27.2 27.2 0 0 1 -1.13 3.66 26.88 26.88 0 0 1 -1.14-3.61s0 0 0 0a1.8 1.8 0 0 0 0-.19c-1.57-6.24-3.77-19.66-5.78-48.43-1.78-24.6-2.5-48.54-2.57-49.72.01-7.3 4.35-13.45 9.49-13.45z" fill="#6fcbdb"/></svg>