<svg viewBox="0 0 129.72 91.38" xmlns="http://www.w3.org/2000/svg" xmlns:xlink="http://www.w3.org/1999/xlink"><clipPath id="a"><path d="m102.08 63.13h-27.71a2 2 0 0 0 -1.21.41l-30.83 23.92h-6.18l16.34-21.19a2 2 0 0 0 -1.65-3.14h-17.51c-5.16 0-21.92-5.94-29.41-8.77v-5.78h7.71a2 2 0 0 0 1.69-1 2 2 0 0 0 0-1.93l-8.11-15h5.09l19.7 17.44a2 2 0 0 0 1.29.49h57.71c10.8 0 20.91 6.76 20.91 9.84.02 2.91-4.55 4.71-7.83 4.71z"/></clipPath><path d="m124.71 59.69.15-.91-.31-2.58-.22-1.3.38-.44-.26-1.05-.36-.4-.02-.79-.14-.26-.52.19-.46-.31.03-.7 2.18-2.26-.35-2.74.1-.55-.3-.85.33-1.46.63-1.05.06-.61.17-1.73.67-.47 1.18-.01.43-.48.21-.8.55-.63.17-1.86-.62-.59-.81-.21-.29.19-1.22-.49-.92-.24-.96.23-.52-.51-.85-.55-.39.02-.27-.38-1.3-.1-2.57-4.42-.74-.59-1.38-.71-1.37-.15-.41.18-1-.66-1.17-.39-.84.17-.84-.74-.78-.33-1.13-.94-.82-1.17.12-.68.45-.43.1-.65.71-.86-.01-.92-.48-1.47-.95-3.83-.78-.27-.61-.11.22-.44 1.07-1.27.52-1.48-.1-.88.51-.85 1.98-1.65.88-.41 1-.85.84.03.57-.39 1.9-1.73 2.59-.21.24-.1.51.16.16-.09.62-.25.34-.47-.35-.85-1.41-1.38-.64-.22-.34.32-.18.4-.7-.08-.45.18-.73-.32-.72.06-.47.32.26.58-.4.34-1.33.24-1.81.51-1.27.44-1.28-.07-1.37-.32-1.44-.6-1.04.23-.08.57.1.82-.27.69-.86.43-.42-.35.37-.67-.05-.26.72-.04-.92-.37-1.03-.83-.6-.15-1.75.49-.52.51-1.32.89-1.82 1.95-.34.6.41-.05.23.46-.06.81-.47.73-.74.14-.88-.18-.75.17-1.48.81-.57.1-1.22 1.07-.55-.09-.75-.2.03.93.56 1.14-.29 1.11-.71.86-.49-.19-.64-.92.18-.3.43-.46-.61-.49-.07-.94-.77-1.18-.41.73v.64l.1 1.28-.95.97-.61 1.02-.67.3-.45-.11-.94 1.19.13.24-.07 1.12-.19 1.06.62 1.38.36.08.5-.11.14.49-.14 1.04-.72.46-.11.41.38.75-.33 1.26-.71.28-.54.54.33.26.15.96-.51 1.49-.48 2.17-.81.57-.27.61.33.92.9-.11-.25.47.3.79.47.11-.05.44-.62.44-.67.91-2.13 1.21-.71.83-1.6.87-1.81-.13-1.59.6-1.74 1.57-.59 1.45-.42.78 1.2.88 1.23 1.48 1.71 1.93.79.27.79 1.44-.35.63.03.64 1.37.53 1.4 1.24.45.55 1.38.76.69-.35.2-.95.78-.33.33.1 1.25.88.61.62.04.64.53.54.08.09.34.06.39.7 1.53.88.97.52.14.58.74 1.61-.13.88.4 1.63.59.17 1.99 1.37.56 1.63-.31 1.08.3.18.66.61.1 1.26-.41.37.08.74.77.62 1.01.05.75.44 1.13.28.55-.27 1.62-.22 1.19.59.95.86 1.75-.24.82.24.23.64.53.13.89.78.3.76.97-.03-.11.64-4.24 4.15.01.61 1.05.19 1.18.24.5.97-.04 1.06 1.41-2.29 5.03-8.81.22-.67.45-1.53-.6-2.33-1.37-1.81-.52-1.26.51-2.54 3.33-.15.9 1.04.44-.7-.39-.7.64-.42-.34-1.41-1.63-.96-.14-1.22.67-1.41 5.17 1.48.71-.45.9.26.37.6.61.09 1.15-.74 1.34.03.06.78.53 1.15-.08 1.06-.35 1.26z" fill="none" stroke="#6fcbdb" stroke-linecap="round" stroke-linejoin="round" stroke-width="1.42"/><path d="m102.08 63.13h-27.71a2 2 0 0 0 -1.21.41l-30.83 23.92h-6.18l16.34-21.19a2 2 0 0 0 -1.65-3.14h-17.51c-5.16 0-21.92-5.94-29.41-8.77v-5.78h7.71a2 2 0 0 0 1.69-1 2 2 0 0 0 0-1.93l-8.11-15h5.09l19.7 17.44a2 2 0 0 0 1.29.49h57.71c10.8 0 20.91 6.76 20.91 9.84.02 2.91-4.55 4.71-7.83 4.71z" fill="#fff"/><path d="m67.98 44.66-23.78-19.82-9.72 1.28 9.29 21.2z" fill="#6fcbdb"/><path d="m89 44.66h-21l.67-.87-24.47-18.95a2 2 0 0 0 -1.2-.41h-10.84a2 2 0 0 0 -1.55 3.16l10.5 13.61 3.1-2.4-8.06-10.45h6.18l21 16.31h-31.33l-19.65-17.39a2 2 0 0 0 -1.3-.49h-9.05a2 2 0 0 0 -1.76 2.89l8.11 15h-6.35a2 2 0 0 0 -2 2v9.03a2 2 0 0 0 1.25 1.83c1 .39 24.76 9.52 32.08 9.52h13.61l-16.33 21.17a2 2 0 0 0 1.55 3.16h10.84a2 2 0 0 0 1.2-.38l30.8-23.95h27c4.75 0 11.77-2.75 11.77-8.63.08-6.42-13.15-13.76-24.77-13.76zm13.06 18.47h-27.69a2 2 0 0 0 -1.21.41l-30.83 23.92h-6.18l16.34-21.19a2 2 0 0 0 -1.65-3.14h-17.51c-5.16 0-21.92-5.94-29.41-8.77v-5.78h7.71a2 2 0 0 0 1.69-1 2 2 0 0 0 0-1.93l-8.11-15h5.09l19.7 17.44a2 2 0 0 0 1.29.49h57.71c10.8 0 20.91 6.76 20.91 9.84.02 2.91-4.55 4.71-7.83 4.71z" fill="#002852"/><g clip-path="url(#a)"><path d="m71.65 67.07-27.45 23.93s-11.76-1-11.76-1.86 18.4-26 18.4-26 23.33-1.92 23.53 0-2.72 3.93-2.72 3.93z" fill="#6fcbdb"/></g></svg>