<svg viewBox="0 0 84.2 86.73" xmlns="http://www.w3.org/2000/svg"><g fill-rule="evenodd"><path d="m69.23 81.65h-24.67v-36.55l34.1 17.42a.86.86 0 0 1 .42.49.82.82 0 0 1 -.06.65l-9.02 17.53a.84.84 0 0 1 -.75.46z" fill="#6fcbdb"/><path d="m14.22 81.19-9-17.53a.91.91 0 0 1 -.1-.66.9.9 0 0 1 .42-.49l33.94-17.32v36.46h-24.48a.84.84 0 0 1 -.75-.46z" fill="#6fcbdb"/><g fill="#002852"><path d="m30.32 27.61h23.38a2.54 2.54 0 1 0 0-5.08h-23.38a2.54 2.54 0 0 0 0 5.08z"/><path d="m83.91 61.45a5.86 5.86 0 0 0 -2.91-3.45l-3.89-2-3.11-22a7.67 7.67 0 0 0 -7.48-6.55v-7.45a7.63 7.63 0 0 0 -7.62-7.63h-4.18v-6.45a5.93 5.93 0 0 0 -5.92-5.92h-13.56a5.93 5.93 0 0 0 -5.93 5.92v6.44h-4a7.63 7.63 0 0 0 -7.6 7.64v7.45h-.09a7.65 7.65 0 0 0 -7.55 6.55l-3.13 22.1-3.7 1.9a5.88 5.88 0 0 0 -2.95 3.45 5.94 5.94 0 0 0 -.29 1.8 5.89 5.89 0 0 0 .66 2.75l9 17.52a5.9 5.9 0 0 0 5.34 3.21h54.23a5.9 5.9 0 0 0 5.27-3.22l9-17.52a5.92 5.92 0 0 0 .36-4.54zm-14.68 20.2h-24.67v-36.55l34.1 17.42a.86.86 0 0 1 .42.49.82.82 0 0 1 -.06.65l-9.02 17.53a.84.84 0 0 1 -.75.46zm-55-.46-9-17.53a.91.91 0 0 1 -.11-.66.9.9 0 0 1 .42-.49l33.94-17.32v36.46h-24.48a.84.84 0 0 1 -.75-.46zm3.4-48.67h.93a4.24 4.24 0 0 0 4.24-4.23v-8.29a2.54 2.54 0 0 1 2.54-2.54h33.53a2.54 2.54 0 0 1 2.54 2.54v8.3a4.24 4.24 0 0 0 4.24 4.23h.77a2.54 2.54 0 0 1 2.51 2.18l2.61 18.48-26.74-13.68a6 6 0 0 0 -5.4 0l-26.93 13.76 2.63-18.57a2.55 2.55 0 0 1 2.52-2.18zm17.61-27.44h13.55a.85.85 0 0 1 .85.84v6.44h-15.24v-6.44a.84.84 0 0 1 .84-.84z"/><path d="m56.42 60a3.39 3.39 0 1 1 -3.42-3.42 3.39 3.39 0 0 1 3.42 3.42z"/><path d="m34.4 60a3.39 3.39 0 1 1 -3.4-3.42 3.39 3.39 0 0 1 3.4 3.42z"/></g></g></svg>