<svg viewBox="0 0 17.5 16.06" xmlns="http://www.w3.org/2000/svg"><g fill="#002852" stroke="#002852" stroke-miterlimit="10" stroke-width=".28"><path d="m13.64 15.92h-13.14a.23.23 0 0 1 -.2-.11.24.24 0 0 1 0-.23 7.9 7.9 0 0 0 0-6.39.24.24 0 0 1 0-.19.23.23 0 0 1 .2-.11h12.5a.24.24 0 0 1 0 .48h-12.14a8.34 8.34 0 0 1 0 6.1h12.78a3 3 0 0 0 3.05-3 .25.25 0 0 1 .49 0 3.55 3.55 0 0 1 -3.54 3.45z"/><path d="m13 10.27h-12.17a.24.24 0 1 1 0-.48h12.17a.24.24 0 0 1 0 .48z"/><path d="m13.64 15h-12.77a.24.24 0 0 1 -.24-.24.24.24 0 0 1 .24-.25h12.77a2.11 2.11 0 0 0 2.11-2.11.25.25 0 0 1 .49 0 2.61 2.61 0 0 1 -2.6 2.6z"/><path d="m10.77 13.46h-7.27a.24.24 0 0 1 -.24-.25.24.24 0 0 1 .24-.21h7.27a.25.25 0 0 1 0 .49z"/><path d="m12.07 11.79h-7.28a.24.24 0 0 1 0-.48h7.28a.24.24 0 1 1 0 .48z"/><path d="m13 9.33h-8.51a.25.25 0 0 1 -.24-.25v-2.14a2.79 2.79 0 0 1 2.09-2.71 9.6 9.6 0 0 1 4.82 0 2.79 2.79 0 0 1 2.09 2.71v2.14a.25.25 0 0 1 -.25.25zm-8.27-.49h8v-1.9a2.32 2.32 0 0 0 -1.73-2.25 9.34 9.34 0 0 0 -4.58 0 2.33 2.33 0 0 0 -1.69 2.25z"/><path d="m13 7.18a.2.2 0 0 1 -.13 0 .24.24 0 0 1 -.11-.2 2.32 2.32 0 0 0 -1.76-2.29 9.34 9.34 0 0 0 -4.58 0 2.33 2.33 0 0 0 -1.69 2.25.26.26 0 0 1 -.1.2.27.27 0 0 1 -.23 0l-4.11-1.67a.25.25 0 0 1 -.15-.21.24.24 0 0 1 .12-.26l8.37-4.83a.25.25 0 0 1 .24 0l8.37 4.83a.22.22 0 0 1 .12.22.23.23 0 0 1 -.15.21l-4.11 1.73zm-4.25-3.26a9.26 9.26 0 0 1 2.41.31 2.79 2.79 0 0 1 2.07 2.36l3.34-1.38-7.82-4.55-7.82 4.55 3.34 1.38a2.8 2.8 0 0 1 2.07-2.36 9.37 9.37 0 0 1 2.41-.31z"/><path d="m15.28 7.91a.24.24 0 0 1 -.28-.24v-1.67a.24.24 0 1 1 .48 0v1.67a.24.24 0 0 1 -.2.24z"/><path d="m16.19 11.23h-1.82a.24.24 0 0 1 -.24-.24v-2.42a1.15 1.15 0 1 1 2.3 0v2.43a.24.24 0 0 1 -.24.23zm-1.57-.48h1.38v-2.18a.67.67 0 0 0 -.67-.66.66.66 0 0 0 -.66.66z"/><path d="m16.19 9.21h-1.82a.24.24 0 0 1 -.24-.21.24.24 0 0 1 .24-.24h1.82a.24.24 0 0 1 .24.24.24.24 0 0 1 -.24.21z"/><path d="m11.52 7.77h-5.41a.24.24 0 0 1 -.25-.24.25.25 0 0 1 .25-.24h5.41a.25.25 0 0 1 .25.24.24.24 0 0 1 -.25.24z"/></g></svg>