<svg viewBox="0 0 124.41 79.85" xmlns="http://www.w3.org/2000/svg"><g fill="#002852"><path d="m58.56 77.19a208.59 208.59 0 0 1 -27.32-1.58c-9.68-1.35-13.45-3.15-13.45-6.4v-38.48a2.67 2.67 0 0 1 3.61-2.49l37.16 14.16 37.17-14.16a2.64 2.64 0 0 1 2.45.3 2.68 2.68 0 0 1 1.16 2.19v38.48c0 3.25-3.78 5.05-13.46 6.4a208.59 208.59 0 0 1 -27.32 1.58zm-35.45-8.87c2.74 1.37 14.71 3.55 35.45 3.55s32.71-2.18 35.44-3.55v-33.73l-34.49 13.15a2.7 2.7 0 0 1 -1.9 0l-34.5-13.15z"/><path d="m58.56 47.91a2.84 2.84 0 0 1 -1-.17l-55.85-21.3a2.66 2.66 0 0 1 0-5l55.9-21.27a2.7 2.7 0 0 1 1.9 0l55.9 21.3a2.66 2.66 0 0 1 0 5l-55.9 21.3a2.84 2.84 0 0 1 -.95.14zm-48.42-23.91 48.42 18.4 48.44-18.4-48.44-18.49z"/><path d="m114.46 45.25a2.66 2.66 0 0 1 -2.66-2.66v-16h-50.58a2.67 2.67 0 0 1 0-5.33h53.24a2.66 2.66 0 0 1 2.66 2.74v18.59a2.66 2.66 0 0 1 -2.66 2.66z"/><path d="m114.46 79.85a10 10 0 0 1 -9.92-10.85l1.93-21.22a8 8 0 0 1 16 0l1.9 21.22a9.95 9.95 0 0 1 -9.91 10.85zm0-34.6a2.66 2.66 0 0 0 -2.66 2.66v.24l-1.94 21.33a4.63 4.63 0 1 0 9.22 0l-1.94-21.33a1.93 1.93 0 0 1 0-.24 2.66 2.66 0 0 0 -2.68-2.66z"/></g><path d="m114.46 45.25a2.66 2.66 0 0 0 -2.66 2.66 1.94 1.94 0 0 1 0 .24l-1.94 21.33a4.63 4.63 0 1 0 9.23 0l-1.94-21.33a1.93 1.93 0 0 1 0-.24 2.67 2.67 0 0 0 -2.69-2.66z" fill="#6fcbdb"/></svg>