<svg viewBox="0 0 95.53 95.52" xmlns="http://www.w3.org/2000/svg"><g fill-rule="evenodd"><path d="m87.14 48.32h-2.89v-5.17a15.49 15.49 0 0 0 -4.47-30.31h-12.59v-2.58a10.26 10.26 0 0 0 -10.25-10.26h-18.63a10.27 10.27 0 0 0 -10.26 10.26v2.58h-12.58a15.48 15.48 0 0 0 -4.1 30.41v5.07h-2.89a8.4 8.4 0 0 0 -8.38 8.4v22.76a8.39 8.39 0 0 0 8.38 8.39h3.23a10.27 10.27 0 0 0 9.92 7.65h52.37a10.28 10.28 0 0 0 9.92-7.65h3.22a8.39 8.39 0 0 0 8.39-8.39v-22.76a8.4 8.4 0 0 0 -8.39-8.4zm2.52-20a10.06 10.06 0 0 1 -8.17 9.89c-.32 0-8.61 0-8.61 0v-19.78h6.9a9.9 9.9 0 0 1 9.88 9.89zm-19.57 25.19v5.6h-11.19v-5.6zm-8.4 11.2h5.6v1.86a2.8 2.8 0 0 1 -5.6 0zm5.6-16.8h-5.6v-29.44h5.5.1zm-28.14-29.48h17v19.78h-17zm-5.5-8.17a4.67 4.67 0 0 1 4.66-4.67h18.63a4.68 4.68 0 0 1 4.67 4.67v2.58h-28v-2.58zm2.7 43.16v5.58h-11.19v-5.6zm-8.35 11.19h5.59v2a2.8 2.8 0 1 1 -5.59 0zm5.59-16.79h-5.59v-29.39h.09 5.5zm-28-19.5a9.9 9.9 0 0 1 9.88-9.89h6.9v19.78s-7.92.17-8.51 0a10 10 0 0 1 -8.27-9.89zm.09 51.16v-22.76a2.8 2.8 0 0 1 2.8-2.8h2.89v28.36h-2.89a2.81 2.81 0 0 1 -2.8-2.8zm68.32 10.45h-52.37a4.66 4.66 0 0 1 -4.63-4.66v-41.46h5.4v4a2.79 2.79 0 0 0 -2.79 2.8v11.2a2.79 2.79 0 0 0 2.79 2.8v2a8.39 8.39 0 0 0 16.78 0v-2a2.79 2.79 0 0 0 2.79-2.8v-11.19a2.79 2.79 0 0 0 -2.79-2.8v-4h17v4.1a2.8 2.8 0 0 0 -2.79 2.8v11.2a2.81 2.81 0 0 0 2.79 2.8v1.86a8.39 8.39 0 0 0 16.78 0v-1.87a2.8 2.8 0 0 0 2.8-2.8v-11.2a2.8 2.8 0 0 0 -2.8-2.8v-4.1h5.78v41.46a4.66 4.66 0 0 1 -4.74 4.66zm15.94-10.45a2.81 2.81 0 0 1 -2.8 2.8h-2.89v-28.36h2.89a2.8 2.8 0 0 1 2.8 2.8z" fill="#002852"/><g fill="#6fcbdb"><path d="m61.69 64.71h5.6v1.86a2.8 2.8 0 0 1 -5.6 0z"/><path d="m67.29 47.91h-5.6v-29.44h5.5v-.04h.1z"/><path d="m28 64.61h5.59v2a2.8 2.8 0 1 1 -5.59 0z"/><path d="m33.55 47.82h-5.59v-29.39h.09v.04h5.5z"/></g></g></svg>