<svg viewBox="0 0 116.56 69.73" xmlns="http://www.w3.org/2000/svg"><g fill="#002852"><path d="m96 29.71v-11.47a7.68 7.68 0 0 0 -7.67-7.67h-73.9a2.19 2.19 0 0 0 -2.19 2.19v17a2.2 2.2 0 0 0 2.19 2.2h79.39a2.2 2.2 0 0 0 2.18-2.25zm-65.25-2.19h-14.13v-12.52h14.13zm27.07 0h-22.69v-12.52h22.69zm33.81 0h-29.43v-12.52h26.14a3.29 3.29 0 0 1 3.29 3.29z"/><path d="m115.76 25-7.54-6.14a19.94 19.94 0 0 0 -19.88-18.86h-86.15a2.19 2.19 0 0 0 -2.19 2.19v56.17a2.19 2.19 0 0 0 2.19 2.19h10.26a11.37 11.37 0 0 0 22.31 0h23.52a2.19 2.19 0 0 0 0-4.38h-23.52a11.37 11.37 0 0 0 -22.31 0h-8.07v-13.7h24.94a2.19 2.19 0 1 0 0-4.38h-24.94v-33.71h84a15.55 15.55 0 0 1 15.53 15.53 2.19 2.19 0 0 0 .8 1.7l7.51 6.11v10.37h-62a2.19 2.19 0 0 0 0 4.38h62v13.7h-18.22a11.37 11.37 0 0 0 -22.31 0h-5.51a2.19 2.19 0 0 0 0 4.38h5.52a11.37 11.37 0 0 0 22.31 0h20.36a2.19 2.19 0 0 0 2.19-2.19v-31.68a2.18 2.18 0 0 0 -.8-1.68zm-99.14 33.36a7 7 0 1 1 7 7 7 7 0 0 1 -7-7zm66.24 7a7 7 0 1 1 7-7 7 7 0 0 1 -7 6.99z"/><path d="m36.88 38.09a2.19 2.19 0 0 0 0 4.38h6.12a2.19 2.19 0 0 0 0-4.38z"/><path d="m23.61 60.55a2.21 2.21 0 0 0 1.55-.64 2.2 2.2 0 0 0 0-3.1 2.19 2.19 0 1 0 -1.55 3.74z"/><path d="m82.86 56.17a2.19 2.19 0 1 0 1.55.64 2.2 2.2 0 0 0 -1.55-.64z"/></g><path d="m16.62 14.95h14.13v12.57h-14.13z" fill="#6fcbdb"/><path d="m35.13 14.95h22.68v12.57h-22.68z" fill="#6fcbdb"/><path d="m91.63 27.52h-29.43v-12.52h26.14a3.29 3.29 0 0 1 3.29 3.29z" fill="#6fcbdb"/></svg>