<svg viewBox="0 0 23.42 22.93" xmlns="http://www.w3.org/2000/svg"><g stroke="#002852" stroke-miterlimit="10" stroke-width=".46"><path d="m20.74 3.05h-1.88v-.41a2.41 2.41 0 0 0 -4.82 0v.41h-4.66v-.41a2.41 2.41 0 0 0 -4.82 0v.41h-1.88a2.46 2.46 0 0 0 -2.45 2.46v14.67a2.52 2.52 0 0 0 2.52 2.52h17.92a2.53 2.53 0 0 0 2.53-2.52v-14.67a2.46 2.46 0 0 0 -2.46-2.46zm-5.74-.41a1.43 1.43 0 1 1 2.86 0v.41h-2.86zm-9.48 0a1.43 1.43 0 0 1 2.86 0v.41h-2.84zm16.69 17.54a1.54 1.54 0 0 1 -1.54 1.54h-17.92a1.54 1.54 0 0 1 -1.54-1.54v-12.06h21zm0-13h-21v-1.67a1.47 1.47 0 0 1 1.47-1.51h18.06a1.47 1.47 0 0 1 1.47 1.48z" fill="#002852"/><path d="m13 14.86a.21.21 0 0 0 -.27.05l-1.54 2.09-.9-.84a.19.19 0 0 0 -.27 0l-.68.68a.19.19 0 0 0 0 .28l1.88 1.88a.2.2 0 0 0 .3 0l2.35-3.25a.2.2 0 0 0 0-.28z" fill="#6fcbdb"/><g fill="#002852"><path d="m4.32 18.82h2.59a.49.49 0 0 0 .49-.49v-2.59a.49.49 0 0 0 -.49-.49h-2.59a.49.49 0 0 0 -.49.49v2.59a.49.49 0 0 0 .49.49zm.49-2.59h1.61v1.61h-1.61z"/><path d="m4.32 13.52h2.59a.49.49 0 0 0 .49-.52v-2.56a.49.49 0 0 0 -.49-.44h-2.59a.49.49 0 0 0 -.49.49v2.51a.49.49 0 0 0 .49.52zm.49-2.59h1.61v1.61h-1.61z"/><path d="m10 13.52h2.59a.49.49 0 0 0 .49-.49v-2.59a.49.49 0 0 0 -.49-.49h-2.59a.49.49 0 0 0 -.49.49v2.56a.49.49 0 0 0 .49.52zm.49-2.59h1.61v1.61h-1.61z"/><path d="m15.68 13.52h2.58a.49.49 0 0 0 .49-.49v-2.59a.49.49 0 0 0 -.49-.49h-2.58a.49.49 0 0 0 -.49.49v2.56a.49.49 0 0 0 .49.52zm.49-2.59h1.6v1.61h-1.6z"/><path d="m15.68 18.82h2.58a.49.49 0 0 0 .49-.49v-2.59a.49.49 0 0 0 -.49-.49h-2.58a.49.49 0 0 0 -.49.49v2.59a.49.49 0 0 0 .49.49zm.49-2.59h1.6v1.61h-1.6z"/></g></g></svg>