<svg viewBox="0 0 26.82 23.96" xmlns="http://www.w3.org/2000/svg"><path d="m.54 13.41h10.01v4.29h-10.01z" fill="#6fcbdb"/><circle cx="6.97" cy="6.26" fill="#6fcbdb" r="3.58"/><circle cx="16.63" cy="5.19" fill="#6fcbdb" r="4.65"/><g fill="none" stroke="#002852" stroke-linecap="round" stroke-linejoin="round" stroke-width="1.07"><path d="m2.68 13.41v-3.57h17.89v13.59h-17.89v-5.73"/><path d="m14.84 14.13v2.86"/><path d="m16.99 14.13v2.86"/><path d="m.54 13.41h10.01v4.29h-10.01z"/><path d="m20.57 14.13 5.72-3.58v11.45l-5.72-2.87"/><path d="m2.68 20.19h17.17"/><circle cx="6.97" cy="6.26" r="3.58"/><path d="m8.4 6.26a1.43 1.43 0 0 1 -2.86 0"/><circle cx="16.63" cy="5.19" r="4.65"/><path d="m19.13 5.19a2.5 2.5 0 0 1 -5 0"/></g></svg>