<svg viewBox="0 0 130.79 70.66" xmlns="http://www.w3.org/2000/svg"><circle cx="26.31" cy="56.38" fill="#6fcbdb" r="12.03"/><circle cx="107.49" cy="56.38" fill="#6fcbdb" r="12.03"/><g fill="none" stroke="#002852" stroke-linecap="round" stroke-linejoin="round" stroke-width="4.51"><path d="m38.34 56.38h43.7 10.41"/><circle cx="26.31" cy="56.38" r="12.03"/><circle cx="107.49" cy="56.38" r="12.03"/><path d="m11.28 23.3 96.21 3.01"/><path d="m119.52 56.38 4.9-1.64a6 6 0 0 0 4.12-5.74v-12.14a6 6 0 0 0 -4.37-5.78l-15.66-4.48a5.88 5.88 0 0 1 -1.88-.92l-30.63-22.27a6 6 0 0 0 -3.54-1.15h-43.26a6 6 0 0 0 -4.7 2.25l-20.93 26.16a6.05 6.05 0 0 0 -1.31 3.76v14.24a6 6 0 0 0 4.55 5.84l7.47 1.87"/><path d="m44.35 47.36h45.1"/><path d="m65.4 8.27v15.03"/><path d="m32.32 8.27v15.03"/></g></svg>