<svg viewBox="0 0 19.67 19.67" xmlns="http://www.w3.org/2000/svg"><g stroke="#002852" stroke-linecap="round" stroke-linejoin="round" stroke-width=".88"><path d="m15.71 5.73v-5.29h-11.75v5.29" fill="#6fcbdb"/><g fill="none"><path d="m4 2.79h-2a1.47 1.47 0 0 0 -1.56 1.47 1.47 1.47 0 0 0 1.47 1.47h16.74v3.52"/><path d="m18.65 5.73v-2.94h-2.94"/><path d="m13.36 3.96v-1.76"/><path d="m6.31 3.96v-1.76"/><path d="m15.71 5.73v-5.29h-11.75v5.29"/><path d="m.44 6.67a1.41 1.41 0 0 0 1.41 1.41h16.21"/><path d="m.44 15.48a1.41 1.41 0 0 0 1.41 1.4h16.21"/><path d="m18.65 16.3v2.93h-16.23a2 2 0 0 1 -2-2v-12.68"/><path d="m19.23 14.54h-3.56a1.73 1.73 0 0 1 -1.67-1.73v-.07a1.72 1.72 0 0 1 1.67-1.74h3.56z"/><path d="m16.3 12.77h.58"/></g></g></svg>