<svg viewBox="0 0 151.08 132.24" xmlns="http://www.w3.org/2000/svg"><path d="m95.92 129.5a13.4 13.4 0 0 0 .16-2v-51.33a14.38 14.38 0 0 0 -14.34-14.34h-10.32a14.38 14.38 0 0 0 -14.34 14.34v51.32a14.86 14.86 0 0 0 .16 2z" fill="#6fcbdb"/><circle cx="89.08" cy="94.2" fill="#002852" r="2.2"/><path d="m150.48 61.18-56.6-54.39-.39-.34c-2.25-1.87-8.21-6.16-16.04-6.45-.21 0-.42 0-.65 0h-2.51c-.25 0-.47 0-.67 0-7.82.27-13.78 4.56-16 6.39l-.39.34-56.63 54.45a2 2 0 0 0 -.05 2.82l7.1 7.39a2 2 0 0 0 2.78.05l13.05-12.58v71.42a2 2 0 0 0 2 2h100.15a2 2 0 0 0 2-2v-71.42l13.02 12.54a2 2 0 0 0 1.35.6 2 2 0 0 0 1.38-.6l7.1-7.39a2 2 0 0 0 0-2.83zm-63.48-46.82-.18-.16-.1-.07c-4.1-3.13-7.58-3.83-9.81-3.88h-2.72c-2.19.05-5.67.75-9.79 3.88l-.1.07-.18.16-55 52.84-4.37-4.55 55.18-53 .17-.16c1.53-1.29 6.9-5.31 13.69-5.49h3.49c6.82.22 12.17 4.25 13.65 5.48l.17.16 55.18 53-4.28 4.56zm36.67 41.34v72.61h-96.25v-72.61h-.65l40-38.42c3.27-2.48 5.88-3 7.48-3.08h2.56c1.61 0 4.22.6 7.48 3.08l40 38.43z" fill="#002852"/><path d="m87 14.36-.18-.16-.1-.07c-4.1-3.13-7.58-3.83-9.81-3.88h-2.72c-2.19.05-5.67.75-9.79 3.88l-.1.07-.18.16-55 52.84-4.37-4.55 55.18-53 .17-.16c1.53-1.29 6.9-5.31 13.69-5.49h3.49c6.82.22 12.17 4.25 13.65 5.48l.17.16 55.18 53-4.28 4.56z" fill="#6fcbdb"/><path d="m95.92 129.5a13.4 13.4 0 0 0 .16-2v-51.33a14.38 14.38 0 0 0 -14.34-14.34h-10.32a14.38 14.38 0 0 0 -14.34 14.34v51.32a14.86 14.86 0 0 0 .16 2z" fill="none" stroke="#002852" stroke-miterlimit="10" stroke-width="4.25"/></svg>