<svg viewBox="0 0 16.95 21.95" xmlns="http://www.w3.org/2000/svg"><g stroke="#002852" stroke-miterlimit="10" stroke-width=".35"><g fill="#002852"><path d="m11.71 21.77h-6.48a2.33 2.33 0 0 1 -2.3-2l-1.43-10.27a.38.38 0 0 1 .38-.43h13.19a.36.36 0 0 1 .29.13.4.4 0 0 1 .09.3l-1.45 10.27a2.32 2.32 0 0 1 -2.29 2zm-9.4-11.94 1.38 9.83a1.56 1.56 0 0 0 1.54 1.34h6.48a1.56 1.56 0 0 0 1.55-1.35l1.37-9.83z"/><path d="m15.35 9.83h-13.75a1.43 1.43 0 0 1 0-2.83h13.75a1.43 1.43 0 0 1 0 2.85zm-13.75-2.09a.67.67 0 0 0 0 1.33h13.75a.67.67 0 0 0 0-1.33z"/><path d="m1.8 7.74a.35.35 0 0 1 -.28-.13 1.75 1.75 0 0 1 .86-2.85 2.09 2.09 0 0 1 1.24-2.15.92.92 0 0 1 .23-.09 1.75 1.75 0 0 1 1.75-1.59 1.71 1.71 0 0 1 .67.14 1.76 1.76 0 0 1 1.53-.89 1.79 1.79 0 0 1 1.33.6 2 2 0 0 1 3.43 1.39v.18a1.76 1.76 0 0 1 1.38 1.72v.08a2 2 0 0 1 1.36 3.47.38.38 0 0 1 -.54-.54 1.27 1.27 0 0 0 -.9-2.17 1.65 1.65 0 0 0 -.31 0 .4.4 0 0 1 -.39-.11.39.39 0 0 1 -.06-.4 1 1 0 0 0 .07-.37 1 1 0 0 0 -1-1h-.07a.36.36 0 0 1 -.32-.15.37.37 0 0 1 -.06-.35 1.47 1.47 0 0 0 .07-.41 1.24 1.24 0 0 0 -2.36-.53.38.38 0 0 1 -.7 0 1 1 0 0 0 -1.91.1.4.4 0 0 1 -.23.31.38.38 0 0 1 -.37-.07 1 1 0 0 0 -1.62.77v.1a.38.38 0 0 1 -.32.41 1.36 1.36 0 0 0 -.36.1 1.34 1.34 0 0 0 -.72 1.69.38.38 0 0 1 -.05.34.4.4 0 0 1 -.31.16 1 1 0 0 0 -1 1 1 1 0 0 0 .25.65.38.38 0 0 1 -.29.63z"/><path d="m9.08 5a1.36 1.36 0 0 1 -1.35-1.34 1.31 1.31 0 0 1 .11-.52.37.37 0 0 1 .49-.21.39.39 0 0 1 .21.5.64.64 0 0 0 0 .23.6.6 0 0 0 .59.6.57.57 0 0 0 .29-.08.38.38 0 0 1 .52.15.37.37 0 0 1 -.15.51 1.28 1.28 0 0 1 -.71.16z"/><path d="m11.08 6.15a1.1 1.1 0 0 1 -.31 0 .36.36 0 0 1 -.28-.45.37.37 0 0 1 .51-.32.45.45 0 0 0 .23 0 .59.59 0 0 0 .49-.68.66.66 0 0 0 -.12-.27.38.38 0 0 1 .54-.43 1.3 1.3 0 0 1 .28.62 1.35 1.35 0 0 1 -1.11 1.55.9.9 0 0 1 -.23-.02z"/><path d="m5.06 6.05a1.3 1.3 0 0 1 -.91-.37.4.4 0 0 1 0-.54.38.38 0 0 1 .54 0 .52.52 0 0 0 .89-.37.53.53 0 0 0 -.2-.42.38.38 0 1 1 .46-.6 1.28 1.28 0 0 1 -.78 2.3z"/><path d="m5.38 14.67a.38.38 0 0 1 -.38-.35l-.45-4.84a.38.38 0 1 1 .75-.07l.46 4.84a.38.38 0 0 1 -.34.42z"/><path d="m11.56 14.67a.39.39 0 0 1 -.35-.42l.46-4.84a.38.38 0 0 1 .42-.34.37.37 0 0 1 .34.41l-.46 4.84a.38.38 0 0 1 -.41.35z"/><path d="m8.47 13.87a.38.38 0 0 1 -.38-.38v-4a.38.38 0 0 1 .76 0v4a.38.38 0 0 1 -.38.38z"/><path d="m8.47 17.73c-2.35 0-4.19-1-4.19-2.31s1.84-2.31 4.19-2.31 4.2 1 4.2 2.31-1.84 2.31-4.2 2.31zm0-3.86c-2 0-3.43.82-3.43 1.55s1.41 1.58 3.43 1.58 3.44-.82 3.44-1.55-1.41-1.58-3.44-1.58z"/><path d="m8.47 21.77a.38.38 0 0 1 -.38-.38v-4a.38.38 0 0 1 .76 0v4a.38.38 0 0 1 -.38.38z"/><path d="m6.11 21.77a.37.37 0 0 1 -.38-.34l-.47-4.68a.38.38 0 1 1 .74-.08l.46 4.68a.38.38 0 0 1 -.34.42z"/><path d="m10.84 21.77a.38.38 0 0 1 -.34-.42l.47-4.68a.38.38 0 1 1 .76.08l-.47 4.68a.38.38 0 0 1 -.42.34z"/></g><path d="m8.47 13.87c-2 0-3.43.82-3.43 1.55s1.41 1.58 3.43 1.58 3.44-.82 3.44-1.55-1.41-1.58-3.44-1.58z" fill="#6fcbdb"/></g></svg>