<svg viewBox="0 0 152.65 100.49" xmlns="http://www.w3.org/2000/svg"><path d="m104.91 2.66a47.1 47.1 0 0 0 -35.55 14.08 5.16 5.16 0 0 0 .58 7.78 5.16 5.16 0 0 0 6.75-.58 37 37 0 1 1 .69 52.62 5.17 5.17 0 0 0 -6.87-.34 5.15 5.15 0 0 0 -.31 7.69 47.28 47.28 0 1 0 34.71-81.25z" fill="#6fcbdb"/><g fill="#002852"><path d="m102.4 100.49a50 50 0 0 1 -39.15-18.76 2.4 2.4 0 1 1 3.74-3 45.43 45.43 0 1 0 3.7-61 45.89 45.89 0 0 0 -3.69 4.04 2.4 2.4 0 1 1 -3.75-3 51.34 51.34 0 0 1 4.1-4.5 50.24 50.24 0 1 1 35.06 86.23z"/><path d="m103.67 89a38.62 38.62 0 0 1 -30.22-14.46 2.4 2.4 0 1 1 3.75-3 34 34 0 1 0 2.8-45.62 33.16 33.16 0 0 0 -2.77 3 2.4 2.4 0 0 1 -3.75-3 38.77 38.77 0 1 1 30.19 63.08z"/><path d="m57.84 52.65h-55.44a2.41 2.41 0 0 1 0-4.81h55.44a2.41 2.41 0 0 1 0 4.81z"/><path d="m65.12 36.28h-47a2.41 2.41 0 0 1 0-4.81h47a2.41 2.41 0 0 1 0 4.81z"/><path d="m65.12 69h-47a2.41 2.41 0 0 1 0-4.81h47a2.41 2.41 0 0 1 0 4.81z"/></g><path d="m93.1 61.81h13.2a6.59 6.59 0 0 0 6.6-6.6 6.6 6.6 0 0 0 -6.6-6.6h-6.6a6.6 6.6 0 0 1 -6.6-6.61 6.61 6.61 0 0 1 6.6-6.6h13.2" fill="none" stroke="#002852" stroke-linecap="round" stroke-linejoin="round" stroke-width="4.95"/><path d="m103 28.82v6.59" fill="none" stroke="#002852" stroke-linecap="round" stroke-linejoin="round" stroke-width="4.95"/><path d="m103 61.81v6.6" fill="none" stroke="#002852" stroke-linecap="round" stroke-linejoin="round" stroke-width="4.95"/></svg>