<svg viewBox="0 0 25.08 25.08" xmlns="http://www.w3.org/2000/svg"><g fill="#002852"><path d="m14.87 25.08h-4.65a2.21 2.21 0 0 1 -2.22-2.2v-5.81h-.91a.43.43 0 1 1 0-.85h1.35a.43.43 0 0 1 .43.42v6.24a1.35 1.35 0 0 0 1.35 1.35h4.65a1.36 1.36 0 0 0 1.35-1.35v-6.24a.42.42 0 0 1 .42-.42h6.24a1.36 1.36 0 0 0 1.35-1.35v-4.65a1.35 1.35 0 0 0 -1.35-1.35h-6.24a.43.43 0 0 1 -.42-.43v-3.34a.43.43 0 1 1 .85 0v2.9h5.81a2.21 2.21 0 0 1 2.2 2.21v4.65a2.21 2.21 0 0 1 -2.2 2.2h-5.81v5.81a2.21 2.21 0 0 1 -2.2 2.21z"/><path d="m4.72 17.07h-2.52a2.21 2.21 0 0 1 -2.2-2.2v-4.65a2.21 2.21 0 0 1 2.2-2.22h5.8v-5.8a2.21 2.21 0 0 1 2.22-2.2h4.65a2.21 2.21 0 0 1 2.2 2.2v.86a.43.43 0 1 1 -.85 0v-.86a1.36 1.36 0 0 0 -1.35-1.35h-4.65a1.35 1.35 0 0 0 -1.35 1.35v6.24a.44.44 0 0 1 -.43.43h-6.24a1.35 1.35 0 0 0 -1.35 1.35v4.65a1.36 1.36 0 0 0 1.35 1.35h2.52a.43.43 0 1 1 0 .85z"/><path d="m5.35 14.65a.41.41 0 0 1 -.37-.35l-.4-2.23-.58.72a.42.42 0 0 1 -.34.18h-1.66a.43.43 0 0 1 -.43-.43.43.43 0 0 1 .43-.43h1.43l1-1.34a.43.43 0 0 1 .76.18l.34 1.88.79-1.68a.4.4 0 0 1 .43-.24.41.41 0 0 1 .37.34l.17.86h3a.43.43 0 0 1 .42.43.42.42 0 0 1 -.42.43h-3.36a.42.42 0 0 1 -.39-.28l-.8 1.72a.43.43 0 0 1 -.39.24z"/><path d="m19.73 14.65a.42.42 0 0 1 -.38-.24l-.8-1.72a.43.43 0 0 1 -.4.28h-3.45a.43.43 0 0 1 -.43-.43.44.44 0 0 1 .43-.43h3.1l.16-.86a.42.42 0 0 1 .37-.34.42.42 0 0 1 .44.24l.78 1.68.34-1.83a.43.43 0 0 1 .76-.18l1 1.34h1.48a.43.43 0 0 1 .43.43.43.43 0 0 1 -.43.43h-1.7a.43.43 0 0 1 -.34-.18l-.54-.72-.4 2.23a.41.41 0 0 1 -.36.35z"/><path d="m12.54 15a.37.37 0 0 1 -.18 0 4.17 4.17 0 0 1 -2.36-2.43 1.78 1.78 0 0 1 -.09-.47 1.47 1.47 0 0 1 0-.16 1.75 1.75 0 0 1 1.7-1.8 1.56 1.56 0 0 1 1 .33 1.57 1.57 0 0 1 1-.33 1.76 1.76 0 0 1 1.6 1.86s0 .06 0 .16a2 2 0 0 1 -.09.47 4.17 4.17 0 0 1 -2.39 2.37.43.43 0 0 1 -.19 0zm-1-4a.91.91 0 0 0 -.85 1 .2.2 0 0 0 0 .07.88.88 0 0 0 0 .29 3.27 3.27 0 0 0 1.76 1.82 3.18 3.18 0 0 0 1.75-1.81.75.75 0 0 0 .06-.29.26.26 0 0 0 0-.07.91.91 0 0 0 -.84-1 .8.8 0 0 0 -.64.33.43.43 0 0 1 -.68 0 .8.8 0 0 0 -.53-.34z"/></g><path d="m11.57 11a.91.91 0 0 0 -.85 1 .2.2 0 0 0 0 .07.88.88 0 0 0 0 .29 3.27 3.27 0 0 0 1.76 1.82 3.18 3.18 0 0 0 1.75-1.81.75.75 0 0 0 .06-.29.26.26 0 0 0 0-.07.91.91 0 0 0 -.84-1 .8.8 0 0 0 -.64.33.43.43 0 0 1 -.68 0 .8.8 0 0 0 -.56-.34z" fill="#6fcbdb"/></svg>