<svg viewBox="0 0 20.04 25.18" xmlns="http://www.w3.org/2000/svg"><g fill="#002852"><path d="m17.9 20.44h.1a.42.42 0 0 0 .38-.48l-1.3-11.34a.44.44 0 1 0 -.87.09l1.29 11.35a.42.42 0 0 0 .4.38z"/><path d="m16.85 8.24h.07l1.47-.13a.43.43 0 0 0 .39-.47.42.42 0 0 0 -.47-.39l-1.47.12a.44.44 0 0 0 -.39.48.43.43 0 0 0 .4.39z"/><path d="m5.45 23.51h9.25a.44.44 0 0 0 .43-.44 2.59 2.59 0 0 1 2.59-2.59 2.55 2.55 0 0 1 1.61.57.45.45 0 0 0 .67-.05.44.44 0 0 0 -.07-.62 3.52 3.52 0 0 0 -2.16-.75 3.46 3.46 0 0 0 -3.43 3h-8.48a3.46 3.46 0 0 0 -3.43-3 3.42 3.42 0 0 0 -2.28.86.43.43 0 0 0 .57.65 2.63 2.63 0 0 1 1.71-.64 2.59 2.59 0 0 1 2.57 2.57.44.44 0 0 0 .45.44z"/><path d="m14.7 23.51h.09a.44.44 0 0 0 .33-.52c-.89-4.29 1.58-5.54 1.68-5.59a.44.44 0 0 0 -.37-.79 4.08 4.08 0 0 0 -1.51 1.39 6.89 6.89 0 0 0 -.65 5.13.45.45 0 0 0 .43.38z"/><path d="m2.59 25.18a2.15 2.15 0 0 1 -2.15-2.18 2.15 2.15 0 1 1 2.15 2.14zm0-3.52a1.38 1.38 0 0 0 -1.38 1.34 1.35 1.35 0 0 0 .4 1 1.39 1.39 0 0 0 2 0 1.35 1.35 0 0 0 .39-1 1.38 1.38 0 0 0 -1.41-1.34z"/><path d="m17.86 25.18a2.12 2.12 0 0 1 -1.52-.63 2.08 2.08 0 0 1 -.62-1.55 2.14 2.14 0 1 1 2.14 2.14zm0-3.52a1.38 1.38 0 0 0 -1.38 1.34 1.35 1.35 0 0 0 .4 1 1.39 1.39 0 0 0 1.95 0 1.35 1.35 0 0 0 .4-1 1.38 1.38 0 0 0 -1.37-1.34z"/><path d="m10.06 4.21a2.13 2.13 0 0 1 -1.49-.61 2.11 2.11 0 1 1 1.49.61zm0-3.46a1.35 1.35 0 0 0 -1.35 1.36 1.35 1.35 0 1 0 2.7 0 1.35 1.35 0 0 0 -1.35-1.36z"/><path d="m7 23a1.36 1.36 0 0 1 -.88-.32 1.38 1.38 0 0 1 -.34-1.68l2.16-4.08a.89.89 0 0 0 .06-.44v-9.66a2.25 2.25 0 0 1 .53-1.45l.1-.1a2 2 0 0 1 1.37-.59h.12a2 2 0 0 1 .88.12 2 2 0 0 1 .67.48 1.56 1.56 0 0 1 .2.27l1.61 2.5a.34.34 0 0 0 .29.16h2.39a1.05 1.05 0 0 1 .74.3 1 1 0 0 1 .31.74 1 1 0 0 1 -1 1.05h-2.75a1.65 1.65 0 0 1 -1.3-.64l-.29-.39v1.91a1.45 1.45 0 0 0 .42 1l2.07 2.07a1.6 1.6 0 0 1 .46 1.12v4.93a1.26 1.26 0 0 1 -.44 1 1.24 1.24 0 0 1 -1 .27 1.28 1.28 0 0 1 -1-1.28v-4a.85.85 0 0 0 -.26-.6l-1.15-1.1-.26 3.07a1.69 1.69 0 0 1 -.2.66l-2.31 4a1.38 1.38 0 0 1 -.94.65.93.93 0 0 1 -.26.03zm3.3-17.54h-.3a1.24 1.24 0 0 0 -.81.36l-.07.07a1.53 1.53 0 0 0 -.35 1v9.66a1.6 1.6 0 0 1 -.19.74l-2.13 4.01a.62.62 0 0 0 .12.76.59.59 0 0 0 .49.14.61.61 0 0 0 .41-.29l2.31-4a.89.89 0 0 0 .11-.35l.32-3.85a.38.38 0 0 1 .25-.32.36.36 0 0 1 .39.08l1.72 1.63a1.61 1.61 0 0 1 .49 1.15v4a.54.54 0 0 0 .41.54.5.5 0 0 0 .59-.49v-4.91a.85.85 0 0 0 -.24-.59l-2.07-2.07a2.2 2.2 0 0 1 -.64-1.55v-3a.39.39 0 0 1 .26-.36.38.38 0 0 1 .42.13l1 1.28a.89.89 0 0 0 .7.35h2.71a.3.3 0 0 0 .3-.3.27.27 0 0 0 -.09-.2.29.29 0 0 0 -.24-.08h-2.39a1.1 1.1 0 0 1 -.93-.5l-1.6-2.5-.12-.16a1.13 1.13 0 0 0 -.4-.3 1.5 1.5 0 0 0 -.47-.12z"/><path d="m6.14 13.68a1.05 1.05 0 0 1 -.82-.4 1 1 0 0 1 -.19-.9l.57-2.3a2.74 2.74 0 0 1 .56-1.08l1.86-2.3a.38.38 0 0 1 .58.48l-1.86 2.27a2.12 2.12 0 0 0 -.4.81l-.58 2.31a.3.3 0 0 0 0 .24.28.28 0 0 0 .23.12.29.29 0 0 0 .28-.23l.36-1.54a3.77 3.77 0 0 1 .73-1.52l.61-.74a.37.37 0 0 1 .53-.06.38.38 0 0 1 .06.53l-.61.75a2.87 2.87 0 0 0 -.59 1.2l-.35 1.55a1 1 0 0 1 -.97.81z"/><path d="m11.51 11.86h-3.1a.37.37 0 0 1 -.41-.38.36.36 0 0 1 .37-.37h3.1a.37.37 0 0 1 .38.37.38.38 0 0 1 -.34.38z"/></g></svg>