<svg viewBox="0 0 43.93 39.74" xmlns="http://www.w3.org/2000/svg"><path d="m0 38.58h43.93v1.15h-43.93z" fill="#fff"/><path d="m5.48 39.14v-26.31l6.66-4.17v30.59s-6.66.01-6.66-.11z" fill="none" stroke="#fff" stroke-linecap="round" stroke-linejoin="round" stroke-width=".31"/><path d="m12.14 38.94v-30.28l3.56.87v29.47a34.29 34.29 0 0 1 -3.56-.06z" fill="none" stroke="#fff" stroke-linecap="round" stroke-linejoin="round" stroke-width=".31"/><path d="m22.28.54 5.61 3.27.08 35h-5.69zm-.28-.54v39.16h6.31l-.11-35.53z" fill="#fff"/><path d="m38.21 39v-26.4l-6.35-3.73v30.13s6.58-.21 6.35 0z" fill="none" stroke="#fff" stroke-linecap="round" stroke-linejoin="round" stroke-width=".31"/><path d="m28.12 8.79h3.74v30.21h-3.58s-.47-30.21-.16-30.21z" fill="none" stroke="#fff" stroke-linecap="round" stroke-linejoin="round" stroke-width=".31"/><g fill="#fff"><path d="m10.51 12.48-3.48 1.96v-1.06l3.48-1.96z"/><path d="m10.51 15.55-3.48 1.96v-1.06l3.48-1.96z"/><path d="m10.64 18.62-3.61 1.7.07-1.05 3.61-1.7z"/><path d="m7 22.11 3.62-1.34v1.29l-3.62 1.14a7.92 7.92 0 0 0 0-1.09z"/><path d="m7.21 24.96 3.41-.98v1.39l-3.47.73z"/><path d="m7.1 28.12 3.52-.93v1.29l-3.47.73s.03-1.21-.05-1.09z"/><path d="m7.15 30.97 3.42-.31v1.14l-3.47.2z"/><path d="m7 34.02 3.73-.26-.05 1.25-3.73-.06z"/><path d="m7.21 36.92 3.41-.1-.05 1.19-3.42-.16z"/><path d="m33.41 11.29v1.24l3.52 1.97v-1.45z"/><path d="m33.3 14.19.11 1.66 3.52 1.76v-1.56z"/><path d="m33.3 17.5v1.56l3.63 1.55-.1-1.55z"/><path d="m33.41 20.71-.11 1.35 3.42 1.24.11-1.24z"/><path d="m33.51 24.13-.1 1.24 3.31 1.14v-1.55z"/><path d="m33.2 27.24.1 1.24 3.32.73v-1.25z"/><path d="m33.51 30.86-.1 1.14 3.31.11v-1.45z"/><path d="m33.41 33.97-.11 1.24 3.32-.1v-1.35z"/><path d="m33.3 36.66-.1 1.45 3.63-.2v-1.04z"/><path d="m15.7 3.21v36s6.46.16 6.27 0v-39.21zm5.69 34.31h-5v-1.32h5zm0-2.68-5 .17v-1.26l5-.24zm0-2.65-5 .24v-1.09l5-.23zm0-2.45-5 .49v-1.15l5-.65zm0-2.39-5 .71v-1.44l5-.58zm0-2.44-5 .7v-1.13l5-1.1zm0-2.64-5 .86v-.91l5-1.15zm0-2.38-5 1.25v-1l5-1.2zm0-2.62-5 1.55v-1.25l5-1.15zm0-2.42-5 1.47v-.83l5-1.64zm0-2-5 1.63v-1l5-1.72zm0-2.66-5 2.22v-1.41l5-2.14zm0-2.61-5 2.39v-1.43l5-2.19zm0-2.92-5 2.81v-1.23l5-2.85zm0-2.51-5 2.68v-1.1l5-2.72z"/></g></svg>