<svg viewBox="0 0 15.89 15.89" xmlns="http://www.w3.org/2000/svg"><path d="m8 .59a7.35 7.35 0 0 1 .62 14.67 3.28 3.28 0 0 1 -.62 0 7 7 0 0 1 -1.6-.17 7.36 7.36 0 0 1 1.6-14.5" fill="#fff"/><g fill="#002852"><path d="m8 .59a7.35 7.35 0 0 1 .62 14.67 3.28 3.28 0 0 1 -.62 0 7 7 0 0 1 -1.6-.17 7.36 7.36 0 0 1 1.6-14.5m0-.59a8 8 0 0 0 -8 7.94 8 8 0 0 0 6.23 7.77 8.12 8.12 0 0 0 1.77.18 4.29 4.29 0 0 0 .71 0 7.94 7.94 0 0 0 -.71-15.89z"/><path d="m8.81 6.35a.94.94 0 0 1 .69-.23 3.86 3.86 0 0 1 1 .14l.29-1.58a5.57 5.57 0 0 0 -1.79-.27 3.14 3.14 0 0 0 -1.56.33 1.75 1.75 0 0 0 -.84.86 4.22 4.22 0 0 0 -.23 1.6v.62h-1.3v1.81h1.25v5.7a7.3 7.3 0 0 0 1.68.17 3.44 3.44 0 0 0 .64 0v-5.87h1.66v-1.81h-1.7v-.58a1.3 1.3 0 0 1 .21-.89z"/></g></svg>