<svg viewBox="0 0 107.14 120.61" xmlns="http://www.w3.org/2000/svg"><path d="m52.83 22.13a11.07 11.07 0 1 1 11.06-11.07 11 11 0 0 1 -11.06 11.07zm0-18.13a7.1 7.1 0 0 0 -5 12.12 7.1 7.1 0 1 0 5-12.12z" fill="#002852"/><path d="m95.62 104.53a11.52 11.52 0 1 1 11.52-11.53 11.45 11.45 0 0 1 -11.52 11.53zm0-18.91a7.4 7.4 0 1 0 7.38 7.38 7.4 7.4 0 0 0 -7.38-7.38z" fill="#002852"/><path d="m95.62 85.62a7.4 7.4 0 1 0 7.38 7.38 7.4 7.4 0 0 0 -7.38-7.38z" fill="#6fcbdb"/><g fill="#002852"><path d="m36.54 120.6a7.12 7.12 0 0 1 -4.63-1.72 7.27 7.27 0 0 1 -1.54-8.88l11.31-21.41a4.33 4.33 0 0 0 .51-2.06v-50.73a11.63 11.63 0 0 1 2.81-7.59c.16-.18.33-.37.51-.55a10.61 10.61 0 0 1 6.82-3.1h.66a11 11 0 0 1 4.79.7 9.42 9.42 0 0 1 3.53 2.54 11.72 11.72 0 0 1 1.08 1.4l8.42 13.12a1.82 1.82 0 0 0 1.53.84h12.58a5.5 5.5 0 0 1 0 11h-7.84-6.41a8.62 8.62 0 0 1 -6.81-3.4l-1.53-2v10.06a7.5 7.5 0 0 0 2.19 5.31l10.83 10.79a8.41 8.41 0 0 1 2.45 5.91v25.78a6.59 6.59 0 0 1 -7.75 6.48 6.78 6.78 0 0 1 -5.41-6.74v-21.09a4.45 4.45 0 0 0 -1.37-3.2l-6-5.73-1.37 16.12a8.45 8.45 0 0 1 -1.09 3.47l-12.13 21.08a7.06 7.06 0 0 1 -4.93 3.45 7.16 7.16 0 0 1 -1.21.15zm17.32-92.16h-.56l-.66.05a6.56 6.56 0 0 0 -4.27 1.91c-.12.12-.24.25-.35.38a7.66 7.66 0 0 0 -1.86 5v50.76a8.31 8.31 0 0 1 -1 3.9l-11.29 21.42a3.28 3.28 0 0 0 .61 4 3.09 3.09 0 0 0 2.59.72 3.13 3.13 0 0 0 2.18-1.52l12.13-21.06a4.4 4.4 0 0 0 .62-1.88l1.69-20.24a2 2 0 0 1 3.31-1.26l9 8.58a8.41 8.41 0 0 1 2.6 6.06v21.09a2.8 2.8 0 0 0 2.14 2.84 2.63 2.63 0 0 0 3.11-2.58v-25.78a4.42 4.42 0 0 0 -1.29-3.11l-10.87-10.87a11.51 11.51 0 0 1 -3.35-8.13l.06-15.93a2 2 0 0 1 3.6-1.19l5 6.73a4.61 4.61 0 0 0 3.66 1.82h6.41 7.83a1.54 1.54 0 0 0 1.54-1.54 1.55 1.55 0 0 0 -1.54-1.55h-12.59a5.76 5.76 0 0 1 -4.81-2.66l-8.42-13.11a6.33 6.33 0 0 0 -.64-.83 5.66 5.66 0 0 0 -2.09-1.56 6.88 6.88 0 0 0 -2.49-.46z"/><path d="m32.26 71.85a5.49 5.49 0 0 1 -5.32-6.85l3-12.11a14.9 14.9 0 0 1 2.91-5.78l9.79-12a2 2 0 1 1 3.06 2.51l-9.79 12a10.87 10.87 0 0 0 -2.12 4.24l-3.01 12.14a1.49 1.49 0 0 0 .28 1.3 1.52 1.52 0 0 0 2.68-.6l1.85-8.11a19.55 19.55 0 0 1 3.86-7.94l3.19-3.93a2 2 0 0 1 3.08 2.49l-3.19 3.93a15.59 15.59 0 0 0 -3.08 6.33l-1.85 8.11a5.46 5.46 0 0 1 -5.34 4.27z"/><path d="m102 120.61h-100a2 2 0 1 1 0-4h100a2 2 0 0 1 0 4z"/><path d="m60.46 62.28h-16.28a2 2 0 1 1 0-4h16.28a2 2 0 0 1 0 4z"/></g></svg>