<svg viewBox="0 0 138.27 109.84" xmlns="http://www.w3.org/2000/svg"><path d="m58 104.58h23.12v-22.33a11.54 11.54 0 0 0 -23.08 0z" fill="#82519d"/><g fill="#002852"><path d="m111 109.84h-82.84a2.63 2.63 0 0 1 -2.63-2.63v-104.58a2.63 2.63 0 0 1 5.26 0v102h77.57v-102a2.63 2.63 0 0 1 5.26 0v104.58a2.63 2.63 0 0 1 -2.62 2.63z"/><path d="m133.2 109.84h-22.2a2.63 2.63 0 0 1 -2.63-2.63v-100.63a2.63 2.63 0 0 1 2.63-2.58h22.2a2.63 2.63 0 0 1 2.63 2.63v100.58a2.63 2.63 0 0 1 -2.63 2.63zm-19.58-5.26h16.95v-95.37h-16.95z"/><path d="m28.16 109.84h-22.16a2.63 2.63 0 0 1 -2.63-2.63v-100.63a2.63 2.63 0 0 1 2.63-2.58h22.2a2.63 2.63 0 0 1 2.63 2.63v100.58a2.63 2.63 0 0 1 -2.67 2.63zm-19.57-5.26h16.94v-95.37h-16.94z"/><path d="m111 16.52h-82.84a2.63 2.63 0 1 1 0-5.26h82.84a2.63 2.63 0 1 1 0 5.26z"/><path d="m58 30h-14.54a2.63 2.63 0 1 1 0-5.26h14.54a2.63 2.63 0 1 1 0 5.26z"/><path d="m58 45.15h-14.54a2.63 2.63 0 0 1 0-5.26h14.54a2.63 2.63 0 0 1 0 5.26z"/><path d="m58 60.34h-14.54a2.63 2.63 0 0 1 0-5.26h14.54a2.63 2.63 0 0 1 0 5.26z"/><path d="m46.64 74.37h-3.18a2.63 2.63 0 1 1 0-5.26h3.18a2.63 2.63 0 1 1 0 5.26z"/><path d="m46.64 88.39h-3.18a2.63 2.63 0 0 1 0-5.26h3.18a2.63 2.63 0 0 1 0 5.26z"/><path d="m111 109.84h-82.84a2.63 2.63 0 0 1 -2.63-2.63v-104.58a2.63 2.63 0 0 1 5.26 0v102h77.57v-102a2.63 2.63 0 0 1 5.26 0v104.58a2.63 2.63 0 0 1 -2.62 2.63z"/><path d="m95.69 74.37h-3.18a2.63 2.63 0 1 1 0-5.26h3.18a2.63 2.63 0 1 1 0 5.26z"/><path d="m95.69 88.39h-3.18a2.63 2.63 0 0 1 0-5.26h3.18a2.63 2.63 0 0 1 0 5.26z"/><path d="m95.69 30h-14.57a2.63 2.63 0 1 1 0-5.26h14.57a2.63 2.63 0 0 1 0 5.26z"/><path d="m95.69 45.15h-14.57a2.63 2.63 0 0 1 0-5.26h14.57a2.63 2.63 0 0 1 0 5.26z"/><path d="m95.69 60.34h-14.57a2.63 2.63 0 0 1 0-5.26h14.57a2.63 2.63 0 0 1 0 5.26z"/><path d="m83.75 109.84h-28.34a2.63 2.63 0 0 1 -2.63-2.63v-25a16.8 16.8 0 1 1 33.6 0v25a2.63 2.63 0 0 1 -2.63 2.63zm-25.75-5.26h23.12v-22.33a11.54 11.54 0 0 0 -23.08 0z"/><path d="m69.57 90.28a2.63 2.63 0 0 1 -2.63-2.63v-19.57a2.63 2.63 0 0 1 5.26 0v19.57a2.63 2.63 0 0 1 -2.63 2.63z"/><path d="m69.58 109.84a2.63 2.63 0 0 1 -2.58-2.63v-7.28a2.63 2.63 0 1 1 5.26 0v7.28a2.63 2.63 0 0 1 -2.68 2.63z"/><path d="m17.06 25h-11.06a2.63 2.63 0 0 1 0-5.26h11.1a2.63 2.63 0 1 1 0 5.26z"/><path d="m17.06 41.75h-11.06a2.63 2.63 0 0 1 0-5.26h11.1a2.63 2.63 0 1 1 0 5.26z"/><path d="m17.06 58.52h-11.06a2.63 2.63 0 1 1 0-5.26h11.1a2.63 2.63 0 1 1 0 5.26z"/><path d="m17.06 75.28h-11.06a2.63 2.63 0 1 1 0-5.28h11.1a2.63 2.63 0 0 1 0 5.26z"/><path d="m17.06 92h-11.06a2.63 2.63 0 1 1 0-5.26h11.1a2.63 2.63 0 1 1 0 5.26z"/><path d="m133.2 25h-11.1a2.63 2.63 0 1 1 0-5.26h11.1a2.63 2.63 0 1 1 0 5.26z"/><path d="m133.2 41.75h-11.1a2.63 2.63 0 1 1 0-5.26h11.1a2.63 2.63 0 1 1 0 5.26z"/><path d="m133.2 58.52h-11.1a2.63 2.63 0 1 1 0-5.26h11.1a2.63 2.63 0 1 1 0 5.26z"/><path d="m133.2 75.28h-11.1a2.63 2.63 0 0 1 0-5.26h11.1a2.63 2.63 0 1 1 0 5.26z"/><path d="m133.2 92h-11.1a2.63 2.63 0 1 1 0-5.26h11.1a2.63 2.63 0 1 1 0 5.26z"/><path d="m135.64 109.84h-133.01a2.63 2.63 0 0 1 0-5.26h133a2.63 2.63 0 1 1 0 5.26z"/></g></svg>