<svg viewBox="0 0 15.89 15.89" xmlns="http://www.w3.org/2000/svg"><path d="m8 .59a7.35 7.35 0 0 1 .62 14.67 3.28 3.28 0 0 1 -.62 0 7 7 0 0 1 -1.6-.17 7.36 7.36 0 0 1 1.6-14.5" fill="#fff"/><g fill="#002852"><path d="m8 .59a7.35 7.35 0 0 1 .62 14.67 3.28 3.28 0 0 1 -.62 0 7 7 0 0 1 -1.6-.17 7.36 7.36 0 0 1 1.6-14.5m0-.59a8 8 0 0 0 -8 7.94 8 8 0 0 0 6.23 7.77 8.12 8.12 0 0 0 1.77.18 4.29 4.29 0 0 0 .71 0 7.94 7.94 0 0 0 -.71-15.89z"/><path d="m11 3.87h-6a1 1 0 0 0 -1.14 1.13v6a1 1 0 0 0 1.05 1h6a1 1 0 0 0 1.09-1v-6a1 1 0 0 0 -1-1.13zm-.66.92c.81 0 .81 0 .81.81s0 .79-.8.79-.8 0-.8-.8-.05-.8.74-.8zm-2.34 1.57a1.58 1.58 0 1 1 -1.64 1.57 1.62 1.62 0 0 1 1.64-1.57zm3.15 4.25c0 .39-.11.49-.49.49h-5.39c-.37 0-.47-.1-.47-.49 0-1 0-2 0-3 0-.29.08-.35.34-.34s.38 0 .34.38a2.51 2.51 0 0 0 2 2.73 2.55 2.55 0 0 0 2.92-1.75 2.62 2.62 0 0 0 .05-1.18c0-.14 0-.17.14-.17.56 0 .56 0 .56.54z" fill-rule="evenodd"/></g></svg>