<svg viewBox="0 0 23.73 21.33" xmlns="http://www.w3.org/2000/svg"><path d="m6.46 19.68-1.8 1.2-4.21-7.81 1.8-1.2z" fill="#6fcbdb" stroke="#002852" stroke-linecap="round" stroke-linejoin="round" stroke-width=".9"/><circle cx="14.27" cy="4.66" fill="#6fcbdb" r="2.4"/><g fill="none" stroke="#002852" stroke-linecap="round" stroke-linejoin="round" stroke-width=".9"><path d="m7.06.45h14.42v8.41h-14.42z"/><circle cx="14.27" cy="4.66" r="2.4"/><path d="m20.28 2.85a1.16 1.16 0 0 1 -1.21-1.2"/><path d="m8.26 6.46a1.16 1.16 0 0 1 1.2 1.2"/><path d="m8.26 2.85a1.16 1.16 0 0 0 1.2-1.2"/><path d="m20.28 6.46a1.16 1.16 0 0 0 -1.21 1.2"/><path d="m17.32 14.7 4.7-1a1 1 0 0 1 1.2.57 1 1 0 0 1 -.6 1.23l-8.2 3.5a12.91 12.91 0 0 1 -4.36.72 10.44 10.44 0 0 1 -2.67-.32l-.93-.28"/><path d="m6.46 19.68-1.8 1.2-4.21-7.81 1.8-1.2z"/><path d="m10.06 16.07h5.71a1.5 1.5 0 0 0 1.5-1.5 1.5 1.5 0 0 0 -1.5-1.5h-3.91l-.51-.39a7.08 7.08 0 0 0 -4.25-1.42 7 7 0 0 0 -2.82.59l-1.43.62"/></g></svg>