<svg viewBox="0 0 7.43 26" xmlns="http://www.w3.org/2000/svg"><path d="m3.71 24.21 1.32-2.85-2.65-.12z" fill="#6fcbdb"/><path d="m6.37 4.25v-2.13a1.07 1.07 0 0 0 -1.06-1.06h-3.19a1.07 1.07 0 0 0 -1.06 1.06v2.13z" fill="#6fcbdb"/><g fill="#002852"><path d="m7.43 4.78v13.79a.53.53 0 0 1 -.53.53h-6.37a.53.53 0 0 1 -.53-.53v-13.79a.53.53 0 0 1 .53-.53h6.37a.53.53 0 0 1 .53.53zm-1.06 13.22v-12.69h-5.31v12.69z"/><path d="m7.43 2.12v2.66a.53.53 0 0 1 -.53.53h-6.37a.53.53 0 0 1 -.53-.53v-2.66a2.12 2.12 0 0 1 2.12-2.12h3.19a2.12 2.12 0 0 1 2.12 2.12zm-1.06 2.13v-2.13a1.07 1.07 0 0 0 -1.06-1.06h-3.19a1.07 1.07 0 0 0 -1.06 1.06v2.13z"/><path d="m7.43 18.57a.59.59 0 0 1 0 .23l-3.23 6.89a.53.53 0 0 1 -1 0l-3.15-6.89a.54.54 0 0 1 0-.51.53.53 0 0 1 .48-.29h6.37a.53.53 0 0 1 .45.25.54.54 0 0 1 .08.32zm-3.72 5.64 2.36-5.11h-4.71z"/><path d="m3.18 6.37v10.08a.53.53 0 0 1 -.53.53.53.53 0 0 1 -.53-.53v-10.08a.53.53 0 0 1 .53-.53.52.52 0 0 1 .53.53z"/><path d="m5.31 6.37v10.08a.53.53 0 0 1 -.53.53.53.53 0 0 1 -.53-.53v-10.08a.52.52 0 0 1 .53-.53.53.53 0 0 1 .53.53z"/><path d="m5.31 2.65a.53.53 0 0 1 -.53.53h-2.13a.53.53 0 0 1 -.53-.53.53.53 0 0 1 .53-.53h2.13a.53.53 0 0 1 .53.53z"/><path d="m5.84 21.76a.57.57 0 0 1 -.16.38.53.53 0 0 1 -.75 0 1.59 1.59 0 0 0 -1.16-.57 2.07 2.07 0 0 0 -1.27.57.53.53 0 1 1 -.76-.74 3.12 3.12 0 0 1 2-.89 2.65 2.65 0 0 1 1.92.89.51.51 0 0 1 .18.36z"/></g></svg>