<svg viewBox="0 0 22.78 18.5" xmlns="http://www.w3.org/2000/svg"><g stroke="#002852" stroke-miterlimit="10" stroke-width=".34"><path d="m3.75 7.93h4.75a4.22 4.22 0 0 1 2.32.68l.57.37.61-.37a4.22 4.22 0 0 1 2.32-.68h4.68v-7.19h-4.72a3.7 3.7 0 0 0 -2 .6l-.72.47a.31.31 0 0 1 -.32 0l-.72-.47a3.7 3.7 0 0 0 -2-.6h-4.77z" fill="#6fcbdb"/><g fill="#002852"><path d="m11.39 9.61a.32.32 0 0 1 -.16 0l-.72-.47a3.7 3.7 0 0 0 -2-.6h-5a.29.29 0 0 1 -.29-.29v-7.79a.29.29 0 0 1 .24-.29h5a4.23 4.23 0 0 1 2.32.69l.57.36.65-.36a4.23 4.23 0 0 1 2.28-.69h5a.29.29 0 0 1 .29.29v7.75a.29.29 0 0 1 -.29.29h-5a3.7 3.7 0 0 0 -2 .6l-.72.47a.32.32 0 0 1 -.17.04zm-7.64-1.68h4.75a4.22 4.22 0 0 1 2.32.68l.57.37.61-.37a4.22 4.22 0 0 1 2.32-.68h4.68v-7.19h-4.72a3.7 3.7 0 0 0 -2 .6l-.72.47a.31.31 0 0 1 -.32 0l-.72-.47a3.7 3.7 0 0 0 -2-.6h-4.77z"/><path d="m11.39 11.05a.33.33 0 0 1 -.16-.05l-.72-.47a3.77 3.77 0 0 0 -2-.59h-1.94a.29.29 0 0 1 0-.58h1.93a4.23 4.23 0 0 1 2.32.69l.57.37.57-.37a4.23 4.23 0 0 1 2.32-.69h1.93a.29.29 0 1 1 0 .58h-1.93a3.77 3.77 0 0 0 -2 .59l-.72.47a.33.33 0 0 1 -.17.05z"/><path d="m11.39 9.61a.29.29 0 0 1 -.29-.29v-4.08a.29.29 0 0 1 .58 0v4.08a.29.29 0 0 1 -.29.29z"/><path d="m11.39 4a.29.29 0 0 1 -.29-.29v-2.14a.29.29 0 0 1 .58 0v2.1a.29.29 0 0 1 -.29.33z"/><path d="m8.42 2.32h-3.12a.29.29 0 1 1 0-.58h3.12a.29.29 0 1 1 0 .58z"/><path d="m8.42 3.76h-3.12a.29.29 0 1 1 0-.58h3.12a.29.29 0 0 1 0 .58z"/><path d="m8.42 5.2h-3.12a.29.29 0 1 1 0-.58h3.12a.29.29 0 0 1 0 .58z"/><path d="m8.42 6.64h-3.12a.29.29 0 0 1 -.3-.29.28.28 0 0 1 .29-.28h3.13a.28.28 0 0 1 .29.28.29.29 0 0 1 -.29.29z"/><path d="m17.48 2.32h-3.12a.29.29 0 0 1 0-.58h3.12a.29.29 0 1 1 0 .58z"/><path d="m17.48 3.76h-3.12a.29.29 0 1 1 0-.58h3.12a.29.29 0 1 1 0 .58z"/><path d="m17.48 5.2h-3.12a.29.29 0 0 1 0-.58h3.12a.29.29 0 1 1 0 .58z"/><path d="m17.48 6.64h-3.12a.29.29 0 0 1 -.29-.29.28.28 0 0 1 .29-.28h3.12a.28.28 0 0 1 .29.28.29.29 0 0 1 -.29.29z"/><path d="m19.24 18.33h-15.7a3.37 3.37 0 0 1 -3.37-3.33.28.28 0 0 1 .29-.28h21.86a.28.28 0 0 1 .29.28 3.37 3.37 0 0 1 -3.37 3.33zm-18.48-3.08a2.79 2.79 0 0 0 2.78 2.51h15.7a2.79 2.79 0 0 0 2.76-2.51z"/><path d="m21.28 15.25h-19.78a.29.29 0 0 1 -.28-.25v-11.11a1.15 1.15 0 0 1 1.15-1.15.29.29 0 0 1 0 .58.57.57 0 0 0 -.58.57v10.79h19.21v-10.79a.57.57 0 0 0 -.58-.57.29.29 0 0 1 0-.58 1.15 1.15 0 0 1 1.15 1.15v11.11a.29.29 0 0 1 -.29.25z"/><path d="m19.32 13.55h-15.86a.29.29 0 0 1 -.29-.29v-3.94a.29.29 0 0 1 .58 0v3.68h15.25v-3.68a.28.28 0 0 1 .32-.32.29.29 0 0 1 .29.28v3.94a.29.29 0 0 1 -.29.33z"/><path d="m14.34 16.79h-5.9a1.31 1.31 0 0 1 -1.31-1.31v-.48a.28.28 0 0 1 .29-.28h7.94a.28.28 0 0 1 .29.28v.52a1.31 1.31 0 0 1 -1.31 1.27zm-6.63-1.54v.23a.74.74 0 0 0 .73.74h5.9a.74.74 0 0 0 .73-.74v-.23z"/></g></g></svg>