<svg viewBox="0 0 56.15 56.26" xmlns="http://www.w3.org/2000/svg"><g fill-rule="evenodd"><g fill="#204c76"><path d="m29.92 28.19a22.52 22.52 0 0 1 17.08 8.39 37 37 0 0 1 6 10.34 5.33 5.33 0 0 1 .37 2.68 3.68 3.68 0 0 1 -4.31 3.32 4.15 4.15 0 0 1 -3.48-2.24c-.88-1.63-1.68-3.31-2.62-4.91a22.26 22.26 0 0 0 -4.44-5.77 14.22 14.22 0 0 0 -10.43-3.37c-4 .19-7.31 2-10.33 4.41a45.59 45.59 0 0 0 -8.86 10.1c-.77 1.13-1.48 2.29-2.22 3.43a4.78 4.78 0 0 1 -1.12 1.29c-1 .76-1.89.41-2.1-.83a5.49 5.49 0 0 1 .17-2.58c2.91-9.45 7.91-17.31 17-22a19.48 19.48 0 0 1 9.27-2.3"/><path d="m26.7 27a23 23 0 0 1 -18.47-9.55 38.65 38.65 0 0 1 -5.09-9.12 5.68 5.68 0 0 1 -.39-3 3.79 3.79 0 0 1 4.63-3.09 4.53 4.53 0 0 1 3.43 2.76 39.71 39.71 0 0 0 4.45 7.4 16.17 16.17 0 0 0 11 6.5 12.79 12.79 0 0 0 7-1.18 27.71 27.71 0 0 0 8.57-6c2.17-2.31 4.39-4.56 6.64-6.78a5.51 5.51 0 0 1 1.9-1.3c1.2-.46 1.9.09 1.77 1.37a7 7 0 0 1 -.84 2.52 49.65 49.65 0 0 1 -10.3 13.55 22.44 22.44 0 0 1 -11.3 5.62 11.54 11.54 0 0 1 -1.18.16l-1.8.1"/><path d="m20.62 7.53a7.56 7.56 0 1 1 7.44 7.6 7.49 7.49 0 0 1 -7.44-7.6"/></g><path d="m53.67 39.12c-.09.32.21.84-.25 1s-.66-.36-.88-.67c-1-1.37-1.83-2.81-2.91-4.11a24.87 24.87 0 0 0 -7.31-6.39 11.62 11.62 0 0 0 -2-.8c-.49-.15-1-.36-1.06-.92a1.37 1.37 0 0 1 .64-1.44 32.16 32.16 0 0 0 5.33-4.69 33.84 33.84 0 0 0 6.26-8.65 8 8 0 0 1 .61-1 2.47 2.47 0 0 1 2.9-.75 2.06 2.06 0 0 1 1.06 2.45 19.24 19.24 0 0 1 -2.57 5.58 29.61 29.61 0 0 1 -5.63 6.75c-1 .87-1 1.35 0 2.29a20.48 20.48 0 0 1 5.72 10.38 1.5 1.5 0 0 1 .06.29v.68" fill="#349fbb"/><path d="m0 42.62a6.88 6.88 0 0 1 .84-2.76 30.52 30.52 0 0 1 7.61-10.26c.7-.62.72-1.24 0-2a20.82 20.82 0 0 1 -5.18-8 9.35 9.35 0 0 1 -.76-3.87c0-.21 0-.47.23-.56s.42.1.56.26a10.33 10.33 0 0 1 1.06 1.49 30.56 30.56 0 0 0 4.83 6.14 25.38 25.38 0 0 0 5.48 3.5c.47.25 1 .46 1.42.73a1.21 1.21 0 0 1 .21 2.17c-.39.33-.86.57-1.28.86a27.65 27.65 0 0 0 -10.33 12.33c-.42 1-.93 1.91-2.18 2.1a2.09 2.09 0 0 1 -2.51-2.13" fill="#349fbb"/></g></svg>