<svg viewBox="0 0 135.25 135.25" xmlns="http://www.w3.org/2000/svg"><path d="m69.32 54.93a83.55 83.55 0 0 0 -9.59.28 10.78 10.78 0 0 0 -9.58 10.69v23.94a2.23 2.23 0 0 0 0 .36 2.55 2.55 0 0 0 2.6 2l33.08.08a2.6 2.6 0 0 0 2.63-2.36v-24a10.76 10.76 0 0 0 -9.46-10.66 73.39 73.39 0 0 0 -8.15-.34z" fill="#6fcbdb"/><path d="m64.3 31.54a7.21 7.21 0 0 0 5.07 12.32 7 7 0 0 0 5.1-2.1 7.14 7.14 0 0 0 2.13-5.09 7.21 7.21 0 0 0 -12.3-5.13z" fill="#6fcbdb"/><g fill="#002852"><path d="m56.75 96.4a2.08 2.08 0 0 0 2.08-2.08l.06-24.13a2.09 2.09 0 0 0 -4.18 0l-.05 24.13a2.09 2.09 0 0 0 2.08 2.09z"/><path d="m69.36 48a11.39 11.39 0 1 1 8.06-3.32 11.3 11.3 0 0 1 -8.06 3.32zm-5.06-16.46a7.21 7.21 0 0 0 5.07 12.32 7 7 0 0 0 5.1-2.1 7.14 7.14 0 0 0 2.13-5.09 7.21 7.21 0 0 0 -12.3-5.13z"/><path d="m81.76 96.46a2.09 2.09 0 0 0 2.09-2.08l.05-24.13a2.09 2.09 0 0 0 -4.17 0l-.06 24.13a2.09 2.09 0 0 0 2.09 2.09z"/><path d="m85.78 96.47-33.07-.08a6.69 6.69 0 0 1 -6.71-5.63 5.62 5.62 0 0 1 -.07-.92l.06-24a14.94 14.94 0 0 1 13.27-14.77 84.56 84.56 0 0 1 10.07-.32 90.12 90.12 0 0 1 10.12.36 15 15 0 0 1 13.21 14.89l-.06 24a6.51 6.51 0 0 1 -6.8 6.53zm-16.46-41.54a83.55 83.55 0 0 0 -9.59.28 10.78 10.78 0 0 0 -9.58 10.69v23.94a2.23 2.23 0 0 0 0 .36 2.55 2.55 0 0 0 2.6 2l33.08.08a2.6 2.6 0 0 0 2.63-2.36v-24a10.76 10.76 0 0 0 -9.46-10.66 73.39 73.39 0 0 0 -8.15-.34z"/><path d="m70 115.6a50.39 50.39 0 0 0 0-100.78 2.09 2.09 0 0 0 0 4.18 46.2 46.2 0 1 1 -43.87 60.68 2.09 2.09 0 1 0 -4 1.31 50.44 50.44 0 0 0 47.87 34.61z"/><path d="m19.69 67.25c0-.68 0-1.36 0-2a51.5 51.5 0 0 1 .56-7.54 2.09 2.09 0 0 1 4.13.62 45.86 45.86 0 0 0 -.52 6.92v1.87a2.11 2.11 0 0 1 -2.09 2.17 2.08 2.08 0 0 1 -2.08-2.04zm4.11-16.25a2.09 2.09 0 0 1 -1.26-2.67 50.13 50.13 0 0 1 4.05-8.69 2.08 2.08 0 1 1 3.59 2.12 46.21 46.21 0 0 0 -3.71 8 2.1 2.1 0 0 1 -2 1.39 2.19 2.19 0 0 1 -.67-.15zm8.61-16.18a2.08 2.08 0 0 1 -.19-2.94c.7-.8 1.43-1.57 2.19-2.33a50.59 50.59 0 0 1 4.8-4.23 2.08 2.08 0 1 1 2.56 3.29 47.91 47.91 0 0 0 -4.41 3.89c-.7.7-1.37 1.41-2 2.14a2.09 2.09 0 0 1 -2.94.18zm13.99-11.82a2.08 2.08 0 0 1 .92-2.8 51.14 51.14 0 0 1 8.94-3.49 2.09 2.09 0 0 1 1.14 4 46.42 46.42 0 0 0 -8.2 3.19 2 2 0 0 1 -.94.23 2.08 2.08 0 0 1 -1.86-1.13z"/><path d="m24.15 82.42a2.14 2.14 0 0 0 .65-.1 2.09 2.09 0 0 0 1.33-2.63c-.41-1.27-.78-2.57-1.08-3.85a2.09 2.09 0 1 0 -4.06 1c.33 1.39.72 2.8 1.18 4.18a2.08 2.08 0 0 0 1.98 1.4z"/><path d="m23.9 111.35a65.32 65.32 0 1 1 46.1 19.08 65.32 65.32 0 0 1 -46.1-19.08zm3-89.32a61.14 61.14 0 1 0 43.1-17.86 61.15 61.15 0 0 0 -43.15 17.83z"/><path d="m4.11 131.14a14.06 14.06 0 0 1 0-19.87l12.14-12.14a2.08 2.08 0 0 1 1.67-.61 2.11 2.11 0 0 1 1.53.91 62.36 62.36 0 0 0 7.4 9 61.65 61.65 0 0 0 9 7.39 2.07 2.07 0 0 1 .9 1.53 2.1 2.1 0 0 1 -.6 1.68l-12.15 12.11a14.06 14.06 0 0 1 -19.87 0zm19.79-19.79a65.52 65.52 0 0 1 -6.45-7.52l-10.39 10.39a9.88 9.88 0 0 0 14 14l10.36-10.42a65.52 65.52 0 0 1 -7.52-6.45z"/><path d="m18.37 123.33a2.09 2.09 0 0 0 1.47-.61l9.29-9.2a2.09 2.09 0 1 0 -2.95-3l-9.29 9.2a2.09 2.09 0 0 0 1.48 3.56z"/></g></svg>