<svg viewBox="0 0 141.75 120.12" xmlns="http://www.w3.org/2000/svg"><path d="m2.63 48.46h32.33v24.67h-32.33z" fill="#6fcbdb"/><path d="m21.63 117.13s-4.67-14-18.34-16.67c0 0-8.66 21 18.34 16.67z" fill="#6fcbdb"/><path d="m120.64 117.13s4.66-14 18.33-16.67c.03 0 8.67 21-18.33 16.67z" fill="#6fcbdb"/><path d="m139.63 53.46-.34 28-31.53-31.76 14.3-14.31z" fill="#6fcbdb"/><g fill="none" stroke-linecap="round" stroke-linejoin="round" stroke-width="4.25"><rect height="97.7" rx="10.86" stroke="#002852" width="137.5" x="2.13" y="20.3"/><path d="m2.13 49.25h32.56v25.33h-32.56" stroke="#21295b"/><path d="m139.63 52.96-17.57-17.57-14.3 14.31 31.87 31.87" stroke="#21295b"/><path d="m20.66 118a18.51 18.51 0 0 0 -18.49-17.68" stroke="#21295b"/><path d="m139.63 100.32a18.51 18.51 0 0 0 -18.49 17.68" stroke="#21295b"/><path d="m64.79 2.21h-14.16a5.07 5.07 0 0 0 -5.08 5.08v13" stroke="#002852"/><path d="m96.21 20.3v-13a5.08 5.08 0 0 0 -5.09-5.08h-13.92" stroke="#002852"/></g><circle cx="71.07" cy="2.2" fill="#002852" r="2.2"/><path d="m51.45 71.87a4.89 4.89 0 0 0 -5.42 1l-3 3a1.62 1.62 0 0 0 .31 2.53l9.51 5.7-3.64 3.65a1.62 1.62 0 1 0 2.29 2.25l3.7-3.71 5.89 9.82a1.61 1.61 0 0 0 .81.68h1.17a1.65 1.65 0 0 0 .56-.37l3-3a4.89 4.89 0 0 0 1-5.41l-2.46-5.49 8-7.27 15.4 18.56a1.62 1.62 0 0 0 2.39.11 10.37 10.37 0 0 0 1.82-12.2l-2-3.74 1.72-1.73a4.85 4.85 0 0 0 -6.5-7.25l-2-3.71 11.2-10.11a7.71 7.71 0 0 0 -5.15-13.48 7.72 7.72 0 0 0 -5.73 2.59l-10.16 11.14-4-2.14a4.85 4.85 0 0 0 -7.16-6.55l-1.8 1.79-3.41-1.81a10.36 10.36 0 0 0 -12.2 1.82 1.62 1.62 0 0 0 .11 2.39l18.5 15.41-7.27 8-5.48-2.45zm36.49-.19a1.62 1.62 0 0 1 2.28 2.32l-1 1-1.59-3 .33-.32zm2 11.56a7.07 7.07 0 0 1 -.15 7l-14.24-17.13 6.06-5.53c2.39 4.42 6.39 12.07 8.31 15.66zm-24.66-34.24a1.62 1.62 0 0 1 2.29 2.29l-.4.4-3-1.59 1.1-1.1zm-16 .7a7.09 7.09 0 0 1 7-.15l15.65 8.32-5.54 6.13-17.1-14.28zm9.25 27.65s28.19-30.9 28.2-30.9a4.48 4.48 0 1 1 6.32 6.32l-30.92 28.23a1.63 1.63 0 0 0 -.39 1.86l2.93 6.55a1.62 1.62 0 0 1 -.33 1.8l-1.54 1.5-5.24-8.71.67-.66a1.62 1.62 0 1 0 -2.29-2.34l-.73.73-8.43-5.06 1.54-1.54a1.64 1.64 0 0 1 1.81-.33l6.55 2.93a1.63 1.63 0 0 0 1.86-.36z" fill="#002852" fill-rule="evenodd"/></svg>