<svg viewBox="0 0 18.88 17.73" xmlns="http://www.w3.org/2000/svg"><path d="m9.53 8s2-2.54 1.67-3.75a1.68 1.68 0 0 0 -2.2-1.25 1.59 1.59 0 0 0 -1.18 2.37 11.73 11.73 0 0 0 1.71 2.63z" fill="#6fcbdb"/><path d="m3.31 16.46s1.82-2.31 1.52-3.41a1.53 1.53 0 0 0 -2.05-1.18 1.46 1.46 0 0 0 -1 2.16 10.65 10.65 0 0 0 1.53 2.43z" fill="#6fcbdb"/><path d="m15.74 15.93s2-2.48 1.63-3.66a1.64 1.64 0 0 0 -2.2-1.27 1.56 1.56 0 0 0 -1.1 2.33 11.27 11.27 0 0 0 1.67 2.6z" fill="#6fcbdb"/><g fill="#002852"><path d="m18.74.16a.37.37 0 0 0 -.32-.06l-5.92 1.55-5.9-1.65h-.19l-6 1.58a.35.35 0 0 0 -.27.35l-.14 15.34a.37.37 0 0 0 .14.3.39.39 0 0 0 .23.07h.09l5.92-1.55 5.9 1.64h.19l6-1.58a.35.35 0 0 0 .27-.35l.14-15.34a.37.37 0 0 0 -.14-.3zm-.63 4.84-5.29 2.38v-5.07l5.32-1.38zm-6 2.58-2.11.34.09-.14a8.27 8.27 0 0 0 1.43-3.07 2.11 2.11 0 1 0 -4.22 0 8.29 8.29 0 0 0 1.46 3.05l.2.32-2.15.32.06-7.55 5.25 1.46zm-2.72-.21a9.64 9.64 0 0 1 -1.33-2.66 1.38 1.38 0 1 1 2.76 0 9.9 9.9 0 0 1 -1.33 2.69v.07zm-3.26-6.53v4.9 2.87l-5.35 2.44.07-8.82zm-5.35 11 5.29-2.42-.05 6-5.28 1.38zm6-2.73 5.28-.79-.06 8.56-5.24-1.46zm6 7.75v-4.9-3.8l5.32-2.33-.1 9.67z"/><path d="m10.4 4.69a1 1 0 1 0 -1 1 1 1 0 0 0 1-1z"/><path d="m4 13.36a.83.83 0 1 0 -.82.83.82.82 0 0 0 .82-.83z"/><path d="m2.49 16.29 1.58-.24.24-.05-.58.09.06-.09a7.07 7.07 0 0 0 1.21-2.63 1.81 1.81 0 1 0 -3.61 0 7 7 0 0 0 1.25 2.63l.16.26-.31.05zm-.49-2.92a1.18 1.18 0 1 1 2.35 0 8.32 8.32 0 0 1 -1.13 2.3v.06l-.05-.08a8.24 8.24 0 0 1 -1.17-2.28z"/><path d="m16.69 12.79a1 1 0 0 0 -1-1 1.06 1.06 0 1 0 1 1z"/><path d="m14.72 16.54 2-.3.31-.07-.74.12.08-.13a9 9 0 0 0 1.63-3.36 2.31 2.31 0 1 0 -4.62 0 8.94 8.94 0 0 0 1.57 3.34l.2.34-.39.06zm-.59-3.74a1.51 1.51 0 1 1 3 0 10.58 10.58 0 0 1 -1.45 2.95v.07l-.07-.1a10.75 10.75 0 0 1 -1.48-2.92z"/></g></svg>