<svg viewBox="0 0 18.33 22.14" xmlns="http://www.w3.org/2000/svg"><g stroke="#002852" stroke-miterlimit="10" stroke-width=".35"><g fill="#002852"><path d="m4.59 19.87a1.34 1.34 0 0 1 -.81-.27 1.36 1.36 0 0 1 -.53-.9 1.33 1.33 0 0 1 .28-1l2.47-2.7.41-2.6a.32.32 0 0 1 .36-.27.32.32 0 0 1 .27.37l-.42 2.69a.27.27 0 0 1 -.08.17l-2.54 2.75a.68.68 0 0 0 -.13.51.7.7 0 0 0 .28.47.72.72 0 0 0 1-.14l2.85-3.49.31-2.3a.32.32 0 0 1 .36-.28.32.32 0 0 1 .27.36l-.31 2.39a.39.39 0 0 1 -.07.16l-2.9 3.55a1.32 1.32 0 0 1 -.88.52z"/><path d="m12.16 18.66a1.36 1.36 0 0 1 -1.34-1.09l-.7-3.44-3.56-1.4a2 2 0 0 1 -1.15-2.49l1.73-5.08a2 2 0 0 1 1.02-1.16 1.91 1.91 0 0 1 1.52 0 1.86 1.86 0 0 1 .72.46v.06l1.6 2.07h2.5a1.27 1.27 0 0 1 0 2.53h-3.68a.32.32 0 0 1 -.24-.12l-1.86-2.07a.32.32 0 1 1 .48-.42l1.76 2h3.49a.63.63 0 0 0 0-1.25h-2.66a.32.32 0 0 1 -.26-.13l-1.53-2.23a1.25 1.25 0 0 0 -.5-.33 1.27 1.27 0 0 0 -1 0 1.31 1.31 0 0 0 -.68.76l-1.82 5.12a1.34 1.34 0 0 0 .78 1.68l3.73 1.47a.35.35 0 0 1 .2.23l.73 3.61a.72.72 0 0 0 .76.58.75.75 0 0 0 .53-.29.7.7 0 0 0 .12-.58l-1-4.87-3-1.22a.31.31 0 0 1 -.18-.4l.67-1.9a.33.33 0 0 1 .41-.2.32.32 0 0 1 .2.41l-.57 1.61 2.87 1.17a.34.34 0 0 1 .19.23l1.06 5a1.36 1.36 0 0 1 -1.23 1.64z"/><path d="m6 9.92h-.1l-1.19-.43a1.51 1.51 0 0 1 -.92-1.9l1.51-4.54a1.53 1.53 0 0 1 2.82-.22 1.5 1.5 0 0 1 .09 1.17l-1.94 5.7a.32.32 0 0 1 -.27.22zm.79-7.28a.91.91 0 0 0 -.85.62l-1.55 4.54a.88.88 0 0 0 .54 1.09l.84.3 1.84-5.36a.91.91 0 0 0 -.61-1.15.78.78 0 0 0 -.25-.04z"/><path d="m10.87 4.06a1.94 1.94 0 1 1 1.94-1.94 2 2 0 0 1 -1.94 1.94zm0-3.24a1.3 1.3 0 1 0 1.3 1.3 1.3 1.3 0 0 0 -1.3-1.3z"/><path d="m.5 22a.31.31 0 0 1 -.22-.09.32.32 0 0 1 0-.45 7 7 0 0 1 2.62-1.81.32.32 0 0 1 .24.6 6.2 6.2 0 0 0 -2.41 1.62.34.34 0 0 1 -.23.13z"/><path d="m6.7 19.34a.33.33 0 0 1 -.32-.28.32.32 0 0 1 .28-.36c.59-.08 1.25-.15 1.95-.21a16.57 16.57 0 0 0 1.68-.24.33.33 0 0 1 .38.25.32.32 0 0 1 -.25.38 15.53 15.53 0 0 1 -1.76.25c-.69.05-1.33.12-1.91.2z"/><path d="m14.26 17.63a.31.31 0 0 1 -.29-.19.32.32 0 0 1 .16-.42 17.5 17.5 0 0 0 3.5-2 .32.32 0 0 1 .4.5 17.86 17.86 0 0 1 -3.64 2.12.3.3 0 0 1 -.13-.01z"/><path d="m17.17 16a.33.33 0 0 1 -.3-.19l-3.08-6.88a.32.32 0 0 1 .21-.42.32.32 0 0 1 .43.16l3.08 6.91a.33.33 0 0 1 -.16.43.3.3 0 0 1 -.18-.01z"/></g><path d="m6.75 2.64a.91.91 0 0 0 -.85.62l-1.51 4.54a.88.88 0 0 0 .54 1.09l.84.3 1.84-5.36a.91.91 0 0 0 -.61-1.15.78.78 0 0 0 -.25-.04z" fill="#6fcbdb"/></g></svg>