<svg viewBox="0 0 28.24 18.24" xmlns="http://www.w3.org/2000/svg"><path d="m26.45 14.53a2.65 2.65 0 0 1 -5.29.34l1.4-1.48h3.65a2.87 2.87 0 0 1 .24 1.14z" fill="#6fcbdb"/><path d="m5.43 17.31a2.64 2.64 0 0 1 -2.43-1.66h4.86a2.64 2.64 0 0 1 -2.43 1.66z" fill="#6fcbdb"/><g fill="#002852"><path d="m23.8 15.51a1 1 0 1 0 -.95-1 1 1 0 0 0 .95 1z"/><path d="m28 12.75a5.86 5.86 0 0 0 -4.49-3.75 7.91 7.91 0 0 0 .38-.92v-.12l-.83-3.96.36-.32c.35 0 .62-.83.62-1.84s-.27-1.79-.62-1.84l-3.79 1.16v.48l-1.58.49.22.9 1.36.19v.36l1.45.71v.1c-2.19.35-2.71 3.58-3 5.36-.07.38-.12.72-.18.92a.86.86 0 0 1 -.65.66 1.51 1.51 0 0 1 -.48.05h-2.43l-.95-.11a3.22 3.22 0 0 1 -1.09-2.36l3.7-3.21h-.14a.41.41 0 0 0 -.17-.3l-1.4-1.34a2.16 2.16 0 0 0 -1.3-.5h-3.16a.75.75 0 0 0 -.77.71v.92a.73.73 0 0 0 .24.52 17 17 0 0 0 -4.6 2c-3.08 1.91-4.7 4.5-4.7 7.48v.46h2a3.61 3.61 0 0 0 3.41 2.59 3.61 3.61 0 0 0 3.42-2.59h6.91a7.2 7.2 0 0 0 2.58-.74h1.89a3.58 3.58 0 0 0 7.15-.36 3.89 3.89 0 0 0 -.18-1.14h1zm-1.21-.29h-4.6l-.69.74-.73.76h-.97a6.06 6.06 0 0 0 .56-.47 12.09 12.09 0 0 0 1.58-1.79l.38-.55c.3-.45.55-.88.76-1.27a4.73 4.73 0 0 1 1.44.4 5 5 0 0 1 2.29 2.18zm-.31 2.07a2.65 2.65 0 0 1 -5.29.34l1.4-1.48h3.65a2.87 2.87 0 0 1 .21 1.14zm-10.93.19h-14.61c.16-2.47 1.57-4.56 4.2-6.22a16.67 16.67 0 0 1 4.29-1.87h4.07l-2.17 1.89v.24a4.08 4.08 0 0 0 1.67 3.34l.08.05 1.21.15h2.6a2.75 2.75 0 0 0 .62-.08 1.81 1.81 0 0 0 1.31-1.32 9.61 9.61 0 0 0 .19-1c.28-1.72.74-4.6 2.48-4.6h.51v-1.58l-1.44-.72v-1.16l1.94-.59v2.05l-.5.41 1 4.19c-.07.18-.21.54-.44 1-.07.14-.14.29-.23.45s-.15.29-.24.44a13.26 13.26 0 0 1 -.89 1.38 9.93 9.93 0 0 1 -2.45 2.44 6.82 6.82 0 0 1 -.75.39 6.31 6.31 0 0 1 -.66.29 6.23 6.23 0 0 1 -1.82.43zm-10.12 2.59a2.64 2.64 0 0 1 -2.43-1.66h4.86a2.64 2.64 0 0 1 -2.43 1.66z"/><path d="m7.43 11.46h.78v-.93h-2.94v.3.46.17h1.16z"/><path d="m7.72 12.32h-.68-2.68v.93h3.43.51.49.31v-.93h-.79z"/></g></svg>