<svg viewBox="0 0 48.4 23.66" xmlns="http://www.w3.org/2000/svg"><g fill-rule="evenodd"><path d="m0 18.4v-4.92a2.38 2.38 0 0 1 .32-1.16 2.71 2.71 0 0 1 .57-.73 2.84 2.84 0 0 1 1-.61 2.84 2.84 0 0 1 .42-.09 2.5 2.5 0 0 1 .69-.05 2.83 2.83 0 0 1 .58.11 2 2 0 0 1 1 .63v.06c0 .07.09 0 .14 0l.13-.14a1.47 1.47 0 0 1 .5-.39 2.62 2.62 0 0 1 1.53-.26 2.4 2.4 0 0 1 1.17.42 3.11 3.11 0 0 1 .62.52 2.59 2.59 0 0 1 .58 1 2.82 2.82 0 0 1 .14.86v9.76c0 .25 0 .22-.22.22h-1.36c-.19 0-.19 0-.19-.2v-9.69a1.5 1.5 0 0 0 -.08-.47 1.11 1.11 0 0 0 -.47-.51 1 1 0 0 0 -.74-.06.84.84 0 0 0 -.43.3 2.48 2.48 0 0 0 -.19.26.42.42 0 0 0 -.07.27 1.47 1.47 0 0 1 0 .21v9.73c0 .22 0 .22-.22.22h-1.53c-.07 0-.09 0-.09-.1a.56.56 0 0 0 0-.13v-9.81a1 1 0 0 0 -.33-.74.83.83 0 0 0 -.47-.23 1.14 1.14 0 0 0 -.55.06 1 1 0 0 0 -.49.46 1.13 1.13 0 0 0 -.13.54v9.7c0 .23 0 .21-.2.21h-1.47c-.16 0-.16 0-.16-.16z" fill="#76b0a4"/><path d="m11 17.23v-6.16a.57.57 0 0 0 0-.13c0-.09 0-.11.12-.11h2.63a2.52 2.52 0 0 1 .9.21 3.25 3.25 0 0 1 .63.35 2.79 2.79 0 0 1 .49.42 3.17 3.17 0 0 1 .66.95 3.58 3.58 0 0 1 .23.7 3.43 3.43 0 0 1 .06.55 5.79 5.79 0 0 1 0 1 1.94 1.94 0 0 0 0 .24 1.81 1.81 0 0 1 -.14.69 2.73 2.73 0 0 1 -.36.7 3.74 3.74 0 0 1 -.66.72 5 5 0 0 1 -.69.43 3.26 3.26 0 0 1 -1 .27 5.91 5.91 0 0 1 -.84 0c-.18 0-.18 0-.18.19v5.1c0 .29 0 .24-.25.24h-1.42c-.17 0-.18 0-.18-.18zm1.84-2.79v1.78c0 .13 0 .15.14.15h.36a1.39 1.39 0 0 0 .77-.18 1.34 1.34 0 0 0 .73-1.19v-1.08a1.18 1.18 0 0 0 -.07-.41 1.48 1.48 0 0 0 -.5-.68 1.39 1.39 0 0 0 -.4-.21 3 3 0 0 0 -.94-.07c-.06 0-.1 0-.09.09z" fill="#577872"/><path d="m18.29 17.26v-3.75a2.7 2.7 0 0 1 .12-.69 2.09 2.09 0 0 1 .48-.92 2.72 2.72 0 0 1 .9-.75 2.79 2.79 0 0 1 .6-.24 3.06 3.06 0 0 1 .8-.08 2.92 2.92 0 0 1 .94.2 3 3 0 0 1 1.07.79 3.3 3.3 0 0 1 .52.89 2.35 2.35 0 0 1 .14.79v1c0 .13 0 .13-.13.13h-1.54c-.12 0-.13 0-.13-.13 0-.28 0-.56 0-.84a1 1 0 0 0 -.49-.85 1.3 1.3 0 0 0 -.43-.15.73.73 0 0 0 -.55.14 1 1 0 0 0 -.46.58 1.42 1.42 0 0 0 -.06.46v7a1 1 0 0 0 .61 1 .75.75 0 0 0 .64.05 1.47 1.47 0 0 0 .41-.22.83.83 0 0 0 .28-.43 1.41 1.41 0 0 0 0-.46c0-.24 0-.48 0-.71 0-.08 0-.12.11-.12h1.59c.07 0 .11 0 .11.1v1.18a2.62 2.62 0 0 1 -.56 1.39 2.9 2.9 0 0 1 -1 .82 3 3 0 0 1 -.65.23 2.78 2.78 0 0 1 -.81 0 2.47 2.47 0 0 1 -.95-.24 3.42 3.42 0 0 1 -1-.78 2.4 2.4 0 0 1 -.34-.53 1.61 1.61 0 0 1 -.19-.5 3.81 3.81 0 0 1 -.08-.59z" fill="#76b0a4"/><path d="m13.64 0a1 1 0 0 0 .28.07 2.66 2.66 0 0 1 .49.1c.11 0 .22 0 .33.08l.55.18.48.16.51.21a5.62 5.62 0 0 1 .56.25c.28.16.58.27.85.46l.45.26c.25.16.51.32.75.5l.3.23c.25.2.5.39.73.61a4 4 0 0 1 .31.27c.18.23.41.41.6.62s.33.37.49.57.47.59.68.9.33.53.51.78a3.39 3.39 0 0 1 .29.53c.09.2.21.39.29.59s.12.28.18.42.11.25.15.38.12.33.17.5a2 2 0 0 0 .12.31 3 3 0 0 1 .15.51c0 .07 0 .14.05.24a.34.34 0 0 1 -.12-.06c-.12-.09-.26-.16-.38-.25a3.57 3.57 0 0 0 -.56-.26c-.2-.08-.41-.13-.62-.2a4.9 4.9 0 0 0 -1.08-.06 3.6 3.6 0 0 0 -.73.13 2.89 2.89 0 0 0 -1 .46c-.06 0-.14.07-.21.12a3.58 3.58 0 0 0 -.56.47s-.06.09-.14.06v-.09a8.26 8.26 0 0 0 -.08-1c0-.24-.05-.48-.1-.72s0-.38-.09-.57a2 2 0 0 0 -.12-.52 2.09 2.09 0 0 1 -.12-.36 9 9 0 0 0 -.27-1 9.33 9.33 0 0 0 -.34-.93 7.64 7.64 0 0 0 -.46-1 8.89 8.89 0 0 0 -.45-.79l-.48-.79a6.41 6.41 0 0 0 -.59-.76 8.39 8.39 0 0 0 -1.13-1.1 5.79 5.79 0 0 0 -.59-.42.09.09 0 0 1 -.05-.09z" fill="#577872"/><path d="m10.23.07a3.94 3.94 0 0 0 -.63.46 7.41 7.41 0 0 0 -.91.86l-.45.52c-.19.22-.33.47-.52.68a5.58 5.58 0 0 0 -.32.52 11.46 11.46 0 0 0 -.59 1.09 4.68 4.68 0 0 0 -.23.56 1.74 1.74 0 0 1 -.1.19c-.12.28-.21.58-.31.87 0 .11-.08.21-.11.31s0 .22-.08.33-.13.5-.19.75a3.25 3.25 0 0 0 -.13.62c0 .2-.06.39-.09.59s0 .53-.1.8a2.53 2.53 0 0 0 0 .48 1.9 1.9 0 0 1 -.07.46l-.28-.25a3.65 3.65 0 0 0 -.87-.6 1.86 1.86 0 0 0 -.61-.22c-.1-.11-.26 0-.36-.13a5.59 5.59 0 0 0 -1.12-.06l-.48.1a2.44 2.44 0 0 0 -.48.15 3.89 3.89 0 0 0 -.66.29c-.11.06-.2.14-.3.2l-.24.08a.11.11 0 0 1 0-.11c.08-.24.15-.49.23-.73s.17-.45.24-.68a4.73 4.73 0 0 1 .2-.47c.08-.17.15-.35.23-.53a12.27 12.27 0 0 1 .71-1.28c.18-.28.38-.55.58-.82s.46-.6.7-.88.34-.36.51-.54.4-.4.61-.59l.57-.46c.19-.14.36-.3.56-.43a7.2 7.2 0 0 1 .74-.48c.2-.12.39-.25.59-.35s.33-.16.48-.25a4.44 4.44 0 0 1 .64-.28 5.73 5.73 0 0 1 .64-.26l.43-.16c.07 0 .17 0 .24-.08s.38-.12.58-.16a2.24 2.24 0 0 0 .45-.09.49.49 0 0 1 .3-.02z" fill="#76b0a4"/><path d="m11.6.13a.29.29 0 0 1 0 .19v9.56s0 .12 0 .15-.09 0-.13-.08a2.25 2.25 0 0 0 -.6-.45c-.08 0-.15-.11-.23-.15s-.42-.18-.64-.26a4.64 4.64 0 0 0 -.74-.16 2.19 2.19 0 0 0 -.72 0 4.14 4.14 0 0 0 -.6.09 8.51 8.51 0 0 0 -.85.29 3.25 3.25 0 0 0 -.51.3 1.37 1.37 0 0 0 -.38.29s0 0-.09 0a.7.7 0 0 1 0-.25c.06-.21.07-.43.12-.64s0-.35.08-.52.07-.3.1-.44.06-.28.1-.42a3 3 0 0 1 .09-.32c0-.12 0-.25.1-.37s.12-.37.18-.55l.28-.75c.11-.3.26-.59.39-.88s.31-.61.48-.91a4.43 4.43 0 0 1 .36-.59c.13-.2.26-.4.41-.59a7.81 7.81 0 0 1 .54-.67c.1-.1.18-.22.28-.32.28-.28.55-.55.85-.8a9.59 9.59 0 0 1 1-.69c.03 0 .1.01.13-.06z" fill="#577872"/><path d="m17.8 9.93-.37-.28a3.66 3.66 0 0 0 -.87-.47c-.18-.06-.36-.13-.56-.18a3.61 3.61 0 0 0 -1.18-.1 2 2 0 0 0 -.59.1c-.13 0-.23.06-.35.09l-.44.18a4.26 4.26 0 0 0 -1 .7s0 0-.06 0 0 0 0-.08v-9.6c0-.1.05-.14.13-.08a5.34 5.34 0 0 1 .8.54l.26.2a6.63 6.63 0 0 1 .61.57c.07.09.18.15.25.25a4 4 0 0 1 .5.58v.06a2.51 2.51 0 0 1 .32.41c.2.26.37.55.55.82s.2.37.31.55a7.84 7.84 0 0 1 .41.82 8.88 8.88 0 0 1 .36.9c.06.18.16.36.21.55s.12.41.18.62a1.18 1.18 0 0 0 .12.36.53.53 0 0 1 .07.28 2.73 2.73 0 0 0 .1.41c0 .16 0 .32.09.48a2.46 2.46 0 0 1 .08.46c0 .23.08.45.12.68a.53.53 0 0 1 -.05.18z" fill="#76b0a4"/><path d="m39.62 12.74v-1.15a.76.76 0 0 1 .88-.75.56.56 0 0 1 .25.14h.18a.64.64 0 0 1 .64-.09.68.68 0 0 1 .41.37.78.78 0 0 1 .09.34v2.35c0 .13-.05.18-.18.19-.27 0-.28 0-.28-.27v-2.28a.26.26 0 0 0 -.14-.26.24.24 0 0 0 -.33.14 1.14 1.14 0 0 0 0 .26v2.19c0 .19 0 .21-.22.21s-.23 0-.23-.23v-2.19a1 1 0 0 0 0-.24.24.24 0 0 0 -.22-.17.23.23 0 0 0 -.23.14.41.41 0 0 0 0 .21v2.24a.4.4 0 0 1 0 .11c0 .11 0 .13-.12.13h-.24a.1.1 0 0 1 -.11-.1v-1.29z" fill="#76b0a4"/><path d="m28.52 12.76v1.24a.09.09 0 0 1 -.1.09h-.26c-.07 0-.1 0-.1-.11s0-.08 0-.12c0-.73 0-1.45 0-2.18a.81.81 0 0 0 0-.27.22.22 0 0 0 -.21-.15.25.25 0 0 0 -.23.13.46.46 0 0 0 -.06.23v2.24c0 .23 0 .23-.24.23h-.09c-.09 0-.12 0-.13-.11v-2.4a.89.89 0 0 1 .12-.45.71.71 0 0 1 1-.24l.1.06s.05 0 .09 0a.69.69 0 0 1 1 .07.61.61 0 0 1 .19.47v2.51c0 .12 0 .16-.16.16-.29 0-.31 0-.31-.29v-2.21a.66.66 0 0 0 0-.14.26.26 0 0 0 -.25-.22.25.25 0 0 0 -.23.23v1.23z" fill="#76b0a4"/><path d="m25.41 17.23a1.34 1.34 0 0 1 0-.2v-6.03c0-.22 0-.2.2-.2s.31 0 .31.31v5.75 6.55a.81.81 0 0 1 0 .16s0 0-.06 0 0 0 0-.06v-6.12s0 0 0-.05 0-.12-.11-.12z" fill="#76b0a4"/><path d="m30.42 18.91a1.91 1.91 0 0 1 -.41 0c-.05 0-.07 0-.09-.08-.06-.25-.12-.5-.2-.75s-.1-.33-.14-.5a.12.12 0 0 0 -.14-.08c-.07 0-.07.06-.07.11v1.2c0 .07 0 .1-.09.1h-.34c-.07 0-.09 0-.08-.1v-3.09a.08.08 0 0 1 .09-.09 2.88 2.88 0 0 1 .72 0 .79.79 0 0 1 .65.78 2.54 2.54 0 0 1 0 .39.61.61 0 0 1 -.26.46.13.13 0 0 0 0 .18c.09.28.17.55.24.83s.06.42.12.64zm-1.06-2.36v.36c0 .16.05.19.2.12h.06a.31.31 0 0 0 .23-.3 2.62 2.62 0 0 0 0-.28.34.34 0 0 0 -.36-.34c-.09 0-.12 0-.13.11z" fill="#577872"/><path d="m36.64 22.27c0-.38 0-.77 0-1.15a.81.81 0 0 1 .14-.47.64.64 0 0 1 .31-.23.67.67 0 0 1 .64 0 .82.82 0 0 1 .29.35.77.77 0 0 1 .07.39v2.22c0 .19 0 .2-.2.21s-.32 0-.3-.3v-.5c0-.12 0-.13-.12-.13h-.24c-.11 0-.12 0-.12.13v.69c0 .07 0 .11-.12.11h-.21c-.11 0-.13 0-.13-.13s0-.43 0-.65zm1-.63a5.23 5.23 0 0 0 0-.56c0-.18-.11-.24-.25-.23a.25.25 0 0 0 -.24.25v.57.48s0 .12.12.11h.25c.12 0 .12 0 .13-.12z" fill="#76b0a4"/><path d="m43.88 17.52v1.28c0 .13 0 .13-.12.13s-.25.05-.33 0 0-.21 0-.31v-2.17a.51.51 0 0 0 0-.21.26.26 0 0 0 -.23-.17c-.1 0-.17.07-.22.18a.53.53 0 0 0 0 .22v2.28c0 .2 0 .18-.18.18s-.21 0-.28 0 0-.2 0-.3c0-.76 0-1.53 0-2.3a.78.78 0 0 1 .7-.71.76.76 0 0 1 .75.5.4.4 0 0 1 0 .19z" fill="#577872"/><path d="m34.77 12.7v1.3a.1.1 0 0 1 -.13.1h-.19c-.11 0-.13 0-.13-.13s0-.39 0-.59 0-.22-.22-.22-.26 0-.26.27v.57c0 .13 0 .16-.15.17h-.15c-.14 0-.19-.07-.19-.21s0-.43 0-.65a1.14 1.14 0 0 1 0-.45.11.11 0 0 0 0-.08c0-.26 0-.53 0-.79a2.63 2.63 0 0 1 0-.56.64.64 0 0 1 .38-.49.7.7 0 0 1 .75.08.62.62 0 0 1 .26.49v1.19zm-.46-.62v-.54a.26.26 0 0 0 -.23-.25.27.27 0 0 0 -.25.25v1.1c0 .08 0 .12.11.11h.26c.08 0 .12 0 .11-.11z" fill="#76b0a4"/><path d="m28.52 22.24v1.23c0 .16 0 .16-.16.16-.34 0-.3 0-.3-.29 0-.17 0-.34 0-.51s0-.12-.12-.12h-.24c-.12 0-.13 0-.13.13v.6c0 .18 0 .19-.2.2s-.28 0-.28-.28v-2.11a1.84 1.84 0 0 1 0-.33.71.71 0 0 1 .5-.52c.08 0 .14-.06.22 0a.78.78 0 0 1 .6.39.62.62 0 0 1 .08.33zm-.95-.64v.56c0 .09 0 .12.11.12h.32a.09.09 0 0 0 .1-.1v-1.12c0-.14-.1-.21-.25-.21s-.23 0-.24.21z" fill="#76b0a4"/><path d="m42 17.28v1a.71.71 0 0 1 -.58.67.81.81 0 0 1 -.53-.09.67.67 0 0 1 -.34-.49 2.17 2.17 0 0 1 0-.26v-1.65a1.46 1.46 0 0 1 0-.29.7.7 0 0 1 .32-.46.77.77 0 0 1 .84 0 .7.7 0 0 1 .28.55zm-.47 0c0-.28 0-.55 0-.83a.57.57 0 0 0 0-.25.23.23 0 0 0 -.34-.1.28.28 0 0 0 -.13.28v1.78a.21.21 0 0 0 0 .08.25.25 0 0 0 .18.2.24.24 0 0 0 .28-.12.49.49 0 0 0 0-.2c.02-.26.03-.54.02-.82z" fill="#577872"/><path d="m39.89 22.23v1.3c0 .07 0 .11-.11.11a1 1 0 0 0 -.25 0c-.07 0-.09 0-.1-.1v-2.45a.25.25 0 0 0 -.38-.22s-.1.07-.09.14 0 .13 0 .19v2.22c0 .21 0 .21-.2.22s-.31 0-.3-.3v-2.15a.9.9 0 0 1 .21-.6.42.42 0 0 1 .33-.19c.07 0 .11-.06.19 0a.76.76 0 0 1 .61.34.61.61 0 0 1 .11.39z" fill="#76b0a4"/><path d="m32.24 17.28v1a.69.69 0 0 1 -.55.6.72.72 0 0 1 -.54-.07.7.7 0 0 1 -.37-.61v-2a.72.72 0 0 1 .62-.68.74.74 0 0 1 .82.46.32.32 0 0 1 0 .14v.53.54zm-.46 0v-1a.29.29 0 0 0 -.21-.24.25.25 0 0 0 -.26.12.26.26 0 0 0 -.06.21v1.8a.32.32 0 0 0 .23.26.26.26 0 0 0 .3-.27z" fill="#577872"/><path d="m43.88 12.48v.92a.73.73 0 0 1 -1.21.55c-.1-.07-.12-.18-.17-.27a.77.77 0 0 1 -.07-.4c0-.56 0-1.12 0-1.68a.74.74 0 0 1 .86-.76.72.72 0 0 1 .59.67zm-.46 0c0-.29 0-.59 0-.88a.37.37 0 0 0 -.06-.21.22.22 0 0 0 -.31-.06c-.13.06-.14.17-.14.29v1.72a.34.34 0 0 0 0 .1.26.26 0 0 0 .39.18.27.27 0 0 0 .11-.25z" fill="#76b0a4"/><path d="m45.18 12.49v-1.49c0-.16 0-.17.18-.17a3.43 3.43 0 0 1 .64 0 .49.49 0 0 1 .21.08.8.8 0 0 1 .4.7q0 .81 0 1.62a.85.85 0 0 1 -.52.76 1.08 1.08 0 0 1 -.36 0h-.36c-.17 0-.19 0-.19-.18zm.44 0v1c0 .13 0 .13.14.14a.36.36 0 0 0 .39-.38v-1.52a.37.37 0 0 0 -.39-.39c-.11 0-.14 0-.14.14z" fill="#76b0a4"/><path d="m36.63 12.74v1.26c0 .15 0 .16-.16.16-.35 0-.3 0-.3-.29v-2.24a.3.3 0 0 0 -.18-.31.23.23 0 0 0 -.28.08.66.66 0 0 0 -.09.31v2.18c0 .22 0 .22-.21.22s-.24 0-.24-.25v-2.27a.73.73 0 0 1 .34-.63.7.7 0 0 1 1 .21.71.71 0 0 1 .12.42v.58z" fill="#76b0a4"/><path d="m34.26 17.28v-1.54c0-.08 0-.12.13-.12h1.2c.11 0 .12 0 .12.12 0 .42.07.34-.33.35h-.5c-.08 0-.12 0-.12.1v.67c0 .08 0 .1.11.1h.29c.13 0 .14 0 .14.15v.22c0 .09 0 .12-.12.12h-.3c-.09 0-.12 0-.12.11v.81c0 .07 0 .09.1.09h.71c.14 0 .14 0 .14.14s0 .23 0 .3-.18 0-.28 0h-1c-.16 0-.17 0-.17-.16z" fill="#577872"/><path d="m25.41 17.23h.38c.1 0 .13 0 .13.12s0 0 0 .05v6.19.06h-.4c-.09 0-.12 0-.11-.1v-6.23s0-.06 0-.09z" fill="#577872"/><path d="m27.06 17.28v-1.59s0-.07.06-.06a2.31 2.31 0 0 1 .94.08.81.81 0 0 1 .37.36 1 1 0 0 1 .08.84.79.79 0 0 1 -.43.5 1.12 1.12 0 0 1 -.4.1c-.11 0-.12 0-.12.14v1.2a.08.08 0 0 1 -.07.08h-.37a.05.05 0 0 1 -.06-.06zm.5-.72v.41s0 .12.09.09.26-.06.34-.2a.7.7 0 0 0 0-.47.34.34 0 0 0 -.37-.3c-.07 0-.11 0-.11.1z" fill="#577872"/><path d="m35.92 17.28c0-.28 0-.56 0-.84a.84.84 0 0 1 .19-.59.62.62 0 0 1 .42-.24.74.74 0 0 1 .56.12.86.86 0 0 1 .34.78.08.08 0 0 1 -.09.08h-.34c-.06 0-.08 0-.08-.09a.56.56 0 0 1 0-.13c0-.13-.06-.2-.15-.27a.2.2 0 0 0 -.21 0 .3.3 0 0 0 -.14.26v1.84a.25.25 0 0 0 .45.18.16.16 0 0 0 .05-.11v-.21c0-.07 0-.12.1-.11h.31a.09.09 0 0 1 .1.09.88.88 0 0 1 -.14.58.68.68 0 0 1 -.44.31.73.73 0 0 1 -.75-.24.68.68 0 0 1 -.17-.47c-.01-.31-.01-.62-.01-.94z" fill="#577872"/><path d="m37.8 17.27v-.88a.88.88 0 0 1 .17-.55.66.66 0 0 1 .35-.22.73.73 0 0 1 .91.47 1.17 1.17 0 0 1 .06.41.08.08 0 0 1 -.09.09c-.11 0-.21 0-.32 0a.09.09 0 0 1 -.1-.1c0-.06 0-.12 0-.18a.25.25 0 0 0 -.17-.23.24.24 0 0 0 -.26.09.18.18 0 0 0 -.05.12v.14 1.7a.32.32 0 0 0 .06.25.25.25 0 0 0 .27.08.23.23 0 0 0 .17-.22v-.18c0-.08 0-.11.12-.11h.29c.06 0 .09 0 .1.08a.92.92 0 0 1 -.26.74.78.78 0 0 1 -.83.11.71.71 0 0 1 -.4-.67c-.03-.32-.02-.63-.02-.94z" fill="#577872"/><g fill="#76b0a4"><path d="m33.26 22v-1.44c0-.15 0-.15.15-.15h1.13c.13 0 .13 0 .13.12 0 .39 0 .32-.3.32h-.49c-.12 0-.12 0-.12.12s0 .43 0 .65 0 .11.12.11h.28c.06 0 .08 0 .08.09 0 .35 0 .36-.32.36h-.08c-.06 0-.08 0-.08.08v.84c0 .07 0 .1.1.1h.71c.07 0 .1 0 .1.09v.19c0 .12 0 .15-.16.15h-1c-.15 0-.2 0-.2-.19z"/><path d="m29.87 12.47v-1.47c0-.18 0-.18.19-.18h1c.18 0 .22 0 .22.22s0 .25-.24.25h-.54c-.13 0-.14 0-.15.15s0 .42 0 .63 0 .12.12.11h.26c.08 0 .12 0 .12.11s0 .13 0 .2 0 .15-.15.15h-.23c-.07 0-.11 0-.11.1v.8c0 .1 0 .11.13.12h.65c.16 0 .16 0 .17.16v.05c0 .19 0 .23-.24.23h-1.07c-.13 0-.15 0-.16-.16z"/><path d="m35.09 22.68c.2 0 .21 0 .21.2a.36.36 0 0 0 .06.2.21.21 0 0 0 .21.12.27.27 0 0 0 .21-.14.54.54 0 0 0 -.13-.6 1.83 1.83 0 0 1 -.24-.31 1.07 1.07 0 0 0 -.18-.19 1.47 1.47 0 0 1 -.33-.55.83.83 0 0 1 -.07-.27.75.75 0 0 1 .4-.69.48.48 0 0 1 .48-.06s.1 0 .14 0a.75.75 0 0 1 .42.53 1 1 0 0 1 0 .3.07.07 0 0 1 -.08.07h-.19c-.17 0-.17 0-.19-.17a.78.78 0 0 0 -.08-.23.26.26 0 0 0 -.33 0 .34.34 0 0 0 -.1.33 1.16 1.16 0 0 0 .34.53c.11.11.19.25.31.36a1.48 1.48 0 0 1 .3.55.81.81 0 0 1 -.41.93.71.71 0 0 1 -.95-.35.86.86 0 0 1 -.07-.47c0-.07 0-.09.09-.09z"/><path d="m38.06 13.16c.21 0 .21 0 .23.23a.3.3 0 0 0 .24.29.12.12 0 0 0 .1 0 .37.37 0 0 0 .18-.42 1.22 1.22 0 0 0 -.24-.43c-.17-.19-.32-.38-.48-.58a1.05 1.05 0 0 1 -.22-.45.81.81 0 0 1 .09-.63.72.72 0 0 1 .82-.29.78.78 0 0 1 .45.44 1.15 1.15 0 0 1 .05.41c0 .06 0 .09-.08.09h-.28c-.07 0-.1 0-.09-.09a.54.54 0 0 0 -.06-.25.22.22 0 0 0 -.2-.17.23.23 0 0 0 -.22.16.47.47 0 0 0 .09.52c.16.17.29.36.46.52a1.32 1.32 0 0 1 .3.44 1 1 0 0 1 .09.56.82.82 0 0 1 -.47.59 1.09 1.09 0 0 1 -.26.05.74.74 0 0 1 -.73-.7c0-.32-.02-.28.23-.29z"/><path d="m47 12.49v-1.49c0-.17 0-.18.17-.18h1c.16 0 .17 0 .17.17 0 .32 0 .29-.29.3h-.47c-.15 0-.17 0-.18.16v.57c0 .14 0 .16.17.16h.26c.08 0 .11 0 .11.12a1.47 1.47 0 0 0 0 .21c0 .11 0 .13-.14.13h-.2c-.08 0-.12 0-.12.12v.76c0 .11 0 .13.15.14h.63c.12 0 .12 0 .13.12v.22c0 .12 0 .14-.15.14h-1.1c-.1 0-.13 0-.13-.13a1 1 0 0 1 0-.17z"/><path d="m31.45 22v-.92a.69.69 0 0 1 .46-.66.68.68 0 0 1 .72.13.75.75 0 0 1 .25.71.07.07 0 0 1 -.08.07h-.32c-.07 0-.09-.05-.09-.12a1.21 1.21 0 0 0 0-.19.17.17 0 0 0 -.15-.16.26.26 0 0 0 -.32.28v1.75a.35.35 0 0 0 .05.2.26.26 0 0 0 .25.11.21.21 0 0 0 .17-.22s0-.11 0-.17a.12.12 0 0 1 .13-.12h.24c.08 0 .12 0 .13.12a.88.88 0 0 1 -.22.65.63.63 0 0 1 -.45.2.68.68 0 0 1 -.52-.16.65.65 0 0 1 -.25-.52z"/><path d="m31.51 12.49c0-.35 0-.7 0-1a.52.52 0 0 1 .16-.35.85.85 0 0 1 .32-.23.75.75 0 0 1 .79.24.9.9 0 0 1 .17.6c0 .06 0 .1-.09.1h-.29a.09.09 0 0 1 -.1-.1.76.76 0 0 0 0-.21.28.28 0 0 0 -.21-.21.3.3 0 0 0 -.26.2.34.34 0 0 0 0 .1v1.8a.25.25 0 0 0 .17.26.23.23 0 0 0 .3-.14.76.76 0 0 0 0-.21c0-.12 0-.13.16-.13h.09c.27 0 .25 0 .24.24a.74.74 0 0 1 -.84.73.75.75 0 0 1 -.6-.64c-.01-.38 0-.72-.01-1.05z"/><path d="m41.89 22v-1.44c0-.15 0-.15.14-.15h1.12c.13 0 .13 0 .13.12v.21c0 .08 0 .12-.11.11h-.73c-.07 0-.1 0-.1.1v.68c0 .07 0 .11.1.1h.34c.07 0 .1 0 .1.1v.17c0 .12 0 .15-.15.15s-.2 0-.3 0-.09 0-.09.1v.81c0 .09 0 .11.12.11h.68c.14 0 .14 0 .14.14 0 .35 0 .29-.29.29h-.89c-.21 0-.21 0-.21-.21z"/></g><path d="m33.51 17.51v1.29c0 .13 0 .13-.13.13s-.25.05-.32 0 0-.21 0-.32v-2.41c0-.08 0-.12-.12-.11h-.26c-.13 0-.14 0-.14-.14 0-.33 0-.33.31-.33h1.07c.14 0 .14 0 .14.13s0 .24 0 .31-.2 0-.3 0-.19 0-.19.2z" fill="#577872"/><path d="m40.65 22.22v-1.22c0-.15 0-.15-.15-.16h-.24c-.07 0-.1 0-.1-.09v-.25c0-.07 0-.1.1-.09h.47.78s.16 0 .16.16v.13c0 .11-.06.15-.17.15h-.24c-.12 0-.12 0-.13.14v2.51c0 .1 0 .13-.14.12h-.16c-.15 0-.18 0-.18-.18z" fill="#76b0a4"/><path d="m29.39 21.79v1.21c0 .17 0 .17.17.18h.63c.09 0 .12 0 .12.12 0 .37 0 .3-.29.31h-.93c-.15 0-.16 0-.16-.15v-2.91c0-.14 0-.14.15-.14s.21 0 .28 0 0 .19 0 .29z" fill="#76b0a4"/><path d="m40.16 17.29v1.51c0 .12 0 .12-.12.13h-.23c-.11 0-.11 0-.12-.13v-3c0-.23 0-.2.19-.2s.28-.05.28.27z" fill="#577872"/><path d="m37 12.48v-1.54a.06.06 0 0 1 .07-.07c.34 0 .37 0 .37.31v2.82a.1.1 0 0 1 -.11.11c-.33 0-.33 0-.33-.31z" fill="#76b0a4"/><path d="m41.35 14.83c.09 0 .13.08.19.14s0 .08 0 .12-.13.17-.19.25-.06.07-.11 0l-.08-.06c-.1-.07-.1-.08 0-.19a.76.76 0 0 1 .2-.27s-.04 0-.01.01z" fill="#577872"/></g></svg>