<svg viewBox="0 0 21.43 15.14" xmlns="http://www.w3.org/2000/svg"><g fill="#002852"><path d="m.58 9a3 3 0 0 1 1.74.5 4 4 0 0 0 2.31.65 4.1 4.1 0 0 0 2.31-.65 3 3 0 0 1 1.74-.5 3 3 0 0 1 1.74.5 4.1 4.1 0 0 0 2.31.65 4.11 4.11 0 0 0 2.32-.65 3 3 0 0 1 1.74-.5 3.06 3.06 0 0 1 1.75.5 4 4 0 0 0 2.31.65.58.58 0 1 0 0-1.15 3 3 0 0 1 -1.74-.5 4.11 4.11 0 0 0 -2.32-.65 4 4 0 0 0 -2.12.54l.06-.16a1.72 1.72 0 0 0 -.33-1.4l-2.59-3.25a2.85 2.85 0 0 0 -2.26-1.1h-6.55a1.78 1.78 0 0 0 -1.8 1.45 1.72 1.72 0 0 0 1.7 2h5.41l-1.51 2.36a3.45 3.45 0 0 0 -.43.23 3 3 0 0 1 -1.74.48 3 3 0 0 1 -1.74-.5 4.1 4.1 0 0 0 -2.31-.63.57.57 0 0 0 -.58.57.58.58 0 0 0 .58.56zm9.2-3.23a.65.65 0 0 0 0-.66.63.63 0 0 0 -.56-.34h-6.32a.56.56 0 0 1 -.56-.67.62.62 0 0 1 .66-.46h6.55a1.72 1.72 0 0 1 1.36.66l2.58 3.26a.53.53 0 0 1 .12.38l-.61 1.06h-.3a3 3 0 0 1 -1.7-.48 4 4 0 0 0 -2.31-.65h-.26z"/><path d="m20.85 11.5a3 3 0 0 1 -1.74-.5 4.45 4.45 0 0 0 -4.63 0 3 3 0 0 1 -1.75.5 3 3 0 0 1 -1.73-.5 4.13 4.13 0 0 0 -2.31-.65 4.18 4.18 0 0 0 -2.32.65 3 3 0 0 1 -1.74.5 3 3 0 0 1 -1.74-.5 4.18 4.18 0 0 0 -2.31-.65.58.58 0 1 0 0 1.15 3 3 0 0 1 1.74.5 4 4 0 0 0 2.31.65 4.1 4.1 0 0 0 2.31-.65 3 3 0 0 1 1.74-.5 3 3 0 0 1 1.74.5 4.1 4.1 0 0 0 2.31.65 4.11 4.11 0 0 0 2.32-.65 3 3 0 0 1 1.74-.5 3.06 3.06 0 0 1 1.75.5 4 4 0 0 0 2.31.65.57.57 0 0 0 .58-.57.58.58 0 0 0 -.58-.58z"/><path d="m20.85 14a3 3 0 0 1 -1.74-.5 4.45 4.45 0 0 0 -4.63 0 3 3 0 0 1 -1.75.5 3 3 0 0 1 -1.74-.5 4.13 4.13 0 0 0 -2.31-.65 4.18 4.18 0 0 0 -2.31.65 3 3 0 0 1 -1.74.5 3 3 0 0 1 -1.74-.5 4.18 4.18 0 0 0 -2.31-.65.58.58 0 0 0 -.58.58.57.57 0 0 0 .58.57 3 3 0 0 1 1.74.51 4.13 4.13 0 0 0 2.31.65 4.18 4.18 0 0 0 2.31-.65 3 3 0 0 1 1.74-.51 3 3 0 0 1 1.74.51 4.18 4.18 0 0 0 2.31.65 4.19 4.19 0 0 0 2.32-.65 3 3 0 0 1 1.74-.51 3.06 3.06 0 0 1 1.75.51 4.13 4.13 0 0 0 2.31.65.58.58 0 0 0 0-1.16z"/><path d="m16.38 6.12a3.06 3.06 0 1 0 -3.06-3.06 3.06 3.06 0 0 0 3.06 3.06zm0-5a1.91 1.91 0 1 1 -1.91 1.91 1.92 1.92 0 0 1 1.91-1.88z"/></g><path d="m9.78 5.79a.65.65 0 0 0 0-.66.63.63 0 0 0 -.56-.34h-6.32a.56.56 0 0 1 -.56-.67.62.62 0 0 1 .66-.48h6.55a1.72 1.72 0 0 1 1.36.66l2.58 3.26a.53.53 0 0 1 .12.38l-.61 1.06h-.3a3 3 0 0 1 -1.7-.48 4 4 0 0 0 -2.31-.65h-.26z" fill="#6fcbdb"/></svg>