<svg viewBox="0 0 18.44 28.68" xmlns="http://www.w3.org/2000/svg"><path d="m2.05 1h14.34a1 1 0 0 1 1 1v6.72h-16.39v-6.67a1 1 0 0 1 1.05-1.05z" fill="#6fcbdb"/><g fill="#002852"><path d="m16.39 0h-14.34a2.05 2.05 0 0 0 -2.05 2.05v24.58a2.05 2.05 0 0 0 2.05 2.05h14.34a2.05 2.05 0 0 0 2.05-2.05v-24.58a2.05 2.05 0 0 0 -2.05-2.05zm-14.34 1h14.34a1 1 0 0 1 1 1v6.72h-16.39v-6.67a1 1 0 0 1 1.05-1.05zm14.34 26.66h-14.34a1 1 0 0 1 -1-1v-16.91h16.4v16.88a1 1 0 0 1 -1.06 1.03z"/><path d="m14.71 12.64h-4.07a.51.51 0 0 0 -.51.51v4.4a.51.51 0 0 0 .51.51h4.07a.51.51 0 0 0 .51-.51v-4.4a.51.51 0 0 0 -.51-.51zm-.51 1v1.43l-1.46-.47a1.1 1.1 0 0 0 -.78 0l-.81.35v-1.29zm-3 3.38v-.91l1.27-.53 1.78.57v.85z"/><path d="m3.35 7.23a.51.51 0 0 0 .51-.51v-3.3a.51.51 0 0 0 -1 0v3.3a.51.51 0 0 0 .49.51z"/><path d="m3.35 11.71a.51.51 0 0 0 -.51.51v3.3a.51.51 0 1 0 1 0v-3.3a.51.51 0 0 0 -.49-.51z"/></g></svg>