<svg viewBox="0 0 13.64 19.63" xmlns="http://www.w3.org/2000/svg"><path d="m6.76 1.3a1.25 1.25 0 1 0 1.24 1.25 1.25 1.25 0 0 0 -1.24-1.25z" fill="#6fcbdb"/><g fill="#002852" stroke="#002852" stroke-miterlimit="10" stroke-width=".43"><path d="m7.87 19.42a1.37 1.37 0 0 1 -1.37-1.37v-5.8l-1.22.91.84.49a.32.32 0 0 1 -.32.56l-1-.6a.51.51 0 0 1 -.25-.41.48.48 0 0 1 .2-.43l1.91-1.43a.32.32 0 0 1 .33 0 .33.33 0 0 1 .18.29v6.45a.73.73 0 0 0 1.46 0v-4.6a.17.17 0 0 1 0-.07v-6.76a.32.32 0 0 1 .14-.27l2.38-1.61a.86.86 0 0 0 .33-.44l.92-2.85a.51.51 0 0 0 -.07-.43.48.48 0 0 0 -.84.15l-.72 2.36a1.26 1.26 0 0 1 -.52.68l-1.85 1.12a.31.31 0 0 1 -.4-.1.32.32 0 0 1 .1-.45l1.8-1.12a.52.52 0 0 0 .24-.32l.72-2.37a1.13 1.13 0 0 1 1.08-.8 1.1 1.1 0 0 1 .9.46 1.14 1.14 0 0 1 .16 1l-.92 2.85a1.55 1.55 0 0 1 -.58.78l-2.24 1.53v6.62a.15.15 0 0 1 0 .07v4.54a1.37 1.37 0 0 1 -1.39 1.37zm-2.48-3.36a.33.33 0 0 1 -.19-.06l-2.54-1.87a1.24 1.24 0 0 1 -.49-.85 1.22 1.22 0 0 1 .28-.93l1.55-1.76a1.7 1.7 0 0 0 .41-1.12v-2.65l-2.27-1.51a1.57 1.57 0 0 1 -.59-.78l-.91-2.85a1.08 1.08 0 0 1 .16-1.01 1.11 1.11 0 0 1 2 .34l.7 2.36a.49.49 0 0 0 .24.32l1.83 1.12a.33.33 0 0 1 .11.45.31.31 0 0 1 -.44.1l-1.84-1.12a1.21 1.21 0 0 1 -.52-.68l-.72-2.37a.48.48 0 1 0 -.91.29l.92 2.85a.81.81 0 0 0 .33.44l2.38 1.61a.32.32 0 0 1 .12.27v2.82a2.37 2.37 0 0 1 -.55 1.53l-1.45 1.77a.55.55 0 0 0 -.14.44.59.59 0 0 0 .23.4l2.54 1.87a.31.31 0 0 1 .07.45.33.33 0 0 1 -.31.13z"/><path d="m5.89 16.21a1.2 1.2 0 0 1 -.67-.21l-.22-.12a.32.32 0 0 1 -.09-.45.33.33 0 0 1 .45-.1l.19.13a.58.58 0 0 0 .61 0 .58.58 0 0 0 .34-.46.62.62 0 0 0 -.3-.52l-.76-.48a.33.33 0 0 1 .33-.56l.76.45a1.26 1.26 0 0 1 .61 1.11 1.22 1.22 0 0 1 -.65 1.09 1.28 1.28 0 0 1 -.6.12z"/><path d="m6.82 4.21a1.67 1.67 0 1 1 1.67-1.66 1.67 1.67 0 0 1 -1.67 1.66zm0-3.08a1.42 1.42 0 1 0 1.42 1.42 1.42 1.42 0 0 0 -1.42-1.42z"/><path d="m13.1 19.42h-12.56a.32.32 0 0 1 -.33-.32.33.33 0 0 1 .33-.33h12.56a.33.33 0 0 1 .33.33.32.32 0 0 1 -.33.32z"/></g></svg>