<svg viewBox="0 0 29.18 29.18" xmlns="http://www.w3.org/2000/svg"><path d="m15.68 10.15h4.11v6.25h-4.11z" fill="#6fcbdb"/><g fill="#002852"><path d="m22.28 29.18a2.41 2.41 0 1 1 2.41-2.41 2.41 2.41 0 0 1 -2.41 2.41zm0-3.85a1.45 1.45 0 1 0 1.45 1.44 1.45 1.45 0 0 0 -1.45-1.44z"/><path d="m13.31 29.18a2.41 2.41 0 1 1 2.4-2.41 2.41 2.41 0 0 1 -2.4 2.41zm0-3.85a1.45 1.45 0 1 0 1.44 1.44 1.45 1.45 0 0 0 -1.44-1.44z"/><path d="m24.85 23.41h-14.11a.48.48 0 0 1 -.43-.28l-6.31-13.19h-3.52a.49.49 0 0 1 -.48-.48.48.48 0 0 1 .48-.46h3.85a.47.47 0 0 1 .43.27l6.29 13.19h13.47l3.73-9.94a.48.48 0 0 1 .9.33l-3.85 10.24a.48.48 0 0 1 -.45.32z"/><path d="m24.21 17a.47.47 0 0 1 -.48-.48v-9.43l-5.93-5.93-5.94 5.93v9.42a.47.47 0 0 1 -.48.48.48.48 0 0 1 -.48-.48v-8.46l-1.1 1.11a.48.48 0 0 1 -.68-.68l8.34-8.34a.48.48 0 0 1 .68 0l8.33 8.34a.48.48 0 0 1 -.68.68l-1.1-1.11v8.46a.48.48 0 0 1 -.48.49zm-4.49 0a.47.47 0 0 1 -.48-.48v-5.94h-2.89v5.93a.47.47 0 0 1 -.48.48.48.48 0 0 1 -.48-.48v-6.41a.48.48 0 0 1 .48-.48h3.85a.47.47 0 0 1 .48.48v6.41a.47.47 0 0 1 -.48.49z"/><path d="m27.09 17h-19.23a.48.48 0 0 1 -.49-.48.49.49 0 0 1 .49-.52h19.23a.49.49 0 0 1 .49.48.48.48 0 0 1 -.49.52z"/></g><path d="m13.31 25.33a1.45 1.45 0 1 0 1.44 1.44 1.45 1.45 0 0 0 -1.44-1.44z" fill="#6fcbdb"/><path d="m22.28 25.33a1.45 1.45 0 1 0 1.45 1.44 1.45 1.45 0 0 0 -1.45-1.44z" fill="#6fcbdb"/></svg>