<svg viewBox="0 0 24.91 24.35" xmlns="http://www.w3.org/2000/svg"><g fill="none" stroke-width=".92"><path d="m17.65 17.59 4.79-1a1.09 1.09 0 0 1 1.23.58 1.05 1.05 0 0 1 -.61 1.26l-8.36 3.5a13.43 13.43 0 0 1 -4.44.74 10.48 10.48 0 0 1 -2.73-.34l-1-.28" stroke="#002852" stroke-linecap="round" stroke-linejoin="round"/><path d="m6.58 22.66-1.83 1.23-4.29-7.96 1.84-1.22z" stroke="#002852" stroke-linecap="round" stroke-linejoin="round"/><path d="m10.26 19h5.81a1.53 1.53 0 0 0 1.54-1.53 1.53 1.53 0 0 0 -1.54-1.53h-4l-.52-.39a7.21 7.21 0 0 0 -4.33-1.45 7.07 7.07 0 0 0 -2.87.6l-1.46.63" stroke="#002852" stroke-linecap="round" stroke-linejoin="round"/></g><path d="m15.93 8.24h3.24v5.78h-3.24z" fill="#6fcbdb"/><path d="m22.74 14.12a.39.39 0 0 1 -.39-.4v-7.72l-4.86-4.85-4.86 4.85v7.71a.4.4 0 1 1 -.79 0v-6.91l-.9.9a.4.4 0 0 1 -.56-.56l6.83-6.83a.4.4 0 0 1 .56 0l6.82 6.83a.39.39 0 0 1 0 .56.39.39 0 0 1 -.55 0l-.91-.9v6.92a.39.39 0 0 1 -.39.4zm-3.68 0a.4.4 0 0 1 -.39-.4v-4.86h-2.36v4.86a.4.4 0 0 1 -.4.4.39.39 0 0 1 -.39-.4v-5.25a.38.38 0 0 1 .39-.39h3.15a.39.39 0 0 1 .4.39v5.25a.4.4 0 0 1 -.4.4z" fill="#002852" stroke="#002852" stroke-miterlimit="10" stroke-width=".4"/><path d="m12.25 13.93h10.65" fill="#002852" stroke="#002852" stroke-linecap="round" stroke-linejoin="round" stroke-width=".78"/></svg>