<svg viewBox="0 0 18.41 14.77" xmlns="http://www.w3.org/2000/svg"><g stroke="#002852" stroke-linecap="round" stroke-linejoin="round"><path d="m12.6 10 3.4-.78a.77.77 0 0 1 .88.41.76.76 0 0 1 -.44.9l-6 2.51a9.22 9.22 0 0 1 -3.17.53 7.47 7.47 0 0 1 -1.94-.24l-.68-.2" fill="none" stroke-width=".66"/><path d="m4.7 13.57-1.31.88-3.06-5.69 1.31-.87z" fill="none" stroke-width=".66"/><path d="m7.32 11h4.16a1.09 1.09 0 0 0 1.09-1.1 1.09 1.09 0 0 0 -1.09-1.09h-2.85l-.37-.28a5.15 5.15 0 0 0 -3.09-1 5.12 5.12 0 0 0 -2 .42l-1 .45" fill="none" stroke-width=".66"/><g fill="#002852" stroke-width=".28"><path d="m12.12 7.35a18.61 18.61 0 0 1 -2.55-.15c-.91-.12-1.26-.29-1.26-.59v-3.61a.23.23 0 0 1 .11-.2.24.24 0 0 1 .23 0l3.47 1.3 3.47-1.32a.24.24 0 0 1 .23 0 .23.23 0 0 1 .11.2v3.6c0 .3-.35.47-1.26.59a18.61 18.61 0 0 1 -2.55.18zm-3.31-.83a10.79 10.79 0 0 0 3.31.33 10.73 10.73 0 0 0 3.31-.33v-3.15l-3.22 1.23a.28.28 0 0 1 -.18 0l-3.22-1.23z"/><path d="m12.12 4.62-.12-.02-5.22-2a.25.25 0 0 1 -.16-.23.24.24 0 0 1 .16-.23l5.22-1.98a.28.28 0 0 1 .18 0l5.22 2a.24.24 0 0 1 .16.23.25.25 0 0 1 -.16.23l-5.22 2zm-4.52-2.24 4.52 1.72 4.52-1.72-4.52-1.72z"/><path d="m17.34 4.37a.25.25 0 0 1 -.25-.25v-1.49h-4.72a.25.25 0 0 1 0-.5h5a.25.25 0 0 1 .25.25v1.74a.25.25 0 0 1 -.28.25z"/><path d="m17.34 7.6a1 1 0 0 1 -.69-.3.92.92 0 0 1 -.23-.71l.18-2a.74.74 0 0 1 .74-.73.75.75 0 0 1 .75.73l.18 2a.93.93 0 0 1 -.93 1zm0-3.23a.25.25 0 0 0 -.25.25l-.18 2a.44.44 0 0 0 .09.38.44.44 0 0 0 .64 0 .44.44 0 0 0 .11-.33l-.18-2a.25.25 0 0 0 -.23-.3z"/></g></g></svg>