<svg viewBox="0 0 67.41 36.33" xmlns="http://www.w3.org/2000/svg" xmlns:xlink="http://www.w3.org/1999/xlink"><clipPath id="a" transform="translate(8.57 6.2)"><path d="m9.55 3.62a5.38 5.38 0 0 0 -2.18.49 6.23 6.23 0 0 0 -1.77 1.2 6.87 6.87 0 0 0 -1.3 1.75 6.68 6.68 0 0 0 -.72 2.14 2.34 2.34 0 0 0 0 .26.13.13 0 0 0 0 .06v.25a1.85 1.85 0 0 0 0 .23s0 0 0 .05v.55.23.06.24.23.06.23a1.6 1.6 0 0 0 0 .21v.14a.14.14 0 0 1 0 .06 1.87 1.87 0 0 0 .07.22v.1a1.18 1.18 0 0 0 .07.2v.09l.28.33c0 .09.08.18.13.27s0 0 0 0v.06l.06.12v.07a.41.41 0 0 0 0 .09l.12.19v.07l.18.25a1.56 1.56 0 0 0 .16.2l.11.12.17.17.13.13.15.13.18.14h.06l.16.11.18.11.17.1h.07l.2.09.23.09h.06l.18.06h.07l.25.07a4.86 4.86 0 0 0 .55.11 5.06 5.06 0 0 0 1.1 0 5 5 0 0 0 .56-.07l4.41-.84h-.36-.41a3 3 0 0 1 -.42 0l-.41-.06h-.19-.05-.14l.34.22h-.2-.05l-.13-.06-.16-.08-.13-.08-.14-.1-.14-.09-.19-.16-.15-.14-.05-.05-.13-.14-.14-.17a.21.21 0 0 1 0-.06.64.64 0 0 1 -.1-.13v-.06l-.09-.13v-.06l-.11-.19-.09-.18a.14.14 0 0 1 0-.07.35.35 0 0 1 -.06-.14v-.07l-.06-.16s0 0 0-.05l-.06-.22a.06.06 0 0 0 0 0 1.16 1.16 0 0 0 0-.18s0-.05 0-.07v-.15-.08a1.1 1.1 0 0 1 0-.18s0 0 0 0 0-.15 0-.22v-.53s0-.05 0-.08 0-.11 0-.16a.17.17 0 0 1 0-.07 2 2 0 0 1 0-.24 4.52 4.52 0 0 1 .53-1.51 4.3 4.3 0 0 1 1-1.2 4.4 4.4 0 0 1 1.37-.8 4.33 4.33 0 0 1 1.65-.25 3.5 3.5 0 0 1 .66.09 3.26 3.26 0 0 1 .63.18 4.53 4.53 0 0 1 .59.28 3.61 3.61 0 0 1 .51.36l-3.9-2.85a4.58 4.58 0 0 0 -.74-.5 3.84 3.84 0 0 0 -.8-.36 4.82 4.82 0 0 0 -.85-.22 4.47 4.47 0 0 0 -.82-.07h-.07"/></clipPath><linearGradient id="b" gradientTransform="matrix(0 81.63 -81.63 0 -50102.46 -6949.54)" gradientUnits="userSpaceOnUse" x1="85.18" x2="85.34" y1="-613.92" y2="-613.92"><stop offset="0" stop-color="#d44627"/><stop offset=".24" stop-color="#de5d26"/><stop offset=".74" stop-color="#f08823"/><stop offset="1" stop-color="#f79922"/></linearGradient><clipPath id="c" transform="translate(8.57 6.2)"><path d="m15.44 17.8-1.54 6.06 3.33-3.61 1.02-3.96z"/></clipPath><linearGradient id="d" gradientTransform="matrix(0 41.75 -41.75 0 -25044.1 -3633.98)" gradientUnits="userSpaceOnUse" x1="87.4" x2="87.56" y1="-600.24" y2="-600.24"><stop offset="0" stop-color="#a31e23"/><stop offset=".32" stop-color="#a31e23"/><stop offset=".5" stop-color="#c84426"/><stop offset=".6" stop-color="#d75427"/><stop offset=".76" stop-color="#e57f24"/><stop offset=".87" stop-color="#f0a121"/><stop offset=".89" stop-color="#f3b318"/><stop offset=".93" stop-color="#fbe101"/><stop offset=".93" stop-color="#fbe300"/><stop offset=".95" stop-color="#fbdb04"/><stop offset=".97" stop-color="#fac50e"/><stop offset="1" stop-color="#faa91c"/></linearGradient><clipPath id="e" transform="translate(8.57 6.2)"><path d="m18.71 5.72a9.56 9.56 0 0 1 .46 1.63 10.43 10.43 0 0 1 .19 1.78 10.72 10.72 0 0 1 -.13 1.87 10.57 10.57 0 0 1 -.5 2 11.79 11.79 0 0 1 -.84 1.84 12.09 12.09 0 0 1 -1.11 1.61 11.22 11.22 0 0 1 -1.34 1.33l2.81-1.51a7.4 7.4 0 0 0 .89-.88 7.8 7.8 0 0 0 .74-1 7.15 7.15 0 0 0 .55-1.19 8 8 0 0 0 .32-1.3 7 7 0 0 0 .08-1.2 7.23 7.23 0 0 0 -.13-1.15 6.51 6.51 0 0 0 -.31-1.09 8.09 8.09 0 0 0 -.48-1l-1.91-3.21a9.07 9.07 0 0 1 .71 1.47"/></clipPath><linearGradient id="f" gradientTransform="matrix(-36.77 77.09 83.85 33.8 55388.4 14239.78)" gradientUnits="userSpaceOnUse" x1="88.02" x2="88.18" y1="-621.65" y2="-621.65"><stop offset="0" stop-color="#d44627"/><stop offset=".09" stop-color="#d95927"/><stop offset=".25" stop-color="#e17527"/><stop offset=".34" stop-color="#e48027"/><stop offset=".41" stop-color="#e47027"/><stop offset=".55" stop-color="#e44728"/><stop offset=".57" stop-color="#e44128"/><stop offset=".63" stop-color="#e77825"/><stop offset=".67" stop-color="#e99523"/><stop offset=".85" stop-color="#ecab22"/><stop offset=".9" stop-color="#f0bb18"/><stop offset="1" stop-color="#fbe300"/></linearGradient><clipPath id="g" transform="translate(8.57 6.2)"><path d="m18.71 5.72a9.56 9.56 0 0 1 .46 1.63 10.43 10.43 0 0 1 .19 1.78v.2a10.5 10.5 0 0 1 -.13 1.67 10.57 10.57 0 0 1 -.5 2 11.79 11.79 0 0 1 -.84 1.84 12.09 12.09 0 0 1 -1.11 1.61 11.22 11.22 0 0 1 -1.34 1.33l2.81-1.51a7.4 7.4 0 0 0 .89-.88 7.8 7.8 0 0 0 .74-1 7.15 7.15 0 0 0 .55-1.19 8 8 0 0 0 .32-1.3 7.54 7.54 0 0 0 .08-1.05v-.15a7.23 7.23 0 0 0 -.13-1.15 6.51 6.51 0 0 0 -.31-1.09 8.09 8.09 0 0 0 -.48-1l-1.91-3.21a9.07 9.07 0 0 1 .71 1.47"/></clipPath><linearGradient id="h" gradientTransform="matrix(-36.79 77.15 83.91 33.83 55430.35 14251.06)" x1="88.02" x2="88.18" xlink:href="#f" y1="-621.65" y2="-621.65"/><clipPath id="i" transform="translate(8.57 6.2)"><path d="m7.56 16a5 5 0 0 1 -2-1 5.65 5.65 0 0 1 -1.34-1.61 6.5 6.5 0 0 1 -.69-2 7 7 0 0 1 0-2.24 6.68 6.68 0 0 1 .77-2.09 6.87 6.87 0 0 1 1.3-1.75 6.23 6.23 0 0 1 1.8-1.22 5.38 5.38 0 0 1 2.18-.49 5 5 0 0 1 2.22.48 5.32 5.32 0 0 1 1.81 1.43 5.89 5.89 0 0 1 1.12 2.22 6.86 6.86 0 0 1 .13 2.76 7.22 7.22 0 0 1 -1 2.65 6.83 6.83 0 0 1 -1.78 1.92 6 6 0 0 1 -2.22 1 5.76 5.76 0 0 1 -1.09.11 5.17 5.17 0 0 1 -1.21-.17m2.59-15.9a9 9 0 0 0 -3.38 1 10.13 10.13 0 0 0 -2.67 2 11.12 11.12 0 0 0 -1.9 2.63 11.26 11.26 0 0 0 -1.06 3.2 11 11 0 0 0 0 3.33 9.86 9.86 0 0 0 1 3.05 8.93 8.93 0 0 0 1.86 2.58 8.18 8.18 0 0 0 3 1.74c.2.07.4.12.6.17s.41.1.61.13l.59.07h.63l4.47 3.82 1.54-6.06a11.22 11.22 0 0 0 1.34-1.33 12.09 12.09 0 0 0 1.11-1.61 11.79 11.79 0 0 0 .84-1.82 10.57 10.57 0 0 0 .5-2 10.43 10.43 0 0 0 -.31-4.65 9.07 9.07 0 0 0 -2-3.6 8.28 8.28 0 0 0 -3.16-2.14 8.18 8.18 0 0 0 -2.92-.54q-.35 0-.69 0"/></clipPath><linearGradient id="j" gradientTransform="matrix(-70.23 147.25 160.15 64.57 105381.04 28150.55)" gradientUnits="userSpaceOnUse" x1="81.64" x2="81.8" y1="-622.05" y2="-622.05"><stop offset="0" stop-color="#fbe300"/><stop offset=".15" stop-color="#fada03"/><stop offset=".4" stop-color="#f8c10b"/><stop offset=".71" stop-color="#f59917"/><stop offset="1" stop-color="#f26d25"/></linearGradient><clipPath id="k" transform="translate(8.57 6.2)"><path d="m7.77 16.1h.05z"/></clipPath><linearGradient id="l" gradientTransform="matrix(0 83.97 -83.97 0 -51965.13 -7336.84)" gradientUnits="userSpaceOnUse" x1="87.5" x2="87.66" y1="-619.07" y2="-619.07"><stop offset="0" stop-color="#87231b"/><stop offset=".3" stop-color="#b86825"/><stop offset=".46" stop-color="#ce882a"/><stop offset=".5" stop-color="#da7f28"/><stop offset=".56" stop-color="#f26d25"/><stop offset=".6" stop-color="#ea8b26"/><stop offset=".65" stop-color="#e0ae27"/><stop offset=".65" stop-color="#e2b232"/><stop offset=".67" stop-color="#e8c25c"/><stop offset=".69" stop-color="#edd183"/><stop offset=".71" stop-color="#f2dda5"/><stop offset=".74" stop-color="#f6e8c1"/><stop offset=".76" stop-color="#f9f0d8"/><stop offset=".79" stop-color="#fcf7ea"/><stop offset=".83" stop-color="#fefcf6"/><stop offset=".88" stop-color="#fffefd"/><stop offset="1" stop-color="#fff"/></linearGradient><clipPath id="m" transform="translate(8.57 6.2)"><path d="m7.6 16a5 5 0 0 1 -1.95-1 5.42 5.42 0 0 1 -1.33-1.6 6 6 0 0 1 -.68-2 6.56 6.56 0 0 1 0-2.21 7.22 7.22 0 0 1 .71-2.13 7 7 0 0 1 1.3-1.73 6.48 6.48 0 0 1 1.76-1.2 5.5 5.5 0 0 1 2.17-.48 5.08 5.08 0 0 1 2.2.47 5.25 5.25 0 0 1 1.8 1.42 5.91 5.91 0 0 1 1.11 2.21 6.76 6.76 0 0 1 .12 2.74 7 7 0 0 1 -1 2.62 6.62 6.62 0 0 1 -1.74 1.89 5.82 5.82 0 0 1 -2.2 1 5.57 5.57 0 0 1 -1.08.11 5.09 5.09 0 0 1 -1.22-.11m2-12.4a5.6 5.6 0 0 0 -2.19.49 6.47 6.47 0 0 0 -1.8 1.23 6.73 6.73 0 0 0 -1.3 1.73 7 7 0 0 0 -.73 2.15 6.74 6.74 0 0 0 0 2.24 6.22 6.22 0 0 0 .69 2 5.56 5.56 0 0 0 1.35 1.62 5.14 5.14 0 0 0 2 1 5.24 5.24 0 0 0 2.33 0 5.67 5.67 0 0 0 2.23-1 6.63 6.63 0 0 0 1.79-1.93 7 7 0 0 0 1-2.66 6.73 6.73 0 0 0 -.13-2.77 5.94 5.94 0 0 0 -1.12-2.23 5.29 5.29 0 0 0 -1.82-1.44 5.1 5.1 0 0 0 -2.17-.48z"/></clipPath><linearGradient id="n" gradientTransform="matrix(0 102.38 -102.38 0 -63427.84 -8723.06)" x1="85.28" x2="85.44" xlink:href="#l" y1="-619.7" y2="-619.7"/><clipPath transform="translate(8.57 6.2)"/><clipPath id="o" transform="translate(8.57 6.2)"><path d="m7.71 16.09h-.1z"/></clipPath><linearGradient id="p" gradientTransform="matrix(0 101.72 -101.72 0 -63022.69 -8673.01)" x1="85.35" x2="85.5" xlink:href="#l" y1="-619.76" y2="-619.76"/><clipPath id="q" transform="translate(8.57 6.2)"><path d="m.94 0h18.46v12.81h-18.46z"/></clipPath><clipPath id="r" transform="translate(8.57 6.2)"><path d="m10.78.07h-.63a9 9 0 0 0 -3.38 1 10.13 10.13 0 0 0 -2.67 2 11.12 11.12 0 0 0 -1.9 2.66 11.26 11.26 0 0 0 -1.06 3.2 10.71 10.71 0 0 0 -.06 3.24 15.73 15.73 0 0 0 2.92.64 6.5 6.5 0 0 1 -.39-1.37 7 7 0 0 1 0-2.24 6.68 6.68 0 0 1 .69-2.14 6.87 6.87 0 0 1 1.3-1.75 6.23 6.23 0 0 1 1.8-1.22 5.38 5.38 0 0 1 2.18-.49 5 5 0 0 1 2.22.48 5.32 5.32 0 0 1 1.81 1.43 5.89 5.89 0 0 1 1.12 2.22 6.86 6.86 0 0 1 .13 2.76 7 7 0 0 1 -.37 1.4 21.57 21.57 0 0 0 4.85-2c0-.16 0-.32 0-.48v-.12a10.57 10.57 0 0 0 -.44-2.95 9.07 9.07 0 0 0 -2-3.6 8.17 8.17 0 0 0 -6-2.67z"/></clipPath><linearGradient id="s" gradientTransform="matrix(0 139.46 -139.46 0 -86517.55 -11500.28)" gradientUnits="userSpaceOnUse" x1="82.5" x2="82.66" y1="-620.52" y2="-620.52"><stop offset="0" stop-color="#020202"/><stop offset=".09" stop-color="#0a0a0a"/><stop offset=".22" stop-color="#212121"/><stop offset=".39" stop-color="#464646"/><stop offset=".58" stop-color="#797979"/><stop offset=".8" stop-color="#bababa"/><stop offset="1" stop-color="#fff"/></linearGradient><clipPath id="t" transform="translate(8.57 6.2)"><path d="m2.03 12.38h16.99v15.79h-16.99z"/></clipPath><clipPath id="u" transform="translate(8.57 6.2)"><path d="m4.66 18.45a8.13 8.13 0 0 0 2.34 1.18c.2.07.4.12.6.17s.41.1.61.13l.59.07h.63l4.47 3.82 1.54-6.06a11.13 11.13 0 0 0 .94-.88 23.5 23.5 0 0 0 -3.32-.23 18.41 18.41 0 0 0 -8.4 1.76"/></clipPath><linearGradient id="v" gradientTransform="matrix(0 65.87 -65.87 0 -40304.83 -5701.71)" gradientUnits="userSpaceOnUse" x1="86.8" x2="86.96" y1="-612.06" y2="-612.06"><stop offset="0" stop-color="#fff"/><stop offset=".09" stop-color="#f2f2f2"/><stop offset=".26" stop-color="#d0d0d0"/><stop offset=".48" stop-color="#989898"/><stop offset=".75" stop-color="#4d4d4d"/><stop offset="1" stop-color="#020202"/></linearGradient><clipPath id="w" transform="translate(8.57 6.2)"><path d="m0 1.48h15.77v15.94h-15.77z"/></clipPath><clipPath id="x" transform="translate(8.57 6.2)"><path d="m5.6 5.31a6.87 6.87 0 0 0 -1.3 1.75 6.68 6.68 0 0 0 -.72 2.14 2.34 2.34 0 0 0 0 .26.13.13 0 0 0 0 .06v.25a1.85 1.85 0 0 0 0 .23s0 0 0 .05v.55.23.05.25.23.06.23a1.6 1.6 0 0 0 0 .21v.14a.14.14 0 0 1 0 .06 1.87 1.87 0 0 0 .07.22v.1a1.18 1.18 0 0 0 .07.2v.09l.28.33c0 .09.08.18.13.27s0 0 0 0v.06l.06.12v.07a.41.41 0 0 0 0 .09l.12.19v.07l.18.25 5.41-.51-.08-.11v-.06l-.09-.13v-.06l-.11-.19-.09-.18a.14.14 0 0 1 0-.07.35.35 0 0 1 -.06-.14v-.07l-.06-.16s0 0 0-.05l-.06-.22a.06.06 0 0 0 0 0 1.16 1.16 0 0 0 0-.18s0-.05 0-.07v-.15-.08a1.1 1.1 0 0 1 0-.18s0 0 0 0 0-.15 0-.22v-.29s0-.05 0-.08 0-.11 0-.16a.17.17 0 0 1 0-.07 2 2 0 0 1 0-.24 4.52 4.52 0 0 1 .53-1.51 4.3 4.3 0 0 1 1-1.2 4.4 4.4 0 0 1 1.37-.8l-6-2.22a7.93 7.93 0 0 0 -.71.59"/></clipPath><linearGradient id="y" gradientTransform="matrix(0 61.38 -61.38 0 -37498.79 -5439.34)" gradientUnits="userSpaceOnUse" x1="88.69" x2="88.85" y1="-611.1" y2="-611.1"><stop offset="0" stop-color="#020202"/><stop offset=".31" stop-color="#4a4a4a"/><stop offset="1" stop-color="#f7f7f7"/></linearGradient><clipPath id="z" transform="translate(8.57 6.2)"><path d="m7 8.78 1.36.29c.15-1.29.67-2 1.55-2l-1.36-.3c-.88.06-1.4.73-1.55 2"/></clipPath><clipPath id="A" transform="translate(8.57 6.2)"><path d="m8.56 6.75 1.36.3a2.38 2.38 0 0 1 .39 0l-1.31-.28a1.39 1.39 0 0 0 -.3 0h-.14"/></clipPath><clipPath id="B" transform="translate(8.57 6.2)"><path d="m7.56 12.28a2.1 2.1 0 0 0 .81.42l1.35.3a1.91 1.91 0 0 1 -.8-.41 2.46 2.46 0 0 1 -.64-1.8l-1.36-.3a2.46 2.46 0 0 0 .64 1.8"/></clipPath><clipPath id="C" transform="translate(8.57 6.2)"><path d="m10.9 5.39a3.9 3.9 0 0 1 1.29 2 9.15 9.15 0 0 1 .35 2.72l1.36.3a9.15 9.15 0 0 0 -.35-2.72 3.92 3.92 0 0 0 -1.29-2 3 3 0 0 0 -1.26-.6l-1.36-.3a3 3 0 0 1 1.24.6"/></clipPath><clipPath id="D" transform="translate(8.57 6.2)"><path d="m8.74 14.69h-.1a4.93 4.93 0 0 1 -1.24-.09l1.36.3a4.93 4.93 0 0 0 1.24.1h.1a4.25 4.25 0 0 0 3.69-2.59l-1.36-.3a4.25 4.25 0 0 1 -3.69 2.59"/></clipPath><g clip-path="url(#a)"><path d="m1.49 1.55h16.83v16.68h-16.83z" fill="url(#b)" transform="matrix(.91580284 -.40162813 .40162813 .91580284 5.44 11.01)"/></g><g clip-path="url(#c)"><path d="m11.94 15.8h8.28v8.55h-8.28z" fill="url(#d)" transform="matrix(.74779809 -.66392621 .66392621 .74779809 -.7 21.93)"/></g><g clip-path="url(#e)"><path d="m34.83 12.63-6.29 13.19-9.94-4.01 6.29-13.19z" fill="url(#f)"/></g><g clip-path="url(#g)"><path d="m34.82 12.63-6.29 13.19-9.93-4.01 6.29-13.19z" fill="url(#h)"/></g><g clip-path="url(#i)"><path d="m37.57 10.11-12.5 26.22-25.07-10.11 12.51-26.22z" fill="url(#j)"/></g><g clip-path="url(#k)"><path d="m16.34 22.3h.05v.01h-.05z" fill="url(#l)"/></g><g clip-path="url(#m)"><path d="m12 9.77h11.61v12.67h-11.61z" fill="url(#n)"/></g><g clip-path="url(#o)"><path d="m16.16 22.25h.12v.03h-.12z" fill="url(#p)"/></g><g clip-path="url(#q)" opacity=".53"><g clip-path="url(#r)"><path d="m9.51 6.27h18.42v12.73h-18.42z" fill="url(#s)"/></g></g><g clip-path="url(#t)" opacity=".42"><g clip-path="url(#u)"><path d="m3.72 14.64h13.61v11.27h-13.61z" fill="url(#v)" transform="matrix(.91580284 -.40162813 .40162813 .91580284 1.32 12.13)"/></g></g><g clip-path="url(#w)" opacity=".29"><g clip-path="url(#x)"><path d="m1.95 3.35h11.87v12.2h-11.87z" fill="url(#y)" transform="matrix(.91580284 -.40162813 .40162813 .91580284 5.44 10.16)"/></g></g><path d="m5.71 3.34a.37.37 0 0 0 .1-.44c-.3-.35-.91.08-1 .62 0 .11 0 .23.11.27s.39-.26.64-.37l.19-.08" fill="#fff" transform="translate(8.57 6.2)"/><path d="m6.56 2.45a.16.16 0 0 0 .08-.17c-.1-.18-.4 0-.5.18a.11.11 0 0 0 0 .12c.08.06.18-.08.3-.1h.09" fill="#fff" transform="translate(8.57 6.2)"/><path d="m8.53 6.75 1.36.3c-.88.06-1.4.73-1.55 2l-1.34-.27c.15-1.3.67-2 1.55-2" fill="#a41e24" transform="translate(8.57 6.2)"/><g clip-path="url(#z)" fill="#941c1f"><path d="m8.53 6.75 1.36.3a1.59 1.59 0 0 0 -.38.07l-1.36-.3a1.59 1.59 0 0 1 .38-.07" transform="translate(8.57 6.2)"/><path d="m8.15 6.82 1.36.3a1.26 1.26 0 0 0 -.44.24l-1.36-.29a1.07 1.07 0 0 1 .44-.25" transform="translate(8.57 6.2)"/><path d="m7.71 7.06 1.36.3a1.64 1.64 0 0 0 -.32.37l-1.36-.3a1.64 1.64 0 0 1 .32-.37" transform="translate(8.57 6.2)"/><path d="m7.39 7.43 1.36.3a3.07 3.07 0 0 0 -.4 1.27l-1.35-.32a3.07 3.07 0 0 1 .4-1.25" transform="translate(8.57 6.2)"/><path d="m7 8.68 1.35.32a.28.28 0 0 0 0 .09l-1.35-.31a.31.31 0 0 1 0-.1" transform="translate(8.57 6.2)"/></g><path d="m9 6.77 1.36.3a2.38 2.38 0 0 0 -.39 0l-1.36-.3a1.64 1.64 0 0 1 .39 0" fill="#a41e24" transform="translate(8.57 6.2)"/><g clip-path="url(#A)"><path d="m9 6.77 1.36.3h-.1l-1.36-.3z" fill="#a41e24" transform="translate(8.57 6.2)"/><path d="m8.85 6.76 1.36.3a1.37 1.37 0 0 0 -.29 0l-1.36-.3a.93.93 0 0 1 .29 0" fill="#941c1f" transform="translate(8.57 6.2)"/></g><path d="m9.73 13-1.36-.3a2.1 2.1 0 0 1 -.81-.42 2.46 2.46 0 0 1 -.64-1.8l1.36.3a2.46 2.46 0 0 0 .64 1.8 2.1 2.1 0 0 0 .81.42" fill="#a41e24" transform="translate(8.57 6.2)"/><g clip-path="url(#B)"><g fill="#941c1f"><path d="m6.92 10.47 1.36.3a2.83 2.83 0 0 0 .44 1.58l-1.36-.3a2.83 2.83 0 0 1 -.44-1.58" transform="translate(8.57 6.2)"/><path d="m7.36 12.05 1.36.3a2.09 2.09 0 0 0 .2.22h.08l-1.36-.3-.08-.05a2.09 2.09 0 0 1 -.2-.22" transform="translate(8.57 6.2)"/><path d="m7.64 12.32 1.36.3a1.92 1.92 0 0 0 .42.26l-1.36-.3a1.92 1.92 0 0 1 -.42-.26" transform="translate(8.57 6.2)"/></g><path d="m8.06 12.58 1.36.3a2.33 2.33 0 0 0 .31.11l-1.36-.3a1.92 1.92 0 0 1 -.31-.11" fill="#a41e24" transform="translate(8.57 6.2)"/></g><path d="m21.11 16.27 1.37.3-5.62.4-1.36-.3z" fill="#941c1f"/><path d="m9.66 4.79 1.36.3a3 3 0 0 1 1.24.6 3.92 3.92 0 0 1 1.29 2 9.15 9.15 0 0 1 .35 2.72l-1.36-.3a9.15 9.15 0 0 0 -.35-2.72 3.9 3.9 0 0 0 -1.29-2 3 3 0 0 0 -1.24-.6" fill="#a41e24" transform="translate(8.57 6.2)"/><g clip-path="url(#C)"><path d="m13.55 7.66a3.78 3.78 0 0 0 -.65-1.3 3.69 3.69 0 0 0 -.64-.67 3.18 3.18 0 0 0 -.64-.38 2.53 2.53 0 0 0 -.62-.22l-1.36-.3a2.72 2.72 0 0 1 .55.18 3.18 3.18 0 0 1 .64.38h.05a3.87 3.87 0 0 1 1.29 2 9.15 9.15 0 0 1 .35 2.72l1.36.3a9.15 9.15 0 0 0 -.35-2.72" fill="#941c1f" transform="translate(8.57 6.2)"/></g><path d="m8.82 12.72a2.63 2.63 0 0 0 1.75-1.25l1.86.63a4.25 4.25 0 0 1 -3.69 2.59h-.1a3.56 3.56 0 0 1 -3-1.12 4.89 4.89 0 0 1 -1.09-3.41 6.24 6.24 0 0 1 1.17-3.76 4 4 0 0 1 3-1.68h.07a3 3 0 0 1 2.16.67 3.9 3.9 0 0 1 1.29 2 9.15 9.15 0 0 1 .35 2.72l-5.62.39a2.46 2.46 0 0 0 .64 1.8 1.78 1.78 0 0 0 1.23.45m-.29-6c-.88.06-1.4.73-1.55 2l3.15-.23a2.53 2.53 0 0 0 -.48-1.32 1.19 1.19 0 0 0 -1.09-.48" fill="#ea2629" transform="translate(8.57 6.2)"/><path d="m8.76 14.91-1.36-.3a4.93 4.93 0 0 0 1.24.09h.1a4.25 4.25 0 0 0 3.69-2.59l1.36.3a4.25 4.25 0 0 1 -3.69 2.59h-.1a4.93 4.93 0 0 1 -1.24-.09" fill="#a41e24" transform="translate(8.57 6.2)"/><g clip-path="url(#D)"><g fill="#941c1f"><path d="m12.43 12.1 1.36.3a4.83 4.83 0 0 1 -.3.55l-1.36-.3a4.1 4.1 0 0 0 .3-.55" transform="translate(8.57 6.2)"/><path d="m12.13 12.65 1.36.3a4.75 4.75 0 0 1 -1 1.11l-1.36-.3a4.75 4.75 0 0 0 1-1.11" transform="translate(8.57 6.2)"/><path d="m11.17 13.76 1.36.3a3.94 3.94 0 0 1 -1.3.72l-1.36-.3a3.94 3.94 0 0 0 1.3-.72" transform="translate(8.57 6.2)"/><path d="m9.87 14.48 1.36.3a5 5 0 0 1 -1.13.22h-.1a5.42 5.42 0 0 1 -.92 0l-1.36-.3a5.47 5.47 0 0 0 .92 0h.1a5 5 0 0 0 1.13-.21" transform="translate(8.57 6.2)"/></g><path d="m7.72 14.66 1.36.3-.32-.05-1.36-.3z" fill="#a41e24" transform="translate(8.57 6.2)"/></g><path d="m19.14 17.67 1.36.3 1.87.63-1.36-.3z" fill="#941c1f"/><g transform="translate(8.57 6.2)"><path d="m24.14 9.63 1-.1a1.22 1.22 0 0 0 .37.76 1.12 1.12 0 0 0 .77.25 1.17 1.17 0 0 0 .78-.22.64.64 0 0 0 .26-.51.47.47 0 0 0 -.11-.31.84.84 0 0 0 -.39-.23c-.12 0-.4-.12-.85-.23a3 3 0 0 1 -1.19-.52 1.37 1.37 0 0 1 -.26-1.81 1.41 1.41 0 0 1 .66-.53 2.64 2.64 0 0 1 1-.18 2.21 2.21 0 0 1 1.49.43 1.55 1.55 0 0 1 .53 1.16h-1.06a.92.92 0 0 0 -.3-.58 1.05 1.05 0 0 0 -.67-.18 1.23 1.23 0 0 0 -.72.19.38.38 0 0 0 -.17.33.4.4 0 0 0 .16.32 2.7 2.7 0 0 0 1 .35 5.08 5.08 0 0 1 1.15.38 1.56 1.56 0 0 1 .58.53 1.59 1.59 0 0 1 .21.84 1.65 1.65 0 0 1 -.25.85 1.57 1.57 0 0 1 -.71.58 3 3 0 0 1 -1.15.19 2.27 2.27 0 0 1 -1.49-.39 2 2 0 0 1 -.64-1.34" fill="#5a5a5d"/><path d="m31.37 10.13 1 .17a1.66 1.66 0 0 1 -.61.84 1.82 1.82 0 0 1 -1 .29 1.69 1.69 0 0 1 -1.47-.65 2.14 2.14 0 0 1 -.38-1.31 2.13 2.13 0 0 1 .45-1.47 1.65 1.65 0 0 1 1.25-.53 1.69 1.69 0 0 1 1.39.53 2.49 2.49 0 0 1 .46 1.72h-2.56a1 1 0 0 0 .25.69.73.73 0 0 0 .58.25.58.58 0 0 0 .39-.13.78.78 0 0 0 .25-.41m.05-1a.94.94 0 0 0 -.22-.66.66.66 0 0 0 -.52-.23.71.71 0 0 0 -.55.24 1 1 0 0 0 -.21.65z" fill="#5a5a5d"/><path d="m34.06 11.34h-1v-3.81h.94v.54a1.62 1.62 0 0 1 .44-.5.77.77 0 0 1 .43-.12 1.23 1.23 0 0 1 .66.19l-.31.88a.87.87 0 0 0 -.47-.17.56.56 0 0 0 -.36.12.79.79 0 0 0 -.23.42 5.83 5.83 0 0 0 -.08 1.28z" fill="#5a5a5d"/><path d="m37.29 11.34-1.54-3.81h1.06l.72 2 .21.64c0-.16.09-.27.1-.32a3 3 0 0 1 .16-.37l.72-1.95h1l-1.52 3.81z" fill="#5a5a5d"/><path d="m40 6.08h1v.92h-1zm0 1.45h1v3.81h-1z" fill="#5a5a5d"/><path d="m45.1 8.66-1 .18a.74.74 0 0 0 -.22-.45.71.71 0 0 0 -.46-.15.77.77 0 0 0 -.61.26 1.32 1.32 0 0 0 -.22.87 1.57 1.57 0 0 0 .23 1 .76.76 0 0 0 .61.28.68.68 0 0 0 .47-.17 1 1 0 0 0 .26-.56l1 .17a1.77 1.77 0 0 1 -.6 1 1.83 1.83 0 0 1 -1.17.35 1.75 1.75 0 0 1 -1.33-.53 2.05 2.05 0 0 1 -.5-1.46 2.06 2.06 0 0 1 .49-1.45 1.76 1.76 0 0 1 1.35-.52 1.87 1.87 0 0 1 1.11.3 1.67 1.67 0 0 1 .59.91" fill="#5a5a5d"/><path d="m45.71 6.08h1v.92h-1zm0 1.45h1v3.81h-1z" fill="#5a5a5d"/><path d="m47.23 9.38a2.11 2.11 0 0 1 .24-1 1.8 1.8 0 0 1 .7-.72 2.16 2.16 0 0 1 1-.24 1.86 1.86 0 0 1 1.43.58 1.92 1.92 0 0 1 .56 1.42 2 2 0 0 1 -.56 1.43 1.88 1.88 0 0 1 -1.41.57 2.16 2.16 0 0 1 -1-.24 1.68 1.68 0 0 1 -.73-.69 2.41 2.41 0 0 1 -.24-1.12m1 .06a1.25 1.25 0 0 0 .27.86.86.86 0 0 0 1.32 0 1.26 1.26 0 0 0 .27-.87 1.25 1.25 0 0 0 -.27-.86.88.88 0 0 0 -1.32 0 1.26 1.26 0 0 0 -.27.87" fill="#5a5a5d"/><path d="m27.9 17.05h-.9v-.56a1.47 1.47 0 0 1 -.55.48 1.35 1.35 0 0 1 -.64.16 1.41 1.41 0 0 1 -1.12-.53 2.14 2.14 0 0 1 -.47-1.47 2.07 2.07 0 0 1 .46-1.47 1.46 1.46 0 0 1 1.15-.51 1.44 1.44 0 0 1 1.1.53v-1.89h1zm-2.69-2a1.64 1.64 0 0 0 .17.88.77.77 0 0 0 .68.4.73.73 0 0 0 .59-.3 1.38 1.38 0 0 0 .24-.88 1.56 1.56 0 0 0 -.23-.95.78.78 0 0 0 -1.21 0 1.29 1.29 0 0 0 -.24.85" fill="#5a5a5d"/><path d="m31 15.83 1 .17a1.62 1.62 0 0 1 -.61.84 1.76 1.76 0 0 1 -1.05.29 1.69 1.69 0 0 1 -1.47-.65 2.16 2.16 0 0 1 -.37-1.31 2.1 2.1 0 0 1 .5-1.48 1.63 1.63 0 0 1 1.25-.54 1.69 1.69 0 0 1 1.34.56 2.46 2.46 0 0 1 .41 1.72h-2.51a1.07 1.07 0 0 0 .24.7.79.79 0 0 0 .58.25.6.6 0 0 0 .4-.13.86.86 0 0 0 .25-.42m.05-1a1 1 0 0 0 -.22-.67.72.72 0 0 0 -.53-.23.68.68 0 0 0 -.54.24.88.88 0 0 0 -.21.66z" fill="#5a5a5d"/></g><path d="m43.16 23.24v-5.26h3.89v.89h-2.83v1.17h2.63v.88h-2.63v1.44h2.93v.88z" fill="#ea2629"/><path d="m39.26 13.24h.92v.52a1.5 1.5 0 0 1 1.19-.61 1.29 1.29 0 0 1 .64.15 1.15 1.15 0 0 1 .44.46 1.64 1.64 0 0 1 .55-.46 1.32 1.32 0 0 1 .62-.15 1.43 1.43 0 0 1 .71.17 1.05 1.05 0 0 1 .43.5 2.14 2.14 0 0 1 .11.79v2.44h-1v-2.18a1.77 1.77 0 0 0 -.1-.73.48.48 0 0 0 -.44-.22.7.7 0 0 0 -.39.13.67.67 0 0 0 -.27.38 2.6 2.6 0 0 0 -.08.79v1.83h-1v-2.05a2.65 2.65 0 0 0 -.06-.72.43.43 0 0 0 -.16-.24.57.57 0 0 0 -.31-.08.72.72 0 0 0 -.69.49 2.87 2.87 0 0 0 -.08.79v1.85h-1z" fill="#ea2629" transform="translate(8.57 6.2)"/><path d="m45.68 13.24h.94v.56a1.38 1.38 0 0 1 .49-.47 1.37 1.37 0 0 1 .69-.18 1.49 1.49 0 0 1 1.13.52 2.1 2.1 0 0 1 .46 1.45 2.15 2.15 0 0 1 -.47 1.48 1.42 1.42 0 0 1 -1.13.53 1.32 1.32 0 0 1 -.57-.12 2.15 2.15 0 0 1 -.54-.43v1.91h-1zm1 1.84a1.48 1.48 0 0 0 .26 1 .78.78 0 0 0 .62.3.71.71 0 0 0 .58-.28 1.41 1.41 0 0 0 .24-.92 1.37 1.37 0 0 0 -.24-.89.74.74 0 0 0 -.6-.29.75.75 0 0 0 -.61.28 1.23 1.23 0 0 0 -.25.85" fill="#ea2629" transform="translate(8.57 6.2)"/><path d="m58.18 17.99h1.01v5.26h-1.01z" fill="#ea2629"/><path d="m53.56 15.83 1 .17a1.62 1.62 0 0 1 -.61.84 1.76 1.76 0 0 1 -1.05.29 1.69 1.69 0 0 1 -1.47-.65 2.16 2.16 0 0 1 -.37-1.31 2.1 2.1 0 0 1 .49-1.48 1.63 1.63 0 0 1 1.25-.54 1.69 1.69 0 0 1 1.34.56 2.46 2.46 0 0 1 .47 1.72h-2.52a1.07 1.07 0 0 0 .24.7.79.79 0 0 0 .58.25.6.6 0 0 0 .4-.13.86.86 0 0 0 .25-.42m0-1a1 1 0 0 0 -.22-.67.72.72 0 0 0 -.53-.23.68.68 0 0 0 -.54.24.92.92 0 0 0 -.21.66z" fill="#ea2629" transform="translate(8.57 6.2)"/><path d="m54.91 15.09a2.08 2.08 0 0 1 .24-1 1.68 1.68 0 0 1 .7-.72 2.06 2.06 0 0 1 1-.25 1.9 1.9 0 0 1 1.41.56 2.09 2.09 0 0 1 0 2.85 1.88 1.88 0 0 1 -1.41.57 2.16 2.16 0 0 1 -1-.24 1.57 1.57 0 0 1 -.73-.69 2.34 2.34 0 0 1 -.24-1.11m1 .05a1.26 1.26 0 0 0 .27.87.88.88 0 0 0 1.32 0 1.27 1.27 0 0 0 .27-.88 1.25 1.25 0 0 0 -.27-.86.88.88 0 0 0 -1.32 0 1.26 1.26 0 0 0 -.27.87" fill="#ea2629" transform="translate(8.57 6.2)"/></svg>