<svg viewBox="0 0 17.39 17.25" xmlns="http://www.w3.org/2000/svg"><path d="m8.33.27h-6.42a1.65 1.65 0 0 0 -1.64 1.64v10.34a1.65 1.65 0 0 0 1.64 1.64h2.23l-1.14 3.11 4.31-3.09h1a1.65 1.65 0 0 0 1.69-1.66v-10.34a1.65 1.65 0 0 0 -1.67-1.64z" fill="#fff"/><path d="m3 17.25a.23.23 0 0 1 -.16-.06.27.27 0 0 1 -.1-.31l1-2.72h-1.83a1.91 1.91 0 0 1 -1.91-1.91v-10.34a1.92 1.92 0 0 1 1.91-1.91h6.42a1.92 1.92 0 0 1 1.91 1.91v10.34a1.91 1.91 0 0 1 -1.91 1.91h-.91l-4.24 3a.3.3 0 0 1 -.18.09zm-1.09-16.71a1.38 1.38 0 0 0 -1.37 1.37v10.34a1.37 1.37 0 0 0 1.37 1.37h2.23a.3.3 0 0 1 .23.11.28.28 0 0 1 0 .25l-.82 2.26 3.59-2.57a.3.3 0 0 1 .16-.05h1a1.37 1.37 0 0 0 1.4-1.37v-10.34a1.38 1.38 0 0 0 -1.37-1.37z" fill="#002852"/><path d="m4.22 2.97h1.8v4.86h-1.8z" fill="#fff"/><path d="m6 8.11h-1.78a.28.28 0 0 1 -.22-.28v-4.83a.27.27 0 0 1 .27-.27h1.73a.27.27 0 0 1 .29.27v4.83a.28.28 0 0 1 -.29.28zm-1.51-.55h1.26v-4.32h-1.26z" fill="#002852"/><path d="m4.22 9.38h1.8v1.63h-1.8z" fill="#fff"/><path d="m6 11.28h-1.78a.27.27 0 0 1 -.22-.28v-1.62a.27.27 0 0 1 .27-.27h1.73a.27.27 0 0 1 .27.27v1.62a.27.27 0 0 1 -.27.28zm-1.53-.54h1.28v-1.09h-1.26z" fill="#002852"/><path d="m16 10.64a4 4 0 0 0 1.13-2.77c0-2.43-2.27-4.41-5.06-4.41s-5.07 1.98-5.07 4.41 2.27 4.42 5.07 4.42a5.56 5.56 0 0 0 2-.37l2.63 1.3z" fill="#fff"/><path d="m16.7 13.49h-.12l-2.52-1.24a5.92 5.92 0 0 1 -2 .34c-3 0-5.34-2.1-5.34-4.69s2.39-4.68 5.34-4.68 5.33 2.1 5.33 4.68a4.39 4.39 0 0 1 -1.09 2.85l.7 2.4a.27.27 0 0 1 -.09.28.28.28 0 0 1 -.21.06zm-2.63-1.84a.24.24 0 0 1 .12 0l2.09 1-.55-2a.3.3 0 0 1 .06-.26 3.77 3.77 0 0 0 1.06-2.59c0-2.28-2.15-4.14-4.79-4.14s-4.79 1.93-4.79 4.21 2.15 4.13 4.79 4.13a5.44 5.44 0 0 0 1.94-.33z" fill="#002852"/><path d="m10.44 7.87a.84.84 0 1 1 -.84-.87.84.84 0 0 1 .84.87z" fill="#fff"/><path d="m9.6 9a1.11 1.11 0 1 1 1.11-1.11 1.11 1.11 0 0 1 -1.11 1.11zm0-1.67a.56.56 0 0 0 -.6.54.57.57 0 0 0 .56.57.58.58 0 0 0 .57-.57.57.57 0 0 0 -.53-.56z" fill="#002852"/><path d="m12.89 7.87a.84.84 0 1 1 -.83-.87.84.84 0 0 1 .83.87z" fill="#fff"/><path d="m12.06 9a1.11 1.11 0 1 1 1.11-1.11 1.11 1.11 0 0 1 -1.11 1.11zm0-1.67a.56.56 0 0 0 -.57.56.57.57 0 1 0 1.13 0 .56.56 0 0 0 -.56-.58z" fill="#002852"/><path d="m15.35 7.87a.84.84 0 1 1 -.84-.87.85.85 0 0 1 .84.87z" fill="#fff"/><path d="m14.51 9a1.11 1.11 0 1 1 1.11-1.11 1.11 1.11 0 0 1 -1.11 1.11zm0-1.67a.57.57 0 0 0 -.57.56.57.57 0 1 0 1.14 0 .57.57 0 0 0 -.57-.58z" fill="#002852"/></svg>