<svg viewBox="0 0 124.67 113.89" xmlns="http://www.w3.org/2000/svg"><circle cx="62.34" cy="30.77" fill="#6fcbdb" r="28.41"/><path d="m22.25 104.47h36.02v9.41h-36.02z" fill="#6fcbdb"/><path d="m66.42 104.47h36.02v9.41h-36.02z" fill="#6fcbdb"/><g fill="none" stroke="#002852" stroke-linecap="round" stroke-linejoin="round" stroke-width="4.73"><path d="m52.87 97.05v-18.93l-22.37-22.37a6.31 6.31 0 0 0 -8.92 0l-.55.54a6.33 6.33 0 0 0 0 8.93l14.48 14.47"/><path d="m15 49.71v-28.41a6.31 6.31 0 0 0 -6.32-6.3 6.31 6.31 0 0 0 -6.31 6.3v35.56a28.46 28.46 0 0 0 8.33 20.14l16.92 16.9v3.15"/><path d="m71.8 97.05v-18.93l22.37-22.37a6.33 6.33 0 0 1 8.93 0l.54.54a6.33 6.33 0 0 1 0 8.93l-14.48 14.47"/><path d="m109.68 49.71v-28.41a6.31 6.31 0 0 1 6.32-6.3 6.31 6.31 0 0 1 6.31 6.31v35.55a28.42 28.42 0 0 1 -8.31 20.14l-16.95 16.9v3.15"/><circle cx="62.34" cy="30.77" r="28.41"/><path d="m52.87 43.4h12.62a6.31 6.31 0 0 0 6.31-6.31 6.31 6.31 0 0 0 -6.31-6.32h-6.31a6.3 6.3 0 0 1 -6.31-6.31 6.3 6.3 0 0 1 6.31-6.31h12.62"/><path d="m62.34 11.84v6.31"/><path d="m62.34 43.4v6.31"/><path d="m24.46 109.68v-6.31h31.56v6.31"/><path d="m68.65 109.68v-6.31h31.56v6.31"/></g><circle cx="15.16" cy="54.95" fill="#002852" r="2.2"/><circle cx="109.84" cy="54.95" fill="#002852" r="2.2"/></svg>