<svg viewBox="0 0 17.96 19.21" xmlns="http://www.w3.org/2000/svg"><g fill="#002852"><path d="m9 7.16a3.68 3.68 0 0 1 -3-1.58 9.5 9.5 0 0 0 -1.67-2.27.26.26 0 0 1 -.06-.14c0-1.41 0-1.44 0-1.5a.12.12 0 0 1 .07 0l1.34-.77a6.67 6.67 0 0 1 6.69 0l1.3.72a.12.12 0 0 1 .07 0c0 .06.08.09 0 1.5a.2.2 0 0 1 -.06.14 9.34 9.34 0 0 0 -1.63 2.27 3.7 3.7 0 0 1 -3.05 1.63zm-3.93-4a8.51 8.51 0 0 1 1.45 2 3.08 3.08 0 0 0 5 0 8.51 8.51 0 0 1 1.45-2c0-.42 0-.86 0-1s-.41-.22-1.1-.61a5.68 5.68 0 0 0 -5.67 0c-.68.39-1 .55-1.1.61s-.01.56 0 .98zm8.46-1.2h.06a.1.1 0 0 1 -.03-.02z"/><path d="m12.29 5h-6.44c-.07 0-.13-.14-.13-.32s.06-.31.13-.31h6.44c.07 0 .13.14.13.31s-.06.32-.13.32z"/><path d="m9.12 3.63a.65.65 0 0 1 -.54-.31 6.92 6.92 0 0 1 -.74-1.55.2.2 0 0 1 0-.17l.34-.55a.15.15 0 0 1 .11-.05 1.79 1.79 0 0 0 .71-.32.15.15 0 0 1 .16 0 1.79 1.79 0 0 0 .84.32.17.17 0 0 1 .1.07l.33.55a.2.2 0 0 1 0 .17 7.19 7.19 0 0 1 -.73 1.55.66.66 0 0 1 -.58.29zm-.76-1.81a6 6 0 0 0 .51 1.07.29.29 0 0 0 .5 0 4.88 4.88 0 0 0 .51-1.07l-.19-.31a1.92 1.92 0 0 1 -.57-.23 1.72 1.72 0 0 1 -.56.23z"/><path d="m4.75 3.31h-.29c-.1 0-.19-.13-.19-.29s.09-.28.19-.28h.29c.1 0 .19.12.19.28s-.09.29-.19.29z"/><path d="m6.65 3.31h-.48c-.1 0-.17-.13-.17-.31s.09-.28.19-.28h.48c.1 0 .19.12.19.28s-.11.31-.21.31zm-1 0h-.43c-.1 0-.22-.13-.22-.31s.09-.28.19-.28h.51c.1 0 .19.12.19.28s-.09.31-.19.31z"/><path d="m7.41 3.31h-.29c-.1 0-.19-.13-.19-.29s.09-.28.19-.28h.29c.1 0 .18.12.18.28s-.08.29-.18.29z"/><path d="m13.24 3.31h.29c.1 0 .19-.13.19-.29s-.09-.28-.19-.28h-.29c-.1 0-.19.12-.19.28s.09.29.19.29z"/><path d="m11.15 3c0-.16.09-.28.19-.28h.48c.1 0 .19.12.19.28s-.09.29-.19.29h-.48c-.1.02-.19-.11-.19-.29zm.95 0c0-.16.09-.28.19-.28h.48c.1 0 .19.12.19.28s-.09.29-.19.29h-.48c-.1.02-.19-.11-.19-.29z"/><path d="m10.59 3.31h.28c.1 0 .19-.13.19-.29s-.09-.28-.19-.28h-.28c-.11 0-.19.12-.19.28s.08.29.19.29z"/><path d="m12.18 5.4.06-.1z"/><path d="m12.11 5.53s0-.06.06-.1-.04.08-.06.1z"/><path d="m12.27 5.24.1-.16z"/><path d="m12.34 10.49v-1.49a9 9 0 0 0 1.3-5.19c0-.14 0-.28 0-.42a8 8 0 0 0 -1.23 1.65h.47c-.32 3.68-2.15 5-3.87 5s-3.94-1.87-4.01-5.9a3.62 3.62 0 0 0 -.68-.82 4.07 4.07 0 0 0 0 .5 9.09 9.09 0 0 0 1.3 5v1.65a9 9 0 0 0 -5.62 8.33.41.41 0 0 0 .41.41h17.14a.41.41 0 0 0 .45-.41 9 9 0 0 0 -5.66-8.31zm-2.75 7.9h-1.32l.51-2.55a.41.41 0 0 0 -.07-.32l-.65-.94.87-.58.87.58-.65.94a.41.41 0 0 0 -.07.32zm-1.36-4.91-1.93 1.29-1.64-2.9a8.18 8.18 0 0 1 .88-.47zm1.4 0 2.69-2.08a8.18 8.18 0 0 1 .88.47l-1.64 2.9zm-2.2 4.91h-3.7v-1.08a.41.41 0 0 0 -.41-.41.42.42 0 0 0 -.41.41v1.08h-2.13a8.13 8.13 0 0 1 3.22-6.05l1.83 3.22a.4.4 0 0 0 .58.14l1-.66.57.81zm-1-7.39a.36.36 0 0 0 .06-.2v-.98a3.62 3.62 0 0 0 2.45 1.06 4.09 4.09 0 0 0 2.63-1v.85a.36.36 0 0 0 .06.2l-2.63 2.07zm8.57 7.39v-1.08a.42.42 0 0 0 -.41-.41.41.41 0 0 0 -.41.41v1.08h-3.7l-.51-2.54.57-.81 1 .66c.1.1.29.06.32.06a.43.43 0 0 0 .27-.2l1.82-3.22a8.13 8.13 0 0 1 3.2 6.05z"/><path d="m5.92 5.49v.06z"/><path d="m5.28 4.44.12.18z"/><path d="m5.42 4.66.11.17a1.63 1.63 0 0 0 -.11-.17z"/><path d="m5.55 4.86c.13.2.23.38.3.5-.07-.12-.17-.3-.3-.5z"/><path d="m5.85 5.37.06.1z"/></g></svg>