<svg viewBox="0 0 19.79 18.27" xmlns="http://www.w3.org/2000/svg"><g fill="#002852" stroke="#002852" stroke-linecap="round" stroke-linejoin="round" stroke-width=".24"><path d="m8.08 9.3a2.75 2.75 0 1 1 2.75-2.74 2.75 2.75 0 0 1 -2.75 2.74zm0-4.91a2.17 2.17 0 1 0 2.16 2.17 2.17 2.17 0 0 0 -2.16-2.17z"/><path d="m12.53 12.51h-8.89a.29.29 0 0 1 -.3-.29v-.64a2.87 2.87 0 0 1 2.87-2.86h3.79a2.86 2.86 0 0 1 2.86 2.86v.64a.29.29 0 0 1 -.33.29zm-8.6-.58h8.31v-.35a2.29 2.29 0 0 0 -2.24-2.28h-3.79a2.28 2.28 0 0 0 -2.28 2.28z"/><path d="m13.19 18.15h-10.19a.42.42 0 0 1 -.42-.42v-5.38a.42.42 0 0 1 .42-.42h10.19a.42.42 0 0 1 .42.42v5.38a.42.42 0 0 1 -.42.42zm-10-.58h9.81v-5.06h-9.86z"/><path d="m19.38.71h-3.91a.29.29 0 0 1 -.29-.3.29.29 0 0 1 .29-.29h3.91a.29.29 0 0 1 .29.29.29.29 0 0 1 -.29.3z"/><path d="m19.38 2.61h-2.38a.3.3 0 0 1 0-.61h2.39a.3.3 0 0 1 0 .59z"/><path d="m19.38 4.51h-3.91a.3.3 0 0 1 0-.59h3.91a.3.3 0 0 1 0 .59z"/><path d="m19.38 6.41h-2.38a.3.3 0 0 1 0-.59h2.39a.3.3 0 0 1 0 .59z"/><path d="m19.38 8.31h-3.91a.29.29 0 0 1 -.29-.31.3.3 0 0 1 .29-.3h3.91a.3.3 0 0 1 .29.3.29.29 0 0 1 -.29.31z"/><path d="m19.38 10.21h-2.38a.29.29 0 0 1 0-.58h2.39a.29.29 0 1 1 0 .58z"/><path d="m19.38 12.11h-3.91a.29.29 0 1 1 0-.58h3.91a.29.29 0 0 1 0 .58z"/><path d="m19.38 14h-2.38a.29.29 0 0 1 0-.58h2.39a.29.29 0 0 1 0 .58z"/><path d="m19.38 15.91h-3.91a.29.29 0 0 1 0-.58h3.91a.29.29 0 0 1 0 .58z"/><path d="m6 16.47h-1.63a.3.3 0 0 1 -.3-.29v-2.27a.3.3 0 0 1 .3-.29h1.63a.29.29 0 0 1 .29.29v2.27a.29.29 0 0 1 -.29.29zm-1.31-.58h1v-1.68h-1z"/><path d="m8.88 16.47h-1.6a.29.29 0 0 1 -.28-.29v-2.27a.29.29 0 0 1 .29-.29h1.6a.29.29 0 0 1 .29.29v2.27a.29.29 0 0 1 -.3.29zm-1.31-.58h1v-1.68h-1z"/><path d="m11.8 16.47h-1.6a.29.29 0 0 1 -.3-.29v-2.27a.29.29 0 0 1 .3-.29h1.6a.29.29 0 0 1 .29.29v2.27a.29.29 0 0 1 -.29.29zm-1.31-.58h1v-1.68h-1z"/><path d="m15.4 18.15h-.4a.29.29 0 1 1 0-.58h.44a.29.29 0 1 1 0 .58z"/><path d="m17.4 18.15h-.46a.29.29 0 1 1 0-.58h.46a.29.29 0 1 1 0 .58z"/><path d="m19.38 18.15h-.44a.29.29 0 1 1 0-.58h.44a.29.29 0 0 1 0 .58z"/><path d="m15 18.15h-14.59a.29.29 0 1 1 0-.58h14.59a.29.29 0 1 1 0 .58z"/></g></svg>