<svg viewBox="0 0 17.8 20.12" xmlns="http://www.w3.org/2000/svg"><g fill="#002852" stroke="#002852" stroke-linecap="round" stroke-linejoin="round" stroke-width=".28"><path d="m17 7.88h-16.15a1 1 0 0 0 -.71 1v7.12a1 1 0 0 0 1 1h4.28l-.48 2.35h-2a.33.33 0 0 0 0 .65h12a.33.33 0 0 0 0-.65h-2l-.56-2.35h4.26a1 1 0 0 0 1-1v-7.17a1 1 0 0 0 -.64-.95zm-11.41 11.48 1.61-7.9h3.4l1.61 7.9zm11.41-3.36a.37.37 0 0 1 -.38.37h-4.37l-1.07-5.28a.33.33 0 0 0 -.32-.26h-3.92a.33.33 0 0 0 -.32.26l-1.07 5.27h-4.39a.37.37 0 0 1 -.38-.36v-7.14a.38.38 0 0 1 .38-.37h15.48a.38.38 0 0 1 .38.37z"/><path d="m9 13.78a1.61 1.61 0 1 0 1.61 1.6 1.6 1.6 0 0 0 -1.61-1.6zm0 2.57a1 1 0 1 1 1-1 1 1 0 0 1 -1 1z"/><path d="m8.9 5.41a2.64 2.64 0 1 1 2.63-2.64 2.64 2.64 0 0 1 -2.63 2.64zm0-4.71a2.08 2.08 0 1 0 2.1 2.07 2.07 2.07 0 0 0 -2.1-2.07z"/><path d="m13.16 8.48h-8.52a.27.27 0 0 1 -.28-.28v-.61a2.74 2.74 0 0 1 2.74-2.74h3.6a2.74 2.74 0 0 1 2.74 2.74v.61a.27.27 0 0 1 -.28.28zm-8.24-.56h8v-.33a2.19 2.19 0 0 0 -2.22-2.18h-3.6a2.19 2.19 0 0 0 -2.18 2.18z"/></g></svg>