<svg viewBox="0 0 20.82 22.12" xmlns="http://www.w3.org/2000/svg"><g fill="#002852" stroke="#002852" stroke-linecap="round" stroke-linejoin="round" stroke-width=".28"><path d="m14.55 4.07a2 2 0 1 1 2-2 2 2 0 0 1 -2 2zm0-3.47a1.51 1.51 0 1 0 1.5 1.51 1.51 1.51 0 0 0 -1.5-1.51z"/><path d="m19.53 22h-18.24a.24.24 0 0 1 -.24-.24v-10.2a.24.24 0 0 1 .24-.23h18.24a.23.23 0 0 1 .23.23v10.18a.23.23 0 0 1 -.23.26zm-18-.47h17.77v-9.73h-17.78z"/><path d="m20.45 11.8h-20.08a.24.24 0 0 1 -.23-.24v-1.66a.23.23 0 0 1 .23-.23h20.08a.23.23 0 0 1 .23.23v1.66a.24.24 0 0 1 -.23.24zm-19.85-.47h19.61v-1.2h-19.61z"/><path d="m7.5 10.13h-4.91a.23.23 0 0 1 -.23-.23v-.83a.23.23 0 0 1 .23-.23h4.91a.23.23 0 0 1 .23.23v.83a.23.23 0 0 1 -.23.23zm-4.67-.46h4.44v-.37h-4.44z"/><path d="m8.78 8.23h-7.46a.23.23 0 0 1 -.23-.23v-4.67a.23.23 0 0 1 .23-.24h7.46a.24.24 0 0 1 .22.24v4.67a.23.23 0 0 1 -.22.23zm-7.23-.46h7v-4.21h-7z"/><path d="m6 9.3h-1.91a.23.23 0 0 1 -.23-.23v-1.07a.23.23 0 0 1 .23-.23h1.91a.23.23 0 0 1 .24.23v1.07a.23.23 0 0 1 -.24.23zm-1.68-.46h1.46v-.61h-1.46z"/><path d="m4 7.19h-1.9a.24.24 0 0 1 0-.47h1.9a.24.24 0 0 1 0 .47z"/><path d="m4 6.36h-1.9a.23.23 0 0 1 0-.46h1.9a.23.23 0 0 1 0 .46z"/><path d="m18.71 10.13h-8.32a.23.23 0 0 1 -.18-.08.22.22 0 0 1 -.05-.19.13.13 0 0 1 0-.06l1.6-4.25a1.33 1.33 0 0 1 1.29-1h3a1.35 1.35 0 0 1 1.29 1l1.59 4.25s0 0 0 .06a.33.33 0 0 1 -.06.19.3.3 0 0 1 -.16.08zm-8-.46h7.68l-1.5-4a.87.87 0 0 0 -.89-.67h-3a.88.88 0 0 0 -.85.65z"/><path d="m12.11 10.13h-.06a.23.23 0 0 1 -.16-.29l.51-1.74a.23.23 0 0 1 .29-.1.24.24 0 0 1 .16.29l-.51 1.71a.24.24 0 0 1 -.23.13z"/><path d="m17 10.13a.22.22 0 0 1 -.22-.16l-.51-1.73a.23.23 0 0 1 .44-.14l.51 1.73a.23.23 0 0 1 -.15.29z"/><path d="m12.11 20.82h-9.65a.23.23 0 0 1 -.24-.23v-5.06a.24.24 0 0 1 .47 0v4.83h9.42a.23.23 0 1 1 0 .46z"/></g></svg>