<svg viewBox="0 0 18.91 20.17" xmlns="http://www.w3.org/2000/svg"><path d="m16.81 0h-.51a.42.42 0 0 0 -.42.42.42.42 0 0 0 .42.42h.51a1.27 1.27 0 0 1 1.26 1.26v8a1.27 1.27 0 0 1 -1.26 1.26h-2.94a.37.37 0 0 0 -.23.07l-1.87 1.24v-.89a.42.42 0 0 0 -.13-.3.4.4 0 0 0 -.29-.12h-2a5 5 0 0 0 .11-1 .39.39 0 0 0 .15-.36v-.8a2.52 2.52 0 0 0 -2.52-2.52h-1.75a2.34 2.34 0 0 0 -2.34 2.32v1a.39.39 0 0 0 .16.32 4.93 4.93 0 0 0 .11 1 1.26 1.26 0 0 1 -1.17-1.23v-8a1.27 1.27 0 0 1 1.26-1.25h9.57a.42.42 0 0 0 .42-.42.42.42 0 0 0 -.42-.42h-9.57a2.1 2.1 0 0 0 -2.1 2.1v8a2.1 2.1 0 0 0 2.1 2.1h.18a3.77 3.77 0 0 0 1.06 1.42v.67h-.45c-1.15.22-4.15.77-4.15 2.5v3a.42.42 0 0 0 .42.42.42.42 0 0 0 .42-.42v-3c0-.47.6-1.13 3.46-1.66h.3a.42.42 0 0 0 .16.33 2.47 2.47 0 0 0 1.54.61 2.52 2.52 0 0 0 1.55-.61.42.42 0 0 0 .15-.33h.3c2.86.52 3.46 1.19 3.46 1.66v3a.42.42 0 0 0 .42.42.42.42 0 0 0 .42-.42v-3c0-1.73-3-2.28-4.19-2.5h-.41v-.67a3.77 3.77 0 0 0 1.06-1.43h1.86v1.26a.41.41 0 0 0 .22.37.46.46 0 0 0 .2 0 .48.48 0 0 0 .23-.07l2.43-1.56h2.82a2.1 2.1 0 0 0 2.1-2.1v-8a2.1 2.1 0 0 0 -2.11-2.09zm-8.67 12.19a3 3 0 0 1 -.45.6 2.24 2.24 0 0 1 -.53.4 1.75 1.75 0 0 1 -.86.22 1.68 1.68 0 0 1 -.85-.22 2.24 2.24 0 0 1 -.53-.4 3 3 0 0 1 -.45-.6 4 4 0 0 1 -.2-.42c0-.14-.1-.28-.14-.42a4.19 4.19 0 0 1 -.13-1 2.36 2.36 0 0 0 1.48-1.17 2.93 2.93 0 0 0 2.38 1.23h.75a4.84 4.84 0 0 1 -.13.94c0 .14-.09.28-.14.42s-.13.28-.2.42zm-1 2.1v.63a1.86 1.86 0 0 1 -.39.21 1.23 1.23 0 0 1 -1 0 2.08 2.08 0 0 1 -.38-.21v-.82a2.51 2.51 0 0 0 .86.15 2.57 2.57 0 0 0 .87-.15zm1.08-6.29a1.82 1.82 0 0 1 .46.69 1.67 1.67 0 0 1 .09.55v.37h-.91a2.1 2.1 0 0 1 -2.09-2s0 0 0-.07h1.32a1.7 1.7 0 0 1 1.13.46zm-3.3-.38v.48a1.5 1.5 0 0 1 -.81 1.33l-.27.12v-.55a1.09 1.09 0 0 1 0-.18 1.52 1.52 0 0 1 .86-1.18zm9.28-7.2a.42.42 0 0 1 .42-.42.42.42 0 0 1 .38.42.42.42 0 0 1 -.42.42.42.42 0 0 1 -.38-.42zm-11.26 18.49v.84a.42.42 0 1 1 -.84 0v-.84a.42.42 0 0 1 .84 0zm8.83-15.34a1.48 1.48 0 0 0 0 .21 1.26 1.26 0 0 0 0 2.52v.25a1.47 1.47 0 0 0 .34 1.08c.35.36.87.36 1.6.35h.46a2 2 0 0 0 1.46-.35 1.51 1.51 0 0 0 .37-1.08 2.18 2.18 0 0 0 0-.25 1.26 1.26 0 0 0 0-2.52 1.49 1.49 0 0 0 0-.21 1.38 1.38 0 0 0 -1.29-1.47 1.12 1.12 0 0 0 -.84.38 1.16 1.16 0 0 0 -.87-.38 1.38 1.38 0 0 0 -1.23 1.47zm2.94-.63c.22 0 .42.3.42.63a.76.76 0 0 1 -.19.52 1.76 1.76 0 0 0 -.61-.26.75.75 0 0 1 0-.26c-.04-.33.15-.63.38-.63zm1.68 2.06a.42.42 0 0 1 -.42.42.4.4 0 0 1 -.15 0 2.83 2.83 0 0 0 -.23-.57.42.42 0 0 1 .8.18zm-1.26 1.55c0 .35-.07.46-.1.49a2.08 2.08 0 0 1 -1 .1h-.33a2.08 2.08 0 0 1 -1-.1s-.09-.14-.09-.49a3.42 3.42 0 0 1 .05-.62 2.15 2.15 0 0 1 .34-.93 1 1 0 0 1 .8-.41h.08a1 1 0 0 1 .8.41 2 2 0 0 1 .35.89 3.8 3.8 0 0 1 .1.66zm-3.78-1.55a.42.42 0 0 1 .42-.42.42.42 0 0 1 .37.24 3.57 3.57 0 0 0 -.23.57.32.32 0 0 1 -.14 0 .42.42 0 0 1 -.42-.39zm2.06-1.21a1.68 1.68 0 0 0 -.61.26.72.72 0 0 1 -.19-.52c0-.33.19-.63.42-.63s.42.3.42.63a1.09 1.09 0 0 1 -.04.3zm-3.32 13.4h-2.53a.42.42 0 0 0 -.42.42v1.68a.42.42 0 0 0 .42.42h2.11a.42.42 0 0 0 .42.42.42.42 0 0 0 .42-.42v-2.1a.42.42 0 0 0 -.42-.38zm-2.09.88h1.67v.84h-1.67zm-5-16a.42.42 0 0 1 .42-.42h2.46a.42.42 0 1 1 0 .84h-2.52a.42.42 0 0 1 -.42-.39zm4.62.42a.42.42 0 0 1 0-.84.42.42 0 1 1 0 .84zm2.53-.42a.42.42 0 0 1 -.42.42h-.48a.42.42 0 1 1 0-.84h.42a.42.42 0 0 1 .42.45zm-.48 2.13h-6.31a.42.42 0 0 1 0-.84h6.31a.42.42 0 0 1 0 .84zm-1.27.8a.42.42 0 0 1 0 .84h-5a.42.42 0 0 1 0-.84z" fill="#002852"/></svg>