<svg viewBox="0 0 11.42 19.08" xmlns="http://www.w3.org/2000/svg"><g fill="#002852" stroke="#002852" stroke-linecap="round" stroke-linejoin="round" stroke-width=".14"><path d="m5.79 6.16a3 3 0 1 1 3-3.05 3 3 0 0 1 -3 3.05zm0-5.46a2.42 2.42 0 1 0 2.42 2.41 2.42 2.42 0 0 0 -2.42-2.41z"/><path d="m5.73 7.33c-.73 0-1.36-.33-1.36-.83v-.83a.2.2 0 0 1 .09-.17.2.2 0 0 1 .2 0 2.64 2.64 0 0 0 2.15 0 .23.23 0 0 1 .2 0 .22.22 0 0 1 .09.17v.83c0 .5-.59.83-1.37.83zm-.95-1.33v.5c0 .18.37.42 1 .42s1-.24 1-.42v-.5a3 3 0 0 1 -2 0z"/><path d="m9.84 10.05a.21.21 0 0 1 -.15-.05 5.22 5.22 0 0 0 -7.92 0 .2.2 0 0 1 -.22 0 .2.2 0 0 1 -.14-.19v-1.68a1.83 1.83 0 0 1 1.83-1.83h1.33a.21.21 0 0 1 .21.2c0 .18.37.42 1 .42s1-.24 1-.42a.2.2 0 0 1 .2-.2h1.24a1.83 1.83 0 0 1 1.83 1.83v1.71a.2.2 0 0 1 -.14.19zm-4.11-2.35a5.89 5.89 0 0 1 3.69 1.3v-1a1.24 1.24 0 0 0 -1.34-1.12h-1.08a1.37 1.37 0 0 1 -1.25.5 1.38 1.38 0 0 1 -1.25-.5h-1.12a1.24 1.24 0 0 0 -1.38 1.12v1a5.89 5.89 0 0 1 3.73-1.3z"/><path d="m5.71 7.68a5.67 5.67 0 1 0 5.64 5.67 5.66 5.66 0 0 0 -5.64-5.67zm0 10.6a4.93 4.93 0 1 1 4.91-4.93 4.92 4.92 0 0 1 -4.91 4.93z"/><path d="m9.77 12.6a.73.73 0 0 1 -.57-.72.76.76 0 0 1 0-.15.71.71 0 0 1 -.53-.7v-.09a.73.73 0 0 1 -.67-.72.93.93 0 0 1 0-.23 4.12 4.12 0 0 0 -4.74 0 .62.62 0 0 1 0 .23.73.73 0 0 1 -.64.72s0 .06 0 .09a.72.72 0 0 1 -.54.7.76.76 0 0 1 0 .15.73.73 0 0 1 -.57.72 3.91 3.91 0 0 0 0 1.47 5.36 5.36 0 0 1 1.79-.56 2.6 2.6 0 0 1 2.29-1.16 2.6 2.6 0 0 1 2.41 1.16 5.3 5.3 0 0 1 1.79.56 3.91 3.91 0 0 0 0-1.47zm-1.24-.28a4.88 4.88 0 0 0 -1.24-.27 2.11 2.11 0 0 0 -1.58-.56 2.11 2.11 0 0 0 -1.58.56 4.88 4.88 0 0 0 -1.24.27 1.24 1.24 0 0 1 0-.33 1.65 1.65 0 0 1 0-.38c.23 0 .4-.18.4-.35 0 0 0 0 0-.07.21 0 .37-.18.37-.34.24 0 .44-.17.44-.35a.2.2 0 0 0 0-.11 3.82 3.82 0 0 1 3.28 0 .2.2 0 0 0 0 .11c0 .18.2.33.45.35a.06.06 0 0 0 0 0c0 .16.16.3.37.34v.07c0 .17.17.31.4.35a1.43 1.43 0 0 1 0 .71z"/><path d="m5.14 15.39a2 2 0 0 1 -1.3-.87.23.23 0 0 0 -.21-.1 3.61 3.61 0 0 0 -1.69.66.2.2 0 0 0 0 .27 4.52 4.52 0 0 0 3.16 2.1.15.15 0 0 0 .13-.05.19.19 0 0 0 .08-.15v-1.66a.2.2 0 0 0 -.17-.2zm-.52 1.38a3.2 3.2 0 0 1 -2-1.34 2.33 2.33 0 0 1 .95-.35 1.89 1.89 0 0 0 1.05.7z"/><path d="m9.58 15.08a3.53 3.53 0 0 0 -1.69-.66.2.2 0 0 0 -.2.1 2 2 0 0 1 -1.3.87.19.19 0 0 0 -.16.2v1.66a.21.21 0 0 0 .07.15.18.18 0 0 0 .13.05 4.52 4.52 0 0 0 3.16-2.1.22.22 0 0 0 -.01-.27zm-2.75 1.76v-1.07a2.1 2.1 0 0 0 1.17-.77 2.67 2.67 0 0 1 1 .38 3.53 3.53 0 0 1 -2.17 1.46z"/><path d="m5.76 14.89c-.73 0-1.3-.43-1.3-1s.57-1 1.3-1 1.3.43 1.3 1-.57 1-1.3 1zm0-1.4c-.37 0-.68.2-.68.43s.31.43.68.43.69-.2.69-.43-.31-.43-.69-.43z"/></g></svg>