<svg viewBox="0 0 16.74 18.36" xmlns="http://www.w3.org/2000/svg"><path d="m12.71 10.83a2.42 2.42 0 0 1 -1.2-2 8.43 8.43 0 0 0 1.21-4.83c0-2.47-1.67-4-4.35-4a4 4 0 0 0 -4.37 4 8.42 8.42 0 0 0 1.27 4.73 2.45 2.45 0 0 1 -1.27 2.1 8.3 8.3 0 0 0 -4 7.17.39.39 0 0 0 .38.39h16a.39.39 0 0 0 .38-.39 8.3 8.3 0 0 0 -4.05-7.17zm.14 1-2 2.83-1.77-.91 3-2.45.24.17a6.33 6.33 0 0 1 .53.37zm-4.56-2c-1.49 0-3.06-1.56-3.42-4.49.72-2.34 1.8-1.89 1.92-1.84a3.89 3.89 0 0 0 3.21 0c.75-.33 1.54.45 1.92 1.81-.39 3.29-2.06 4.51-3.63 4.51zm.08-9.07c2.13 0 3.4 1 3.56 2.86a1.8 1.8 0 0 0 -2.28-.82 3.15 3.15 0 0 1 -2.55 0 1.81 1.81 0 0 0 -2.29.82 3.36 3.36 0 0 1 3.56-2.86zm-2.46 8.74a3.41 3.41 0 0 0 2.38 1.09 3.77 3.77 0 0 0 2.56-1 3.22 3.22 0 0 0 .65 1.19l-3.13 2.56-3.13-2.55a3.19 3.19 0 0 0 .67-1.29zm-1.48 2 .24-.17 3 2.45-1.77.91-2-2.83c.17-.14.34-.27.53-.38zm9.57 6.09v-1a.39.39 0 1 0 -.77 0v1h-9.7v-1a.39.39 0 1 0 -.77 0v1h-2a7.54 7.54 0 0 1 2.52-5.27l2.19 3.07a.37.37 0 0 0 .53.11l2.4-1.23 2.4 1.23a.34.34 0 0 0 .17.05.42.42 0 0 0 .32-.16l2.19-3.07a7.5 7.5 0 0 1 2.52 5.27z" fill="#002852"/></svg>