<svg viewBox="0 0 14.68 18.32" xmlns="http://www.w3.org/2000/svg"><path d="m14.65 15.78-.51-2.3a3 3 0 0 0 -2.14-2.26 2.23 2.23 0 0 1 -1.28-.89 6.75 6.75 0 0 0 -.72-1.64 6.46 6.46 0 0 0 .74-1.69h.2a.39.39 0 0 0 .38-.34c.17-1.52.27-2.76.27-3.31 0-2.12-1.59-3.35-4.34-3.35s-4.34 1.23-4.34 3.37c0 .54.1 1.81.27 3.31a.39.39 0 0 0 .38.32h.44a6.42 6.42 0 0 0 .73 1.63 10.41 10.41 0 0 0 -.55 1.48 2.22 2.22 0 0 1 -1.41 1.09 3 3 0 0 0 -2.23 2.28l-.54 2.32a1.45 1.45 0 0 0 1 1.69 22.93 22.93 0 0 0 6.12.83 25.26 25.26 0 0 0 6.43-.85 1.44 1.44 0 0 0 1.1-1.69zm-4.65-8.99c-.41 1.39-1.47 2.91-2.66 2.91-1.34 0-2.6-2.07-2.81-3.58v-1.45a.69.69 0 0 1 .69-.67.65.65 0 0 1 .36.1 3.34 3.34 0 0 0 3.35 0 .64.64 0 0 1 .35-.1.69.69 0 0 1 .7.69s.02 2.05.02 2.1zm-2.75-6.03c1.63 0 3.58.46 3.58 2.61 0 .28 0 .79-.09 1.43v-.13a1.46 1.46 0 0 0 -1.46-1.46 1.41 1.41 0 0 0 -.74.21 2.57 2.57 0 0 1 -2.54 0 1.44 1.44 0 0 0 -.75-.21 1.47 1.47 0 0 0 -1.49 1.46v.18c0-.66-.09-1.19-.09-1.48 0-2.15 1.95-2.61 3.58-2.61zm.09 9.7a3 3 0 0 0 2.15-1.13 2.14 2.14 0 0 1 .28 1.3 2 2 0 0 0 0 1c0 .06 0 .19-.18.38a1.75 1.75 0 0 0 -.27.55 3.09 3.09 0 0 1 -1.11 1.14.73.73 0 0 1 -1-.18 7.34 7.34 0 0 0 -2.21-1.88l-.24-.13a.23.23 0 0 1 -.11-.17.22.22 0 0 1 .06-.2 1.2 1.2 0 0 0 .34-1l-.05-.24a2.31 2.31 0 0 1 .19-.56 2.94 2.94 0 0 0 2.15 1.12zm-.72 3.65a1.42 1.42 0 0 0 1.26.51v1.91h-1.26zm-5.84 1.89.51-2.32a1.71 1.71 0 0 1 .09-.3 11.65 11.65 0 0 1 1.8 3.85c-.65-.12-1.29-.26-1.93-.44a.66.66 0 0 1 -.47-.79zm3.22 1.33a12.13 12.13 0 0 0 -2.16-4.7 2.17 2.17 0 0 1 1.07-.63 3 3 0 0 0 1-.46.93.93 0 0 0 .48.67l.24.14a5.85 5.85 0 0 1 1.23.93v3.67a.38.38 0 0 0 .38.38h2a.38.38 0 0 0 .38-.38v-2.63a3.49 3.49 0 0 0 1.38-1.48 1.45 1.45 0 0 1 .16-.33 1.26 1.26 0 0 0 .33-1 1.33 1.33 0 0 1 0-.28 3 3 0 0 0 1.33.74 2.24 2.24 0 0 1 1.1.67 12.23 12.23 0 0 0 -2.17 4.66 23.3 23.3 0 0 1 -6.75.03zm9.43-.6c-.64.17-1.27.31-1.9.42a11.41 11.41 0 0 1 1.79-3.81 1.71 1.71 0 0 1 .09.3l.51 2.3a.67.67 0 0 1 -.51.79z" fill="#002852"/></svg>