<svg viewBox="0 0 14.71 19.97" xmlns="http://www.w3.org/2000/svg"><g fill="#002852"><path d="m10.13 12v-1.52a8.41 8.41 0 0 0 1-3.4c.76-.85.21-2.43-.66-3.4a3.86 3.86 0 0 0 -2.24-1.38 1.47 1.47 0 0 0 -1.06-.39 4.07 4.07 0 0 0 -2.39 1c-1.42 1.09-2.08 2.68-1.52 3.56l.38.3c.45 3.19.6 1.52.94 4v1.23a8.25 8.25 0 0 0 -4.58 7.6.37.37 0 0 0 .38.4h14a.37.37 0 0 0 .38-.37 8.25 8.25 0 0 0 -4.63-7.63zm-2.85-1.15c-1.37 0-2.82-1.33-3-3.8h.21a4.14 4.14 0 0 0 2.39-1 6 6 0 0 0 .91-.91 7 7 0 0 0 .54.71 4.16 4.16 0 0 0 2.07 1.36c-.27 3.37-2.4 3.64-3.12 3.64zm-2.18 1.78a.37.37 0 0 0 .23-.35v-1.38a3.22 3.22 0 0 0 2 .7 3.62 3.62 0 0 0 2.05-.6v1.32a.37.37 0 0 0 .23.35 4.54 4.54 0 0 1 .45.21l-2.7 2.72-2.71-2.76a3.68 3.68 0 0 1 .45-.21zm.14-9.14a3.4 3.4 0 0 1 1.93-.83.69.69 0 0 1 .58.23.42.42 0 0 0 .36.16 3 3 0 0 1 1.76 1.13c.9 1 1.18 2 1 2.28 0 0-.52.34-1.93-1.08a4.46 4.46 0 0 1 -.74-1.07.36.36 0 0 0 -.33-.2.43.43 0 0 0 -.33.18 4 4 0 0 1 -1.12 1.21c-1.71 1.22-2.42.78-2.52.57-.31-.48.17-1.66 1.34-2.58zm6.61 15.73v-.88a.38.38 0 0 0 -.76 0v.88h-7.47v-.88a.38.38 0 1 0 -.76 0v.88h-2.1a7.64 7.64 0 0 1 3.22-6l3.11 3.13a.34.34 0 0 0 .27.12.34.34 0 0 0 .26-.12l3.11-3.13a7.64 7.64 0 0 1 3.22 6z"/><path d="m8.53.32a2.71 2.71 0 0 0 -2.53-.06c-1.09.44-.34 2.24-.34 2.24a1.55 1.55 0 0 1 .59-.41c-.05-.09-.41-1.09.22-1.38a1.64 1.64 0 0 1 1.53.03c.19.2.4.46 0 1.53 0 0 0 0-.26-.16s-.24.18-.24.18a2.42 2.42 0 0 0 -.86-.06c-.27 0-.34-.22-.4-.15l.29-.08a2.3 2.3 0 0 1 1.28.32l.37.18c.38.18.43.26.43.26.58-1.76.23-2.13-.08-2.44z"/></g></svg>