<svg viewBox="0 0 15.99 17.54" xmlns="http://www.w3.org/2000/svg"><path d="m11 9.77v-1.32a8 8 0 0 0 1.16-4.62c-.01-2.36-1.6-3.83-4.16-3.83a3.86 3.86 0 0 0 -4.15 3.83 8 8 0 0 0 1.15 4.47v1.47a8 8 0 0 0 -5 7.4.37.37 0 0 0 .37.37h15.26a.37.37 0 0 0 .36-.37 8 8 0 0 0 -4.99-7.4zm-2.4 7h-1.19l.45-2.28a.35.35 0 0 0 -.06-.28l-.58-.84.78-.48.78.52-.58.84a.35.35 0 0 0 -.06.28zm-1.23-4.34-1.71 1.15-1.47-2.58a5.86 5.86 0 0 1 .81-.42zm1.25 0 2.38-1.85a5.86 5.86 0 0 1 .78.42l-1.46 2.58zm-.7-3c-1.55 0-3.19-1.78-3.33-5.09a3.06 3.06 0 0 1 2.25-1.13 6.69 6.69 0 0 0 4.05 1.71 4 4 0 0 0 .48 0c-.29 3.25-1.92 4.46-3.45 4.46zm.08-8.7c2.17 0 3.42 1.13 3.42 3.1v.32c-2.15.32-4.14-1.53-4.16-1.55a.32.32 0 0 0 -.2-.1 3.18 3.18 0 0 0 -2.43.77 3.21 3.21 0 0 1 3.37-2.54zm-.08 9.38a3.64 3.64 0 0 0 2.34-.85v.74a.41.41 0 0 0 .05.18l-2.31 1.82-2.32-1.8a.32.32 0 0 0 .06-.2v-.82a3.24 3.24 0 0 0 2.18.93zm-4.33 1.3 1.63 2.87a.38.38 0 0 0 .23.18.39.39 0 0 0 .29-.05l.87-.59.51.72-.46 2.27h-3.29v-1a.37.37 0 1 0 -.73 0v1h-1.9a7.29 7.29 0 0 1 2.85-5.4zm9.76 5.4v-1a.36.36 0 0 0 -.36-.37.37.37 0 0 0 -.37.37v1h-3.29l-.45-2.27.5-.72.88.59c.09.08.26.05.29.05a.38.38 0 0 0 .23-.18l1.63-2.87a7.32 7.32 0 0 1 2.84 5.4z" fill="#002852"/></svg>