<svg viewBox="0 0 19.87 14.97" xmlns="http://www.w3.org/2000/svg"><g fill="#002852"><path d="m18.33 15h-16.8a1.54 1.54 0 0 1 -1.53-1.57v-.9a.47.47 0 0 1 .46-.46h19a.47.47 0 0 1 .46.46v.9a1.54 1.54 0 0 1 -1.59 1.57zm-17.45-2.1v.56c0 .37.43.68 1 .68h16.12c.53 0 .95-.31.95-.68v-.56z"/><path d="m19 12.62h-18.1a.28.28 0 0 1 -.28-.28v-12.07a.28.28 0 0 1 .28-.27h18.1a.27.27 0 0 1 .27.27v12.07a.27.27 0 0 1 -.27.28zm-17.5-.75h16.89v-11.12h-16.92z"/><path d="m17.65 11.36h-15.43a.29.29 0 0 1 -.28-.28v-9.54a.29.29 0 0 1 .28-.28h15.43a.28.28 0 0 1 .27.28v9.54a.28.28 0 0 1 -.27.28zm-15.16-.55h14.88v-9h-14.88z"/><path d="m11.33 10.33a.28.28 0 0 1 -.28-.27v-1.51a.28.28 0 0 1 .28-.27.27.27 0 0 1 .27.27v1.51a.27.27 0 0 1 -.27.27z"/><path d="m9.93 5.39a1.47 1.47 0 1 1 1.47-1.47 1.46 1.46 0 0 1 -1.47 1.47zm0-2.39a.92.92 0 1 0 .92.92.92.92 0 0 0 -.92-.92z"/><path d="m8.54 10.33a.28.28 0 0 1 -.28-.27v-1.51a.28.28 0 0 1 .28-.27.27.27 0 0 1 .27.27v1.51a.27.27 0 0 1 -.27.27z"/><path d="m12.66 10.33h-5.45a.27.27 0 0 1 -.28-.27v-2.38a1.92 1.92 0 0 1 1.71-1.91.27.27 0 1 1 .06.54 1.37 1.37 0 0 0 -1.22 1.37v2.1h4.9v-2.1a1.37 1.37 0 0 0 -1.21-1.37.29.29 0 0 1 -.25-.3.28.28 0 0 1 .31-.24 1.92 1.92 0 0 1 1.7 1.91v2.38a.27.27 0 0 1 -.27.27z"/><path d="m12.13 14.07h-4.4a1.18 1.18 0 0 1 -1.18-1.18v-.55a.28.28 0 0 1 .28-.27h6.17a.27.27 0 0 1 .27.27v.55a1.18 1.18 0 0 1 -1.14 1.18zm-5-1.45v.27a.63.63 0 0 0 .63.63h4.4a.63.63 0 0 0 .63-.63v-.27z"/></g></svg>