<svg viewBox="0 0 13.45 22.46" xmlns="http://www.w3.org/2000/svg"><g fill="#002852" stroke="#002852" stroke-linecap="round" stroke-linejoin="round" stroke-width=".17"><path d="m6.82 7.25a3.59 3.59 0 1 1 3.58-3.58 3.58 3.58 0 0 1 -3.58 3.58zm0-6.43a2.85 2.85 0 1 0 2.84 2.85 2.86 2.86 0 0 0 -2.84-2.85z"/><path d="m6.75 8.63c-.92 0-1.61-.42-1.61-1v-1a.26.26 0 0 1 .11-.21.24.24 0 0 1 .23 0 3.09 3.09 0 0 0 2.52.1.24.24 0 0 1 .23 0 .25.25 0 0 1 .1.2v.91c.02.58-.67 1-1.58 1zm-1.13-1.63v.62c0 .2.44.49 1.13.49s1.12-.29 1.12-.49v-.53a3.61 3.61 0 0 1 -2.25-.09z"/><path d="m11.59 11.83a.21.21 0 0 1 -.18-.09 6.14 6.14 0 0 0 -9.32 0 .23.23 0 0 1 -.27.07.24.24 0 0 1 -.16-.22v-2a2.16 2.16 0 0 1 2.16-2.17h1.56a.24.24 0 0 1 .24.24c0 .2.44.49 1.13.49s1.12-.29 1.12-.49a.24.24 0 0 1 .24-.24h1.57a2.15 2.15 0 0 1 2.15 2.15v2a.22.22 0 0 1 -.16.22zm-4.84-2.76a7 7 0 0 1 4.34 1.46v-1.11a1.47 1.47 0 0 0 -1.58-1.32h-1.29a1.63 1.63 0 0 1 -1.47.58 1.64 1.64 0 0 1 -1.48-.58h-1.27a1.46 1.46 0 0 0 -1.59 1.32v1.11a7 7 0 0 1 4.34-1.46z"/><path d="m6.72 9a6.67 6.67 0 1 0 6.64 6.67 6.66 6.66 0 0 0 -6.64-6.67zm0 12.48a5.81 5.81 0 1 1 5.78-5.81 5.8 5.8 0 0 1 -5.78 5.85z"/><path d="m11.5 14.83a.87.87 0 0 1 -.67-.84.55.55 0 0 1 0-.18.86.86 0 0 1 -.64-.82s0-.07 0-.11a.85.85 0 0 1 -.72-.88.86.86 0 0 1 0-.28 4.86 4.86 0 0 0 -5.58 0 .87.87 0 0 1 .11.28.85.85 0 0 1 -.75.84v.16a.86.86 0 0 1 -.63.82 1.1 1.1 0 0 1 0 .18.87.87 0 0 1 -.68.84 4.86 4.86 0 0 0 -.09.92 4.51 4.51 0 0 0 .07.81 6.49 6.49 0 0 1 2.08-.67 3.07 3.07 0 0 1 2.69-1.36 3 3 0 0 1 2.72 1.36 6.67 6.67 0 0 1 2.11.66 4.54 4.54 0 0 0 .08-.81 4.88 4.88 0 0 0 -.1-.92zm-1.5-.33a5.85 5.85 0 0 0 -1.46-.32 2.47 2.47 0 0 0 -1.86-.65 2.48 2.48 0 0 0 -1.86.65 6 6 0 0 0 -1.46.32 1.74 1.74 0 0 1 0-.39 1.45 1.45 0 0 1 .07-.45c.26 0 .46-.2.46-.4a.28.28 0 0 0 0-.09c.25 0 .44-.2.44-.4a.11.11 0 0 0 0 0c.3 0 .52-.2.52-.41a.31.31 0 0 0 0-.13 4.41 4.41 0 0 1 1.93-.43 4.38 4.38 0 0 1 1.93.43.31.31 0 0 0 0 .13c0 .21.23.39.52.41 0 .2.18.36.44.4a.29.29 0 0 0 0 .09c0 .2.2.36.47.4a1.8 1.8 0 0 1 .06.45 1.31 1.31 0 0 1 -.2.39z"/><path d="m6.05 18.12a2.33 2.33 0 0 1 -1.53-1 .24.24 0 0 0 -.25-.12 4.1 4.1 0 0 0 -2 .77.25.25 0 0 0 -.06.32 5.35 5.35 0 0 0 3.79 2.45.23.23 0 0 0 .16-.06.28.28 0 0 0 .09-.19v-1.94a.24.24 0 0 0 -.2-.23zm-.62 1.62a3.83 3.83 0 0 1 -2.35-1.58 3.13 3.13 0 0 1 1.13-.41 2.22 2.22 0 0 0 1.22.83z"/><path d="m11.28 17.75a4.06 4.06 0 0 0 -2-.77.24.24 0 0 0 -.24.12 2.38 2.38 0 0 1 -1.53 1 .24.24 0 0 0 -.19.23v1.97a.25.25 0 0 0 .09.19.22.22 0 0 0 .15.06 5.37 5.37 0 0 0 3.73-2.47.25.25 0 0 0 -.01-.33zm-3.28 2.08v-1.26a2.54 2.54 0 0 0 1.34-.9 3.09 3.09 0 0 1 1.21.44 4.16 4.16 0 0 1 -2.55 1.72z"/><path d="m6.78 17.53c-.85 0-1.53-.5-1.53-1.14s.68-1.14 1.53-1.14 1.54.5 1.54 1.14-.68 1.14-1.54 1.14zm0-1.65c-.43 0-.8.23-.8.51s.37.5.8.5.81-.23.81-.5-.37-.51-.81-.51z"/></g></svg>