<svg viewBox="0 0 15.96 19.13" xmlns="http://www.w3.org/2000/svg"><g fill="#002852"><path d="m7.88 19.13a41.07 41.07 0 0 1 -5.36-.3c-2.09-.29-2.52-.64-2.52-1.09v-1c0-3.16 2.15-5.74 4.8-5.74a1.29 1.29 0 0 0 1.2-.87c0-.09 0-.18.08-.27a.35.35 0 0 1 .2-.24.36.36 0 0 1 .32 0 3 3 0 0 0 2.71 0 .34.34 0 0 1 .31 0 .36.36 0 0 1 .21.24c0 .09.05.18.07.27a1.3 1.3 0 0 0 1.24.89c2.67-.02 4.86 2.56 4.86 5.71v1c0 .45-.44.8-2.62 1.09a43.06 43.06 0 0 1 -5.5.31zm-7.14-1.48c.45.32 3.08.75 7.14.75s6.87-.44 7.35-.75v-.92c0-2.74-1.82-5-4.06-5a2 2 0 0 1 -1.9-1.31 3.67 3.67 0 0 1 -2.57 0 2 2 0 0 1 -1.9 1.31c-2.24 0-4.06 2.23-4.06 5z"/><path d="m8 10.68a3.77 3.77 0 0 1 -3.78-3.77v-.91a.37.37 0 0 1 .36-.37h6.8a.38.38 0 0 1 .37.37v.88a3.77 3.77 0 0 1 -3.75 3.8zm-3-4.28v.51a3 3 0 0 0 6.06 0v-.51z"/><path d="m6.56 2.86a.37.37 0 0 1 -.37-.37v-1.87a.37.37 0 0 1 .37-.37.36.36 0 0 1 .37.37v1.87a.36.36 0 0 1 -.37.37z"/><path d="m9.4 2.86a.37.37 0 0 1 -.4-.37v-1.87a.37.37 0 0 1 .4-.37.36.36 0 0 1 .37.37v1.87a.36.36 0 0 1 -.37.37z"/><path d="m8.08 19.13a43.28 43.28 0 0 1 -5.46-.3c-2.17-.29-2.62-.64-2.62-1.09v-1c0-3.16 2.15-5.74 4.8-5.74a1.29 1.29 0 0 0 1.2-.87c0-.09 0-.18.08-.27a.35.35 0 0 1 .2-.24.36.36 0 0 1 .32 0 3 3 0 0 0 2.71 0 .34.34 0 0 1 .31 0 .36.36 0 0 1 .21.24c0 .09.05.18.07.27a1.3 1.3 0 0 0 1.24.89c2.67-.02 4.86 2.56 4.86 5.71v1c0 .45-.42.8-2.51 1.09a41.23 41.23 0 0 1 -5.41.31zm-7.34-1.48c.47.31 3.24.75 7.34.75s6.69-.43 7.15-.75v-.92c0-2.74-1.82-5-4.06-5a2 2 0 0 1 -1.9-1.31 3.67 3.67 0 0 1 -2.57 0 2 2 0 0 1 -1.9 1.31c-2.24 0-4.06 2.23-4.06 5z"/><path d="m11.85 6.4h-7.73a1.11 1.11 0 0 1 -1.12-1.1v-.84a1.11 1.11 0 0 1 1.11-1.1h7.73a1.1 1.1 0 0 1 1.16 1.1v.84a1.1 1.1 0 0 1 -1.15 1.1zm-7.73-2.3a.37.37 0 0 0 -.37.36v.84a.37.37 0 0 0 .37.36h7.73a.36.36 0 0 0 .36-.36v-.84a.36.36 0 0 0 -.36-.36z"/><path d="m12.05 4.13h-.1-7.95a.36.36 0 0 1 -.34-.13.38.38 0 0 1 -.11-.34 4.51 4.51 0 0 1 8.87 0 .38.38 0 0 1 -.12.34.35.35 0 0 1 -.25.13zm-7.66-.77h7.18a3.77 3.77 0 0 0 -7.18 0z"/><path d="m8.08 19.13a43.28 43.28 0 0 1 -5.46-.3c-2.17-.29-2.62-.64-2.62-1.09v-1c0-3.16 2.15-5.74 4.8-5.74a1.29 1.29 0 0 0 1.2-.87c0-.09 0-.18.08-.27a.35.35 0 0 1 .2-.24.36.36 0 0 1 .32 0 3 3 0 0 0 2.71 0 .34.34 0 0 1 .31 0 .36.36 0 0 1 .21.24c0 .09.05.18.07.27a1.3 1.3 0 0 0 1.24.89c2.67-.02 4.86 2.56 4.86 5.71v1c0 .45-.42.8-2.51 1.09a41.23 41.23 0 0 1 -5.41.31zm-7.34-1.48c.47.31 3.24.75 7.34.75s6.69-.43 7.15-.75v-.92c0-2.74-1.82-5-4.06-5a2 2 0 0 1 -1.9-1.31 3.67 3.67 0 0 1 -2.57 0 2 2 0 0 1 -1.9 1.31c-2.24 0-4.06 2.23-4.06 5z"/></g></svg>