<svg viewBox="0 0 23.78 23.36" xmlns="http://www.w3.org/2000/svg"><g fill="#002852"><path d="m8.15 23.36a2.26 2.26 0 0 1 -2.26-2.25v-5.33a2.26 2.26 0 1 1 4.52 0v5.33a2.26 2.26 0 0 1 -2.26 2.25zm0-9.07a1.49 1.49 0 0 0 -1.49 1.49v5.33a1.5 1.5 0 0 0 3 0v-5.33a1.5 1.5 0 0 0 -1.51-1.49z"/><path d="m11.27 18.58a.39.39 0 0 1 -.21-.06.4.4 0 0 1 -.17-.32v-2.42a.39.39 0 0 1 .77 0v1.79a2.94 2.94 0 0 0 1.34-2.45v-.21a4.82 4.82 0 1 0 -9.63 0v.21a2.94 2.94 0 0 0 1.31 2.45v-1.79a.38.38 0 1 1 .76 0v2.42a.37.37 0 0 1 -.17.32.36.36 0 0 1 -.35 0 3.67 3.67 0 0 1 -2.31-3.43v-.21a5.58 5.58 0 1 1 11.15 0v.21a3.69 3.69 0 0 1 -2.31 3.43.4.4 0 0 1 -.18.06z"/><path d="m5 16.16a.38.38 0 0 1 -.38-.38 3.47 3.47 0 0 1 .1-.85.39.39 0 0 1 .47-.28.39.39 0 0 1 .27.47 2.91 2.91 0 0 0 -.08.66.38.38 0 0 1 -.38.38z"/><path d="m5.92 14a.38.38 0 0 1 -.26-.11.37.37 0 0 1 0-.54 3.45 3.45 0 0 1 1.58-.93.38.38 0 0 1 .2.74 2.7 2.7 0 0 0 -1.23.72.39.39 0 0 1 -.29.12zm4.46 0a.38.38 0 0 1 -.28-.11 2.77 2.77 0 0 0 -1.23-.73.36.36 0 0 1 -.27-.46.37.37 0 0 1 .47-.27 3.57 3.57 0 0 1 1.58.92.38.38 0 0 1 0 .54.34.34 0 0 1 -.27.11z"/><path d="m11.27 16.16a.38.38 0 0 1 -.38-.38 2.91 2.91 0 0 0 -.08-.66.38.38 0 1 1 .74-.19 3.48 3.48 0 0 1 .11.85.38.38 0 0 1 -.39.38z"/><path d="m11.27 18.58h-1.27a.38.38 0 0 1 0-.76h1.24a.38.38 0 1 1 0 .76z"/><path d="m6.28 18.58h-1.28a.38.38 0 1 1 0-.76h1.28a.38.38 0 0 1 0 .76z"/><path d="m6 10.58a.36.36 0 0 1 -.2-.06 4.47 4.47 0 1 1 4.77 0 .38.38 0 0 1 -.37 0 4.83 4.83 0 0 0 -4 0 .29.29 0 0 1 -.2.06zm2.15-7.58a3.65 3.65 0 0 0 -2.47 1 3.7 3.7 0 0 0 .32 5.76 5.57 5.57 0 0 1 4.28 0 3.7 3.7 0 0 0 -1.7-6.71z"/><path d="m15.3 6.56h-3.1a.37.37 0 0 1 -.37-.33 3.8 3.8 0 0 0 -.35-1.13.41.41 0 0 1 0-.37.39.39 0 0 1 .33-.18h3.49a1 1 0 0 1 0 2zm-2.77-.76h2.77a.24.24 0 0 0 0-.48h-2.91a4.34 4.34 0 0 1 .14.48z"/><path d="m4.1 6.56h-3.1a1 1 0 0 1 0-2h3.48a.38.38 0 0 1 .32.18.4.4 0 0 1 0 .38 3.64 3.64 0 0 0 -.34 1.12.39.39 0 0 1 -.36.32zm-3.1-1.24a.24.24 0 0 0 0 .48h2.78a4.27 4.27 0 0 1 .13-.48z"/><path d="m13 13.44a.38.38 0 0 1 -.39-.39v-2.05a3.56 3.56 0 0 0 -1-2.45.38.38 0 1 1 .55-.52 4.28 4.28 0 0 1 1.19 3v2a.38.38 0 0 1 -.35.41z"/><path d="m3.3 13.44a.38.38 0 0 1 -.38-.39v-2.05a4.32 4.32 0 0 1 1.18-3 .38.38 0 0 1 .54 0 .39.39 0 0 1 0 .54 3.57 3.57 0 0 0 -1 2.45v2a.38.38 0 0 1 -.34.45z"/><path d="m13.87 5.32a.38.38 0 0 1 -.38-.38v-2.46a1.73 1.73 0 0 0 -1.72-1.72h-7.24a1.73 1.73 0 0 0 -1.72 1.72v2.46a.38.38 0 1 1 -.76 0v-2.46a2.48 2.48 0 0 1 2.48-2.48h7.24a2.49 2.49 0 0 1 2.49 2.48v2.46a.38.38 0 0 1 -.39.38z"/><path d="m15.18 23.36h-14a.38.38 0 1 1 0-.76h14a.38.38 0 0 1 0 .76z"/><path d="m17 10a2.52 2.52 0 0 1 2 .22.2.2 0 0 1 .08.26.19.19 0 0 1 -.25.08 2.13 2.13 0 0 0 -3 .9 2.36 2.36 0 0 0 -.14 1.75l.64-1.27a.17.17 0 0 1 .16-.09h1.58a.18.18 0 0 1 .16.09l.85 1.4a.19.19 0 0 1 0 .19l-.64 1.26a2.1 2.1 0 0 0 1.3-1.09 2.34 2.34 0 0 0 -.07-2.25.19.19 0 0 1 .06-.26.18.18 0 0 1 .25.07 2.72 2.72 0 0 1 .02 2.54 2.54 2.54 0 0 1 -2 1.37.21.21 0 0 1 -.18-.09.19.19 0 0 1 0-.19l.77-1.53-.73-1.21h-1.37l-.78 1.53a.15.15 0 0 1 -.16.09.18.18 0 0 1 -.16-.1 2.73 2.73 0 0 1 0-2.46 2.47 2.47 0 0 1 1.61-1.21z" stroke="#002852" stroke-linecap="round" stroke-linejoin="round" stroke-width=".33"/><path d="m21.32 2.66a1.7 1.7 0 0 1 1.37.2 1.9 1.9 0 0 1 .69 2.45 1.69 1.69 0 0 1 -.51.61 1.37 1.37 0 0 0 -.45.52l-2.52 4.94a.17.17 0 0 1 -.25.07.19.19 0 0 1 -.08-.25l2.52-4.95a1.86 1.86 0 0 1 .56-.64 1.36 1.36 0 0 0 .41-.48 1.5 1.5 0 0 0 -.55-1.94 1.35 1.35 0 0 0 -1.06-.19 1.33 1.33 0 0 0 -.84.7 1.4 1.4 0 0 0 -.16.66 1.93 1.93 0 0 1 -.22.86l-2.5 4.9a.17.17 0 0 1 -.24.07.19.19 0 0 1 -.08-.25l2.49-4.9a1.48 1.48 0 0 0 .18-.69 1.82 1.82 0 0 1 .2-.83 1.74 1.74 0 0 1 1.04-.86z" stroke="#002852" stroke-linecap="round" stroke-linejoin="round" stroke-width=".33"/><path d="m21.6 3.6a.82.82 0 0 1 .63.07.87.87 0 0 1 .41.51.91.91 0 0 1 -.06.65.81.81 0 0 1 -1.11.34.87.87 0 0 1 -.41-.51.82.82 0 0 1 .06-.66.78.78 0 0 1 .48-.4zm.4 1.16a.34.34 0 0 0 .2-.17.35.35 0 0 0 -.2-.48.32.32 0 0 0 -.46.14.36.36 0 0 0 0 .27.39.39 0 0 0 .17.21.34.34 0 0 0 .29.03z"/></g></svg>