<svg viewBox="0 0 15.53 19.5" xmlns="http://www.w3.org/2000/svg"><path d="m12.67 12.69a4.87 4.87 0 0 0 1.1-2.69c0-.3 1-7.47-4-9.64a4.7 4.7 0 0 0 -3.59 0 5.3 5.3 0 0 0 -2.68 3.57 7.65 7.65 0 0 0 -.43 2.4c-.07.93-.13 1.74-.61 2.11a2.62 2.62 0 0 1 -2 .2.38.38 0 0 0 -.36.12.42.42 0 0 0 -.1.37 6.85 6.85 0 0 0 3.2 4.16 8.47 8.47 0 0 0 -2.2 5.81.4.4 0 0 0 .41.4h13.71a.41.41 0 0 0 .41-.4 8.37 8.37 0 0 0 -2.86-6.41zm-11.67-3.17a2.8 2.8 0 0 0 2-.44c.75-.6.83-1.61.91-2.69a7.46 7.46 0 0 1 .35-2.19 4.57 4.57 0 0 1 2.26-3.09 3.91 3.91 0 0 1 2.94 0c4.4 1.89 3.54 8.71 3.54 8.79a4 4 0 0 1 -1 2.29 2.47 2.47 0 0 1 -1-2v-.27a5.64 5.64 0 0 0 1-3.37c0-1.61-.3-2.69-1-3.28a1.64 1.64 0 0 0 -1-.39 1.74 1.74 0 0 0 -1.31.6 7.81 7.81 0 0 0 -.93 1.3.9.9 0 0 1 -1.13.36 1.46 1.46 0 0 0 -1.5.14 1.67 1.67 0 0 0 -.67 1.5 5.59 5.59 0 0 0 1 3v.39a2.48 2.48 0 0 1 -1.06 2.05c-.2.14-.39.29-.58.45a5.92 5.92 0 0 1 -2.82-3.15zm7.19.94c-1.32 0-2.75-1.29-2.91-3.74a1 1 0 0 1 .33-.78c.2-.22.6-.1.73-.05a1.79 1.79 0 0 0 .66.11 1.63 1.63 0 0 0 1.46-.84 8.67 8.67 0 0 1 .84-1.16 1 1 0 0 1 .7-.32.87.87 0 0 1 .54.19 3.46 3.46 0 0 1 .71 2.65c-.11 3.65-2.38 3.94-3.07 3.94zm-1.91.14a3.22 3.22 0 0 0 1.91.67 3.59 3.59 0 0 0 2.06-.63 3.3 3.3 0 0 0 .75 1.68l-2.75 2.76-2.73-2.76a3.27 3.27 0 0 0 .75-1.72zm6.44 8.09v-.83a.41.41 0 0 0 -.81 0v.83h-7.3v-.83a.41.41 0 0 0 -.81 0v.83h-2a7.4 7.4 0 0 1 3.08-5.78l3 3.06a.4.4 0 0 0 .29.12.38.38 0 0 0 .29-.12l3-3.06a7.37 7.37 0 0 1 3.08 5.78z"/></svg>