<svg viewBox="0 0 18.25 18.29" xmlns="http://www.w3.org/2000/svg"><g fill="#002852" stroke="#002852" stroke-linecap="round" stroke-linejoin="round" stroke-width=".26"><path d="m2.89 18.16a.27.27 0 0 1 -.27-.27v-1.05a.27.27 0 0 1 .54 0v1.05a.27.27 0 0 1 -.27.27z"/><path d="m2.89 14a.27.27 0 0 1 -.27-.27v-13.33a.27.27 0 0 1 .54 0v13.3a.27.27 0 0 1 -.27.3z"/><path d="m9.12 4.3a.27.27 0 0 1 -.27-.3v-3.6a.27.27 0 0 1 .27-.27.28.28 0 0 1 .28.27v3.6a.28.28 0 0 1 -.28.3z"/><path d="m15.36 18.16a.27.27 0 0 1 -.27-.27v-1a.27.27 0 0 1 .54 0v1a.27.27 0 0 1 -.27.27z"/><path d="m15.36 14a.27.27 0 0 1 -.27-.27v-13.33a.27.27 0 1 1 .54 0v13.3a.27.27 0 0 1 -.27.3z"/><path d="m17.85 3.18h-17.45a.27.27 0 1 1 0-.54h17.45a.27.27 0 0 1 0 .54z"/><path d="m6.39 9.42h-5.99a.27.27 0 0 1 -.27-.27.28.28 0 0 1 .27-.28h6a.28.28 0 0 1 .27.28.27.27 0 0 1 -.28.27z"/><path d="m17.85 9.42h-5.75a.27.27 0 0 1 -.27-.27.28.28 0 0 1 .27-.28h5.75a.28.28 0 0 1 .27.28.27.27 0 0 1 -.27.27z"/><path d="m2.09 15.65h-1.69a.27.27 0 0 1 0-.54h1.69a.27.27 0 0 1 0 .54z"/><path d="m17.85 15.65h-1.85a.27.27 0 0 1 0-.54h1.87a.27.27 0 1 1 0 .54z"/><path d="m11.67 18.16h-5.1a.27.27 0 0 1 -.27-.27v-4.15l-1.38 2.26a1.09 1.09 0 0 1 -1.92-.17 1.11 1.11 0 0 1 .11-1l2.66-4.12a2.26 2.26 0 0 1 1.89-1h2.94a2.24 2.24 0 0 1 1.89 1l2.68 4.15a1.09 1.09 0 0 1 .08 1 1.06 1.06 0 0 1 -.91.6 1.13 1.13 0 0 1 -1-.54l-1.35-2.19v4.15a.27.27 0 0 1 -.32.28zm-4.82-.54h4.55v-4.84a.27.27 0 0 1 .19-.26.26.26 0 0 1 .31.12l1.85 3a.61.61 0 0 0 .55.28.52.52 0 0 0 .44-.29.55.55 0 0 0 0-.53l-2.74-4.1a1.69 1.69 0 0 0 -1.43-.78h-2.92a1.69 1.69 0 0 0 -1.43.78l-2.67 4.08a.61.61 0 0 0 -.06.54.52.52 0 0 0 .51.38.54.54 0 0 0 .51-.25l1.88-3.06a.26.26 0 0 1 .31-.12.27.27 0 0 1 .2.26z"/><path d="m9.12 9.19a2.16 2.16 0 1 1 2.15-2.19 2.16 2.16 0 0 1 -2.15 2.19zm0-3.77a1.61 1.61 0 1 0 1.61 1.58 1.61 1.61 0 0 0 -1.61-1.58z"/><path d="m17.85 18.16h-17.45a.27.27 0 1 1 0-.54h17.45a.27.27 0 0 1 0 .54z"/><path d="m9.12 12.45a.27.27 0 0 1 -.27-.27v-.41a.27.27 0 1 1 .54 0v.41a.27.27 0 0 1 -.27.27z"/><path d="m9.12 14.3a.27.27 0 0 1 -.27-.3v-.46a.27.27 0 1 1 .54 0v.46a.27.27 0 0 1 -.27.3z"/><path d="m9.12 16.1a.27.27 0 0 1 -.27-.27v-.41a.27.27 0 0 1 .54 0v.41a.27.27 0 0 1 -.27.27z"/></g></svg>