<svg viewBox="0 0 20.81 16.58" xmlns="http://www.w3.org/2000/svg"><g fill="#002852"><path d="m4 2.87a.23.23 0 0 1 -.14 0 .25.25 0 0 1 -.09-.36l.88-1.51a.27.27 0 0 1 .35 0 .26.26 0 0 1 .09.37l-.84 1.37a.29.29 0 0 1 -.25.13z"/><path d="m7.85 16.58a1.69 1.69 0 0 1 -.73-.16 1.75 1.75 0 0 1 -.93-1 1.78 1.78 0 0 1 0-1.36 1.74 1.74 0 0 1 1-.93 1.77 1.77 0 1 1 .63 3.43zm0-3a1.11 1.11 0 0 0 -.44.08 1.22 1.22 0 0 0 -.69.65 1.21 1.21 0 0 0 0 .95 1.24 1.24 0 0 0 .65.68 1.21 1.21 0 0 0 .95 0 1.24 1.24 0 0 0 -.44-2.39z"/><path d="m7.85 15.54a.74.74 0 0 1 -.69-.47.72.72 0 0 1 0-.56.72.72 0 0 1 .41-.39.73.73 0 0 1 .94.43.7.7 0 0 1 0 .55.73.73 0 0 1 -.4.39.85.85 0 0 1 -.26.05zm0-.93h-.07a.22.22 0 0 0 -.11.1.18.18 0 0 0 0 .16.2.2 0 0 0 .26.11.22.22 0 0 0 .11-.1.19.19 0 0 0 0-.15.18.18 0 0 0 -.1-.11.13.13 0 0 0 -.09-.01z"/><path d="m8.6 13.77a.2.2 0 0 1 -.13 0 1.23 1.23 0 0 0 -.42-.14.27.27 0 0 1 -.2-.17l-4-10.6-3.13-.86a1 1 0 0 1 -.72-1 1 1 0 0 1 .35-.78 1 1 0 0 1 .91-.22l3.68.92a.29.29 0 0 1 .19.17l4 10.52 10.43-4a.93.93 0 0 1 .66 1.73l-11.53 4.41zm-.31-.68a1.85 1.85 0 0 1 .33.12l11.38-4.34a.39.39 0 0 0 .21-.21.37.37 0 0 0 0-.29.4.4 0 0 0 -.5-.23l-10.64 4.07a.28.28 0 0 1 -.2 0 .23.23 0 0 1 -.14-.15l-4.05-10.65-3.55-.86a.51.51 0 0 0 -.44.08.47.47 0 0 0 .18.8l3.22.92a.26.26 0 0 1 .18.16z"/><path d="m9.25 14.54a.25.25 0 0 1 -.19-.09.27.27 0 0 1 0-.38l1.94-1.74a.27.27 0 0 1 .38 0 .26.26 0 0 1 0 .37l-1.95 1.77a.29.29 0 0 1 -.18.07z"/><path d="m10 11.83a.28.28 0 0 1 -.25-.17l-1.43-3.8a.27.27 0 0 1 .15-.35l4-1.52a.25.25 0 0 1 .34.15l1.45 3.8a.27.27 0 0 1 0 .2.23.23 0 0 1 -.15.14l-4 1.53zm-1.09-3.91 1.26 3.3 3.52-1.34-1.26-3.3z"/><path d="m10.75 9.85a.26.26 0 0 1 -.25-.17l-.5-1.34a.27.27 0 0 1 .14-.34.28.28 0 0 1 .35.15l.51 1.34a.28.28 0 0 1 -.16.35z"/><path d="m10 9.13h-.09a.26.26 0 0 1 -.16-.34l.25-.63a.24.24 0 0 1 .14-.16.28.28 0 0 1 .22 0l.58.31a.27.27 0 1 1 -.25.47l-.31-.16-.12.38a.27.27 0 0 1 -.26.13z"/><path d="m12.14 9.33a.27.27 0 0 1 -.25-.18l-.51-1.34a.27.27 0 0 1 .15-.34.28.28 0 0 1 .35.15l.51 1.38a.27.27 0 0 1 -.16.35z"/><path d="m11.4 8.6h-.09a.26.26 0 0 1 -.16-.34l.23-.61a.24.24 0 0 1 .15-.16.28.28 0 0 1 .22 0l.58.31a.27.27 0 1 1 -.25.47l-.31-.16-.12.32a.27.27 0 0 1 -.25.17z"/><path d="m10.64 10.79a.27.27 0 0 1 -.24-.17.26.26 0 0 1 .15-.35l2.19-.83a.26.26 0 0 1 .35.15.28.28 0 0 1 -.16.35l-2.19.83z"/><path d="m15.07 9.91a.23.23 0 0 1 -.11 0 .29.29 0 0 1 -.14-.15l-1.44-3.8a.25.25 0 0 1 .15-.34l4-1.53a.28.28 0 0 1 .2 0 .23.23 0 0 1 .14.15l1.47 3.76a.27.27 0 0 1 -.16.34l-4 1.53zm-1.07-3.91 1.26 3.3 3.48-1.3-1.25-3.35z"/><path d="m15.81 7.93a.27.27 0 0 1 -.25-.17l-.51-1.34a.26.26 0 1 1 .49-.19l.51 1.34a.25.25 0 0 1 -.15.34z"/><path d="m15.07 7.2h-.07a.27.27 0 0 1 -.16-.35l.16-.62a.31.31 0 0 1 .16-.16.28.28 0 0 1 .22 0l.62.33a.27.27 0 0 1 .11.36.28.28 0 0 1 -.37.11l-.3-.17-.12.3a.26.26 0 0 1 -.25.2z"/><path d="m17.2 7.4a.26.26 0 0 1 -.2-.17l-.51-1.34a.26.26 0 0 1 .15-.35.28.28 0 0 1 .35.16l.46 1.3a.26.26 0 0 1 -.16.34.15.15 0 0 1 -.09.06z"/><path d="m16.46 6.67h-.09a.27.27 0 0 1 -.16-.35l.23-.61a.26.26 0 0 1 .15-.16.28.28 0 0 1 .22 0l.58.31a.27.27 0 0 1 -.25.47l-.31-.17-.12.33a.26.26 0 0 1 -.25.18z"/><path d="m15.7 8.86a.26.26 0 0 1 -.25-.17.26.26 0 0 1 .16-.34l2.19-.84a.26.26 0 0 1 .34.16.26.26 0 0 1 -.14.33l-2.19.84z"/><path d="m10.91 7.14h-.11a.26.26 0 0 1 -.14-.14l-1.45-3.83a.28.28 0 0 1 .16-.35l4-1.52a.26.26 0 0 1 .21 0 .29.29 0 0 1 .14.15l1.44 3.8a.26.26 0 0 1 -.15.34l-4.01 1.53zm-1.11-3.91 1.26 3.3 3.52-1.34-1.26-3.3z"/><path d="m11.64 5.16a.26.26 0 0 1 -.25-.16l-.51-1.34a.27.27 0 0 1 .12-.35.27.27 0 0 1 .34.15l.51 1.34a.28.28 0 0 1 -.15.35z"/><path d="m10.91 4.44h-.1a.26.26 0 0 1 -.15-.34l.22-.61a.25.25 0 0 1 .12-.18.28.28 0 0 1 .22 0l.57.31a.27.27 0 1 1 -.25.47l-.3-.16-.12.32a.28.28 0 0 1 -.21.19z"/><path d="m13 4.64a.27.27 0 0 1 -.25-.18l-.51-1.34a.27.27 0 0 1 .16-.34.27.27 0 0 1 .34.15l.51 1.34a.28.28 0 0 1 -.15.35z"/><path d="m12.3 3.91h-.1a.27.27 0 0 1 -.15-.34l.22-.61a.25.25 0 0 1 .16-.16.28.28 0 0 1 .22 0l.57.31a.27.27 0 0 1 -.25.47l-.3-.16-.12.32a.27.27 0 0 1 -.25.17z"/><path d="m11.54 6.1a.27.27 0 0 1 -.25-.17.27.27 0 0 1 .15-.35l2.19-.83a.26.26 0 0 1 .37.15.28.28 0 0 1 -.16.35l-2.19.83z"/><path d="m16.46 16.58h-11.76a.27.27 0 0 1 0-.54h11.76a.27.27 0 0 1 0 .54z"/><path d="m1.07 16.58h-.8a.27.27 0 0 1 0-.54h.8a.27.27 0 0 1 0 .54z"/><path d="m3 16.58h-1a.27.27 0 0 1 0-.58h1a.27.27 0 0 1 0 .54z"/><path d="m4.7 16.58h-.81a.27.27 0 0 1 0-.54h.81a.27.27 0 0 1 0 .54z"/></g></svg>