<svg viewBox="0 0 19.27 15.37" xmlns="http://www.w3.org/2000/svg"><g fill="#002852" stroke="#002852" stroke-linecap="round" stroke-linejoin="round" stroke-width=".25"><path d="m17.36 15.24h-15.45a1.78 1.78 0 0 1 -1.78-1.78v-.71a.53.53 0 0 1 .53-.53h18a.53.53 0 0 1 .53.53v.71a1.78 1.78 0 0 1 -1.83 1.78zm-16.66-2.45v.67a1.21 1.21 0 0 0 1.21 1.21h15.45a1.21 1.21 0 0 0 1.21-1.21v-.67z"/><path d="m17.92 12.79h-16.57a.29.29 0 0 1 -.29-.29v-10a1 1 0 0 1 1-1h6.24a.29.29 0 1 1 0 .57h-6.2a.47.47 0 0 0 -.47.46v9.71h16v-9.73a.46.46 0 0 0 -.46-.46h-1.83a.29.29 0 1 1 0-.57h1.83a1 1 0 0 1 1 1v10a.29.29 0 0 1 -.25.31z"/><path d="m16.45 11.29h-13.63a.27.27 0 0 1 -.28-.29v-7.74a.28.28 0 0 1 .28-.26h5.46a.29.29 0 0 1 0 .58h-5.17v7.17h13.05v-7.2h-.82a.29.29 0 0 1 0-.58h1.11a.28.28 0 0 1 .28.29v7.74a.27.27 0 0 1 -.28.29z"/><path d="m10 9.78h-4a.29.29 0 0 1 -.29-.29v-1.49a1.07 1.07 0 0 1 1.1-1.06h2.43a1.07 1.07 0 0 1 1.07 1.06v1.49a.29.29 0 0 1 -.31.29zm-3.68-.58h3.41v-1.2a.49.49 0 0 0 -.49-.49h-2.43a.49.49 0 0 0 -.49.49z"/><path d="m8 6.55a1.21 1.21 0 1 1 1.2-1.2 1.21 1.21 0 0 1 -1.2 1.2zm0-1.83a.63.63 0 1 0 .63.63.63.63 0 0 0 -.63-.63z"/><path d="m11 4.89a.32.32 0 0 1 -.14 0 .31.31 0 0 1 -.15-.27v-.82h-.86a.79.79 0 0 1 -.79-.8v-2.09a.78.78 0 0 1 .79-.78h3.81a.79.79 0 0 1 .79.78v2.09a.79.79 0 0 1 -.79.79h-1.06l-1.47 1.05a.34.34 0 0 1 -.13.05zm-1.15-4.19a.21.21 0 0 0 -.22.21v2.09a.21.21 0 0 0 .22.21h1.15a.29.29 0 0 1 .2.09.26.26 0 0 1 .08.21v.53l1.07-.77a.23.23 0 0 1 .16-.06h1.16a.21.21 0 0 0 .2-.21v-2.09a.21.21 0 0 0 -.21-.21z"/><path d="m7.12 9.78a.29.29 0 0 1 -.29-.29v-.64a.29.29 0 0 1 .57 0v.64a.29.29 0 0 1 -.28.29z"/><path d="m8.93 9.78a.29.29 0 0 1 -.28-.29v-.64a.29.29 0 0 1 .57 0v.64a.29.29 0 0 1 -.29.29z"/><path d="m15 14h-10.7a.29.29 0 1 1 0-.58h10.7a.29.29 0 1 1 0 .58z"/><path d="m14.16 9.78h-9.43a.29.29 0 0 1 0-.58h9.43a.29.29 0 1 1 0 .58z"/></g></svg>