<svg viewBox="0 0 133.67 82.14" xmlns="http://www.w3.org/2000/svg"><path d="m102.54 66.57v-52.91s4 2.76 7.34-2.44a26.66 26.66 0 0 0 4-8.8h17.39v77.3h-17.4s3.35-15.59-11.33-13.15z" fill="#6fcbdb"/><circle cx="36.09" cy="26.44" fill="#6fcbdb" r="5.83"/><g fill="none" stroke="#002852"><path d="m113.87 2.42a12.61 12.61 0 0 1 -25.22 0h-86.23v77.3h86.23a12.61 12.61 0 0 1 25.22 0h17.39v-77.3z" stroke-linecap="round" stroke-linejoin="round" stroke-width="4.83"/><path d="m15.3 66.84h19.33" stroke-linecap="round" stroke-linejoin="round" stroke-width="4.83"/><path d="m44.29 66.84h12.88" stroke-linecap="round" stroke-linejoin="round" stroke-width="4.83"/><path d="m63.62 66.84h12.88" stroke-linecap="round" stroke-linejoin="round" stroke-width="4.83"/><path d="m102.27 15.3v54.76" stroke-dasharray="9.66 9.66" stroke-linecap="round" stroke-linejoin="round" stroke-width="4.83"/><path d="m32.84 54.68 27-39.1" stroke-linecap="round" stroke-linejoin="round" stroke-width="5.27"/><circle cx="36.09" cy="26.44" r="5.83" stroke-miterlimit="10" stroke-width="3"/></g><circle cx="59.17" cy="39.09" fill="#6fcbdb" r="5.83"/><circle cx="59.17" cy="39.09" fill="none" r="5.83" stroke="#002852" stroke-miterlimit="10" stroke-width="3"/></svg>