<svg viewBox="0 0 18.26 24.41" xmlns="http://www.w3.org/2000/svg"><g stroke="#002852" stroke-miterlimit="10" stroke-width=".39"><path d="m17.79 1.87h-3.07v-1.39a.28.28 0 0 0 -.28-.28h-10.61a.27.27 0 0 0 -.28.28v1.39h-3.07a.28.28 0 0 0 -.28.28v3.35a3.62 3.62 0 0 0 3.4 3.61 5.57 5.57 0 0 0 5.25 5v3.38h-3.35a.28.28 0 0 0 -.28.28v3.63h-1.39a.27.27 0 0 0 -.28.28v1.95h-1.4a.29.29 0 0 0 -.28.28.28.28 0 0 0 .28.28h14a.27.27 0 0 0 .28-.28.28.28 0 0 0 -.28-.28h-1.43v-1.93a.28.28 0 0 0 -.28-.28h-1.44v-3.63a.27.27 0 0 0 -.28-.28h-3.31v-3.38a5.55 5.55 0 0 0 5.25-5 3.62 3.62 0 0 0 3.41-3.63v-3.35a.29.29 0 0 0 -.28-.28zm-3.63 21.78h-10v-1.65h10zm-1.68-2.23h-6.7v-3.35h6.7zm-8.37-20.66h10.05v2.24h-10v-2.24zm5 2.79h1.68v3.51l-.64-.64a.29.29 0 0 0 -.4 0l-.64.64zm-8.35 1.95v-3.07h2.79v6.13a3.07 3.07 0 0 1 -2.79-3.06zm8.37 8.1a5 5 0 0 1 -5-5v-2.82h2.49a.28.28 0 0 0 .28-.28.29.29 0 0 0 -.28-.28h-2.51v-1.67h4.46v4.19a.27.27 0 0 0 .18.26.26.26 0 0 0 .3-.06l.95-.94.92.92a.25.25 0 0 0 .2.09.19.19 0 0 0 .1 0 .27.27 0 0 0 .18-.25v-4.21h2.79v5a5 5 0 0 1 -5.06 5.05zm8.38-8.1a3.08 3.08 0 0 1 -2.79 3.06v-6.13h2.79z" fill="#002852"/><g fill="#6fcbdb"><path d="m4.11.76h10.05v1.39.84h-3.07-2.24-4.74v-.84z"/><path d="m9.13 3.55h1.68v3.51l-.64-.64a.29.29 0 0 0 -.4 0l-.64.64z"/><path d="m5.78 18.07h6.7v3.35h-6.7z"/></g></g></svg>