<svg viewBox="0 0 15.89 15.89" xmlns="http://www.w3.org/2000/svg"><path d="m8 .59a7.35 7.35 0 0 1 .62 14.67 3.28 3.28 0 0 1 -.62 0 7 7 0 0 1 -1.6-.17 7.36 7.36 0 0 1 1.6-14.5" fill="#fff"/><g fill="#002852"><path d="m8 .59a7.35 7.35 0 0 1 .62 14.67 3.28 3.28 0 0 1 -.62 0 7 7 0 0 1 -1.6-.17 7.36 7.36 0 0 1 1.6-14.5m0-.59a8 8 0 0 0 -8 7.94 8 8 0 0 0 6.23 7.77 8.12 8.12 0 0 0 1.77.18 4.29 4.29 0 0 0 .71 0 7.94 7.94 0 0 0 -.71-15.89z"/><path d="m3.13 11a4.3 4.3 0 0 0 2.07-.35 3.53 3.53 0 0 0 .83-.5 2.07 2.07 0 0 1 -.86-.15 1.93 1.93 0 0 1 -.94-1.06c-.05-.1-.05-.1.07-.1a1.65 1.65 0 0 0 .73 0 2 2 0 0 1 -1.54-1.97c0-.09 0-.1.1-.06a1.76 1.76 0 0 0 .77.19l-.36-.28a2 2 0 0 1 -.31-2.25c0-.1.06-.1.13 0a5.62 5.62 0 0 0 3.5 1.91c.14 0 .29 0 .44.06s.1 0 .09-.1a2 2 0 0 1 3.33-1.79.21.21 0 0 0 .21 0 3.43 3.43 0 0 0 1-.41l.09-.05a1.9 1.9 0 0 1 -.84 1.09 4.2 4.2 0 0 0 1.12-.18s0 .07 0 .11a3.84 3.84 0 0 1 -.82.84.18.18 0 0 0 -.08.16 5.75 5.75 0 0 1 -1.42 3.89 5.31 5.31 0 0 1 -3.31 1.86 5.62 5.62 0 0 1 -4-.77z" fill-rule="evenodd"/></g></svg>