<svg viewBox="0 0 64.37 91.55" xmlns="http://www.w3.org/2000/svg"><g fill-rule="evenodd"><path d="m32.19 0a32.18 32.18 0 0 0 -32.19 32.11c0 6.13 3.48 15.69 10.66 29.25 5.78 11 12.6 21.79 16.15 27.27a6.41 6.41 0 0 0 10.75 0c3.55-5.48 10.37-16.32 16.16-27.27 7.17-13.56 10.65-23.12 10.65-29.25a32.17 32.17 0 0 0 -32.18-32.11zm.81 85.72a1 1 0 0 1 -1.71 0c-16.21-25.12-25.91-45.16-25.91-53.61a26.81 26.81 0 0 1 53.62 0c0 8.45-9.7 28.49-26 53.61z" fill="#002852"/><path d="m48 21.78a11.33 11.33 0 0 0 -15.8.22 11.35 11.35 0 0 0 -15.83-.24 11.17 11.17 0 0 0 -.13 16l11.55 11a6.36 6.36 0 0 0 8.78 0l11.53-11a11.16 11.16 0 0 0 -.14-16zm-3.62 12.15-11.51 10.93a1 1 0 0 1 -1.37 0l-11.5-10.93a5.82 5.82 0 0 1 .1-8.3 6 6 0 0 1 8.28.17l1.92 1.91a2.67 2.67 0 0 0 3.79 0l1.91-1.91a6 6 0 0 1 8.29-.17 5.83 5.83 0 0 1 .09 8.3z" fill="#002852"/><path d="m44.38 33.93-11.51 10.93a1 1 0 0 1 -1.37 0l-11.5-10.93a5.82 5.82 0 0 1 .1-8.3 6 6 0 0 1 8.28.17l1.92 1.91a2.67 2.67 0 0 0 3.79 0l1.91-1.91a6 6 0 0 1 8.29-.17 5.83 5.83 0 0 1 .09 8.3z" fill="#6fcbdb"/></g></svg>